<?xml version="1.0" encoding="utf-8"?>
<!-- Generator: Adobe Illustrator 25.0.0, SVG Export Plug-In . SVG Version: 6.00 Build 0)  -->
<svg version="1.1" id="圖層_1" xmlns="http://www.w3.org/2000/svg" xmlns:xlink="http://www.w3.org/1999/xlink" x="0px" y="0px"
	 viewBox="0 0 900 400" style="enable-background:new 0 0 900 400;" xml:space="preserve">
<style type="text/css">
	.st0{fill:#B8C984;}
	.st1{fill:#D6D6D6;}
	.st2{fill:#24A091;}
	.st3{fill:#F2385A;}
	.st4{fill:#EFEFEF;}
	.st5{font-family:'jf-openhuninn-1.1';}
	.st6{font-size:18.2847px;}
	.st7{font-size:16.1406px;}
	.st8{fill:#024959;}
	.st9{fill:#F2F2F2;}
	.st10{font-family:'MicrosoftSansSerif';}
	.st11{font-size:16.9234px;}
	.st12{fill:#EF6583;}
	.st13{font-size:18.0628px;}
	.st14{fill:#066170;}
	.st15{fill:#076170;}
	.st16{fill:#0F7282;}
	.st17{fill:#E5E5E5;}
	.st18{fill:#FFFFFF;}
	.st19{fill:#3399CC;}
	.st20{opacity:0.15;enable-background:new    ;}
	.st21{opacity:0.39;enable-background:new    ;}
	.st22{opacity:0.15;fill:#FFFFFF;enable-background:new    ;}
	.st23{fill:#656565;}
	.st24{opacity:0.25;fill:#FFFFFF;enable-background:new    ;}
	.st25{opacity:6.000000e-02;enable-background:new    ;}
	.st26{fill:#2D3134;}
	.st27{opacity:0.3;enable-background:new    ;}
	.st28{fill:#28896D;}
	.st29{opacity:0.2;fill:#FFFFFF;enable-background:new    ;}
	.st30{fill:#539B00;}
	.st31{opacity:0.11;enable-background:new    ;}
	.st32{opacity:0.29;enable-background:new    ;}
	.st33{fill:#BC2B4A;}
	.st34{font-size:15.8058px;}
	.st35{fill:#F8EBCB;}
	.st36{fill:#825012;}
	.st37{fill:#762C07;}
	.st38{font-size:14.8441px;}
	.st39{opacity:0.5;}
	.st40{font-size:22.2227px;}
	.st41{font-size:10.03px;}
	.st42{fill:none;stroke:#024959;stroke-width:3;stroke-miterlimit:10;}
	.st43{font-size:10.6679px;}
	.st44{font-size:24px;}
	.st45{fill:#929596;}
	.st46{font-size:15.6908px;}
	.st47{fill:#894D24;}
	.st48{font-size:16.1402px;}
	.st49{font-size:16.1407px;}
</style>
<path class="st0" d="M220.5,324.2c-11.7-46.1-19.5-88.7-16.1-120.8c-1.1-7.7,4.7-14.6,12.8-15.1l39.3-3c8.1-0.6,15.5,5.2,16.6,13
	l16.4,139.4"/>
<path class="st0" d="M344.2,341.2l-19.3-137.4c-1.3-8.8,4.6-16.5,13.2-17.1l41.1-3c8.4-0.6,16.4,6.2,17.7,14.9L416.7,357"/>
<path class="st0" d="M365.3,128.7l-110.9,15.5c-8.3,1.1-16.2-4.5-17.5-12.9L232.1,99c-1.2-8.2,4.6-15.9,13.1-17.2l110.9-15.6
	c8.3-1.1,16.2,4.5,17.5,12.9l4.8,32.3C379.6,119.8,373.7,127.5,365.3,128.7z"/>
<path class="st0" d="M506.3,348.8l-26.1-84.1c-1.8-5.8,1.5-12.1,7.3-13.9l50.9-10.6c5.8-1.8-10.6,3.4-8.8,9.2l26.7,91.5"/>
<path class="st0" d="M558.4,343.7l-46.7-87.9c-3-5.7-15.8-7.5-6.2-9.5l64.8-13.2c9.6-1.8,20,1.3,22.8,6.8l44.3,88.7"/>
<g>
	<g>
		<path class="st1" d="M199.6,308.4c4.4,0,4.4-6.8,0-6.8C195.2,301.6,195.2,308.4,199.6,308.4L199.6,308.4z"/>
	</g>
</g>
<g>
	<path class="st1" d="M184,310.7l-25.4,2.2c-9,0.8-17-4.8-17.8-12.2L129,202c-0.9-7.5,5.7-14.2,14.5-14.9l25.4-2.2
		c9-0.8,17,4.8,17.8,12.2l11.8,98.7C199.5,303.2,193,309.9,184,310.7z"/>
	<g>
		<g>
			<path class="st1" d="M140.6,287.7c-1.4,1.6-3.7,2.4-5.8,2.4c-4.6,0-5.6,5.6-1.1,6.7c3.8,0.9,7.9-0.6,10-3.2
				c2.3-2.7,2.2-6.2,1.5-9.2c-0.7-3.3-7.1-3.2-7.9,0c-0.4,1.6-0.7,3.4-2,4.8c-0.4,0.5-0.8,0.7-1.5,0.9c0.4-0.1-0.7,0.1-0.3,0
				c-0.3,0-0.3,0-0.7-0.1c-0.4,2.3-0.7,4.4-1.1,6.7c7.3,0.6,13.3-4.3,14.2-10.1c0.1-1.3-1.2-2.7-2.4-3.1c-1.6-0.6-3.1-0.2-4.5,0.7
				c-2.8,1.8-6,3.8-9.6,3.6c0,2.3,0,4.6,0,6.8c3.5-0.3,7.2-0.9,9.6-3.2c2.3-2.2,3-5,3.5-7.9c1.1-6.3,2.3-12.6,3.4-18.9
				c0.3-1.8-0.5-3.6-2.8-4.2c-1.9-0.5-4.6,0.6-5,2.4c-0.9,5.4-1.9,10.8-2.8,16.2c-0.4,2.3-0.5,4.8-1.5,6.9c-0.7,1.4-2.3,1.7-4.3,1.9
				c-2.2,0.2-4.1,1.5-4.1,3.4s1.9,3.3,4.1,3.4c6,0.1,10.9-2.7,15.3-5.7c-2.3-0.8-4.6-1.6-6.9-2.4c0,0.2-0.3,0.7-0.5,1.1
				c-0.3,0.3-0.9,1-1.4,1.4c-1.2,0.8-2.2,1-4.1,0.8c-2-0.1-3.8,1.5-3.9,3c-0.3,1.7,0.9,3.2,2.8,3.8c3.5,0.9,7.5-0.1,10-2.3
				c2.6-2.2,3.7-5.1,4.3-8c-2.6,0-5.3,0-7.9,0c0.3,1,0.4,2.3-0.1,3.3c-0.1,0.3-0.4,0.6-0.7,0.7s-0.1,0.1-0.5,0.2
				c0.3,0,0.7,0.1-0.1-0.1c-0.4,2.3-0.7,4.4-1.1,6.7c5.3-0.1,9.9-2.3,12.9-5.8c1.2-1.5,0.3-3.8-1.5-4.7
				C144.2,285.4,141.8,286.1,140.6,287.7L140.6,287.7z"/>
		</g>
	</g>
	<g>
		<g>
			<path class="st1" d="M192.4,298.7c0.3,0.2,0.3,0.2,0-0.1C192.6,298.8,192.6,298.8,192.4,298.7c-0.3-0.5,0.1,0.2,0.1,0.3
				c0.3,0.9,0-0.5,0,0.3c0,0.2,0,0.6,0.1,0.8c0.1,1.5,0.5,3,1.1,4.3c1.2,2.7,3.3,5.4,6,7.3c0.5-1.9,1.2-3.8,1.8-5.7
				c-0.9,0.2,0.5-0.1,0.5,0s-0.9-0.3-0.4-0.1c0.4,0.2-0.4-0.3,0.1,0.1c-0.1-0.1-0.8-0.7-0.3-0.2c-0.1-0.2-0.4-0.5-0.5-0.7
				s-0.3-0.7-0.1-0.2c-0.3-0.6-0.4-1.1-0.7-1.7c-0.4-1.3-0.8-2.4-1.1-3.6c0-0.1-0.1-0.9-0.1-0.6s0-0.6,0-0.6c0-0.3,0-0.7,0-1
				c0-0.1,0.1-1.1,0-0.6c-2.6,0-5.3,0-7.9,0c0.7,2.4,1.5,4.8,2.7,6.9c1.2,2.2,3.3,4,5.4,5.5c4.7,3.3,9.9,6,14.9,9
				c1.8,1,4.6,0.3,5.6-1.3c1.1-1.7,0.4-3.5-1.5-4.7c-2.3-1.4-4.7-2.8-7.1-4.2c-1.2-0.7-2.3-1.4-3.5-2.1c-0.5-0.2-0.9-0.6-1.4-0.9
				c-0.3-0.1-0.5-0.3-0.8-0.5c-0.5-0.3,0.7,0.5-0.3-0.2c-0.9-0.6-1.8-1.3-2.6-1.9c-0.3-0.2-0.4-0.5-0.7-0.6
				c-0.3-0.2,0.3,0.3-0.1-0.2c-0.3-0.5-0.7-0.8-0.9-1.3c-0.1-0.2-0.3-0.5-0.4-0.7c-0.3-0.6,0,0.1-0.1-0.2c-0.1-0.5-0.4-0.9-0.5-1.4
				c-0.4-1-0.7-2.2-0.9-3.2c-0.4-1.4-2.2-2.6-3.9-2.5c-1.6,0.1-3.7,1-3.9,2.5c-0.7,3.9,0.3,7.7,1.8,11.4c0.7,1.8,1.8,3.5,3.5,4.8
				c2.2,1.5,4.7,2.1,7.5,1.5s4.2-4.1,1.8-5.7c-0.5-0.5-1.2-0.9-1.8-1.4c-0.1-0.1-0.9-0.9-0.4-0.3c-0.3-0.2-0.4-0.5-0.7-0.8
				c-0.4-0.6-0.7-1-1.1-1.6c-0.4-0.7,0.1,0.3-0.1-0.3c-0.1-0.3-0.3-0.7-0.4-1c-0.1-0.3-0.1-0.6-0.3-0.9c0-0.1-0.1-1.3-0.1-0.5
				c-0.1-0.8-0.1-1.5-0.3-2.3c-0.3-1.5-0.9-3.1-2.4-4.1c-1.6-1.1-4.2-1.5-5.7,0C191.1,295.2,190.7,297.5,192.4,298.7L192.4,298.7z"
				/>
		</g>
	</g>
</g>
<g>
	<g>
		<path class="st1" d="M122.9,305.9c31,9.7,63.3,16.2,95.9,21.9c33.6,5.8,67.4,10.9,101.1,16.3c34.6,5.5,69.4,12.1,104.9,13.4
			c35.2,1.4,70.3-1.7,104.9-5.9c17.2-2.1,34.3-4.6,51.5-6.9c16.7-2.4,33.6-4.8,50.1-8.4c8.5-1.8,16.6-5,20.9-11.4
			c4-5.7,4.6-12.3,5-18.7c0.6-13.3-0.7-26.8-3.9-40c-3-13-7.9-25.7-14.7-37.9c-6.3-11.6-16.2-21.6-30.4-27.7c-6.8-3-14.1-5-21.4-7.1
			c-3.5-1-6.9-1.9-10.5-3c-0.9-0.2-1.6-0.5-2.3-0.7c-0.1,0-1.2-0.2-1.2-0.3c0,0,1.9,0.7,0.7,0.2c-1.6-0.6-3.2-1.1-4.8-1.7
			c-6.1-2.3-12-5-17.6-8c-1.3-0.7-2.6-1.4-3.9-2.2c-0.6-0.3-1.3-0.7-1.9-1.1c-0.3-0.2-0.6-0.3-1-0.6c-1.3-0.8,0,0.2,0.3,0.2
			c-0.6,0.1-3.5-2.2-4-2.6c-1.3-0.9-2.6-1.8-3.9-2.7c-5-3.5-9.8-7.4-14.3-11.5c-2.2-1.9-4.3-4-6.5-6.2c-1.3-1.3,1,1-0.3-0.2
			c-0.4-0.5-1-1-1.4-1.5c-1-1.1-2-2.3-3-3.3c-8.1-9-14.9-18.7-20.5-28.8c-0.4-0.7-0.7-1.4-1.2-2.1c-0.1-0.3-0.4-0.7-0.6-1
			c0,0.1,0.6,1.3,0.1,0.3c-0.7-1.5-1.6-3.1-2.3-4.6c-1.4-3.1-2.9-6.2-4.2-9.2c-2.6-6-4.9-12.2-6.9-18.5c-4-12.3-7.1-24.9-9.7-37.5
			c-1.3-6.3-2.5-12.5-3.5-18.8c-0.3-1.9-2.9-4.2-4.9-5.1c-2.3-1-5.8-1.5-8.4-0.9c-6.2,1.6-8.4,5.7-7.5,10.5
			c4.3,24.9,9.7,50,19.9,73.9c9.5,22.4,23.1,43.5,42.3,61.7c18,17.1,40.8,30.5,67.2,38.5c3.3,1,6.6,1.9,10.1,2.8
			c1.6,0.5,3.2,0.9,4.8,1.4s3.8,0.8,5.2,1.6c0,0-1.7-0.6-0.6-0.2c0.4,0.1,0.7,0.2,1.2,0.5c0.7,0.2,1.6,0.6,2.3,0.8
			c1.6,0.6,3.3,1.3,4.9,2.1c1.4,0.7,2.9,1.4,4.2,2.2c0.3,0.2,2.3,1.4,1.3,0.7s0,0.1,0.3,0.1c0.4,0.3,0.9,0.6,1.3,0.9
			c1.3,0.9,2.5,1.8,3.6,2.8c0.6,0.5,1.2,1,1.7,1.6c0.1,0.1,1,1,0.1,0.2c-0.9-0.9,0.3,0.3,0.4,0.5c2,2.3,3.9,4.8,5.5,7.3
			c0.7,1.3,1.6,2.5,2.3,3.6c0.4,0.7,1,1.8,0.3,0.5c0.4,0.7,0.7,1.5,1.2,2.2c1.4,2.8,2.7,5.8,4,8.8c2.6,6,4.6,12.2,6.3,18.5
			c0.9,3.1,1.6,6.3,2.2,9.3c0.1,0.8,0.3,1.5,0.4,2.3c0.1,1,0-0.2,0-0.3c0,0.3,0.1,0.8,0.1,1.1c0.3,1.6,0.4,3.3,0.7,4.9
			c0.7,6.4,1.2,12.8,1,19.1c0,3-0.1,5.9-0.4,8.9c0,0.2-0.1,0.7-0.1,0.9c0,0,0.3-1.7,0.1-0.7c-0.1,0.6-0.3,1.3-0.4,1.8
			c-0.1,0.6-0.3,1.1-0.6,1.8c-0.1,0.3-0.3,0.6-0.3,0.9c-0.6,1.3-0.1-0.3,0.3-0.3c-0.3,0.1-0.9,1.4-1.2,1.6c-1,1.3,1.3-0.9-0.1,0.1
			c-0.3,0.2-0.6,0.5-0.9,0.7c-0.9,0.8,0.6-0.5,0.6-0.3c0,0.1-2.6,1.3-2.7,1.3c0,0,1.9-0.6,0.7-0.2c-0.4,0.1-0.7,0.2-1.2,0.3
			c-0.7,0.2-1.6,0.5-2.3,0.6c-1.9,0.5-3.9,0.8-5.8,1.3c-8.2,1.7-16.4,3.1-24.8,4.4c-16.7,2.6-33.5,4.9-50.2,7.2
			c-8.4,1.1-16.9,2.3-25.2,3.2c-4.2,0.5-8.5,1-12.7,1.5c-0.1,0-1.7,0.2-0.6,0.1c1.2-0.1-0.4,0-0.6,0.1c-1,0.1-2,0.2-3,0.3
			c-2.2,0.2-4.3,0.5-6.6,0.7c-16.9,1.6-33.8,2.6-50.8,2.7c-8.5,0.1-16.9-0.1-25.4-0.5c-4.2-0.2-8.5-0.5-12.7-0.8
			c-2-0.1-4-0.3-6.1-0.6c-1-0.1-2-0.2-3-0.3c2,0.2-1-0.1-1.6-0.2c-16.9-1.9-33.5-4.7-50.2-7.4c-33.6-5.4-67.2-10.6-100.9-16.1
			c-32.2-5.2-64.2-10.8-95.4-19c-7.6-2.1-15.1-4.2-22.7-6.5c-5.3-1.6-12.1,1.8-13.3,5.9C113.9,300.3,117.3,304.1,122.9,305.9
			L122.9,305.9z"/>
	</g>
</g>
<g>
	<g>
		<path class="st2" d="M180.8,68c-1.8,5.8-3.5,11.6-5.7,17.3c-0.5,1.4-1,2.6-1.6,4c-0.3,1-0.2,0.5-0.1,0.2c-0.1,0.3-0.2,0.7-0.5,1
			c-0.3,0.8-0.7,1.6-1.1,2.4c-1.3,2.7-2.7,5.5-4.1,8.1c-5.6,10.4-13,22.8-9.1,35c1.8,5.6,5.6,10.3,11.2,12.5
			c5.1,2.2,12.1,0.9,15.1-4.1c1.9-3.2,1.6-6.8,0.5-10.3c-0.5-1.4-0.9-2.6-1.3-4c-0.1-0.7-0.3-1.4-0.5-2.1c-0.1-0.3-0.1-0.7-0.2-1
			c-0.2-1.6,0.1,1-0.1-0.7c-0.2-3-0.3-5.8-0.1-8.8c0-0.7,0.1-1.4,0.2-2.1c0-0.3,0.1-0.7,0.1-1c0,0.2-0.1,0.9,0-0.2
			c0.2-1.6,0.5-3.1,0.8-4.7c2.8-13.6,8.4-26.3,10-40.1c0.2-2.5-2.2-4.8-4.4-5c-2.5-0.3-4.9,1.3-5.6,3.6c-3,10-5.8,20-8.8,30.2
			c-1.5,5-2.8,9.9-4.3,14.9c-1.4,4.9-3.3,9.9-4.1,14.9c-0.9,5.1-0.2,10.9,4,14.5c2.1,1.8,4.8,3.1,7.5,2.8c3.5-0.2,6.5-2.4,7.5-5.9
			c0.7-2.5,0.7-5.5,0.9-8.1s0.5-5.2,0.8-7.9c0.6-5.1,1-10.3,1.6-15.4c0.7-5.8,1.3-11.6,1.9-17.3c0.1-0.7,0.1-1.4,0.2-2.1
			c0-0.2,0.1-0.5,0.1-0.7c-0.1,0.6,0,0.3,0-0.1c0.2-1.3,0.3-2.6,0.7-3.9c0.2-1.3,0.6-2.5,1-3.8c0.1-0.2,0.2-0.5,0.2-0.7
			c0.2-0.8-0.3,0.6,0-0.1s0.7-1.3,1-1.9c-3.1-0.5-6.3-0.8-9.3-1.3c0.2,1.7,0-0.5,0.1,0.5c0,0.5,0.1,0.9,0.1,1.4
			c0.1,0.7,0.1,1.5,0.1,2.2c0.1,1.8,0.1,3.5,0,5.4c-0.1,3.4-0.3,6.8-0.7,10.3c-0.6,7.2-0.8,14.1,0.2,21.2c0.2,1.6,0.5,3.1,0.8,4.7
			c0.1,0.9,0.3,1.7,0.5,2.6c0,0.3,0.1,0.7,0.1,1c0,0,0.2,1.7,0.1,0.7c0.2,1.6,0.3,3.1,0.3,4.7c0,0.8,0,1.7-0.1,2.5
			c0,0.3,0,0.7-0.1,1c0.1-1-0.1,0.6-0.1,0.7c-0.1,0.8-0.3,1.7-0.7,2.5c-0.1,0.3-0.2,0.6-0.3,0.9c0.3-0.9,0.1-0.2,0,0
			c-0.2,0.3-0.3,0.7-0.6,0.9c-0.1,0.2-0.8,0.9-0.1,0.2c-0.2,0.2-0.3,0.5-0.6,0.6c-0.9,0.9,0.8-0.5-0.3,0.2c-0.7,0.5-0.1,0.1,0.1,0
			c0,0-1.4,0.5-0.5,0.2c0.8-0.2-0.3,0.1-0.6,0c0.3,0.3,0.8,0.1,0.2,0c-0.9-0.1,0.1,0.1,0.3,0.2c0.1,0,0.1,0.1,0.2,0.1
			c-0.3-0.3-0.3-0.3,0.1,0.2c-0.2-0.2-0.3-0.8,0.1,0.3c-0.1-0.5-0.1-0.5,0,0c0,0.5,0,0.5,0,0c0-0.1,0-0.2,0-0.3c0,0.2,0,0.5-0.1,0.7
			c0.1-0.8-0.2,0.6-0.6,0.8c-0.2,0.1-0.3,0.2-0.6,0.3c0.5-0.2,0.5-0.2,0.1-0.1c-0.6,0.2,0.9-0.2,1-0.2c1.8-0.5,3.5-1.4,4.9-2.7
			c2.8-2.7,4.1-7.3,2.8-11c-0.8-2.5-3.5-4.4-6.3-3.5c-2.5,0.8-4.4,3.5-3.5,6.3c0,0.1,0.1,0.2,0.1,0.3c0.1,0.6,0.1,0.5,0-0.3
			c0,0,0,1.4,0,0.5c0.1-0.9,0,0.3-0.1,0.3c0.1-0.2,0.1-0.3,0.2-0.6c-0.1,0.2-0.2,0.5-0.3,0.7c-0.3,0.7,0.1-0.1,0.1-0.1
			c0,0.1-1.3,1-0.1,0.1c-0.2,0.2-0.6,0.7,0.2,0c-0.3,0.3-1.3,0.3-1.7,0.5c-4.2,1.1-7.2,4.7-6.7,9.1c0.5,4.8,4.1,8.2,8.9,8.5
			c4.4,0.3,8.2-2.2,10.6-5.6c4.7-6.6,4-15.5,2.8-23c-0.2-1.7-0.6-3.5-0.9-5.2c-0.1-0.6-0.1-1-0.2-1.6c0,0.1-0.2-1.6-0.1-0.9
			c0.1,0.7-0.1-1-0.1-0.9c-0.1-0.6-0.1-1.3-0.2-1.8c-0.3-3.9-0.1-7.7,0.1-11.6c0.6-9,1.6-17.7,0.2-26.7c-0.3-1.9-2.5-3.4-4.2-3.6
			c-1.9-0.2-4.1,0.7-5.1,2.4c-2.2,3.9-3.3,8.1-4,12.5c-0.7,4.8-1.3,9.7-1.7,14.5c-1.1,9.6-2.1,19-3.1,28.6c-0.2,2.4-0.5,4.9-0.7,7.3
			c0,0.6-0.1,1-0.1,1.6c0-0.1,0.1-0.9,0-0.3s0.1-0.2,0.1-0.2c0.7-0.7,1.1-1,1.9-1.1c-0.1,0-0.9,0-0.1,0c0.7,0-0.1-0.1-0.2-0.1
			c-0.6-0.1,0.5,0.1,0.3,0.1c-0.1,0-0.7-0.3-0.7-0.3c0.1,0,0.6,0.6,0.3,0.2c-0.1-0.1-0.2-0.2-0.5-0.5c-0.7-0.7,0.2,0.6-0.1-0.2
			c-0.1-0.1-0.2-0.3-0.3-0.6c-0.3-0.6,0.2,0.8,0,0.1c-0.1-0.3-0.2-0.8-0.3-1.1c-0.1-0.5,0,0.1,0,0.1c0-0.2,0-0.6,0-0.8
			c0-0.6,0-1,0.1-1.6c0-0.6,0,0,0,0.1c0.1-0.3,0.1-0.7,0.2-1c1-4.7,2.6-9.2,3.9-13.9c1.4-4.7,2.6-9.2,4-13.9c3-10.4,6-20.8,9-31.2
			c-3.3-0.5-6.7-0.9-10-1.4c0,0.3-0.1,0.7-0.1,1c0-0.2,0.1-0.8,0,0.2c-0.1,0.6-0.2,1.3-0.3,1.8c-0.2,1.5-0.6,3-0.9,4.4
			c-0.6,2.7-1.4,5.4-2.2,8.1c-1.6,5.4-3.4,10.7-4.8,16.2c-2.8,10.8-4.6,22.6-1.1,33.5c0.5,1.4,0.9,2.6,1.3,4c0,0.1,0.1,0.8,0.1,0.3
			c0-0.7,0,0.8,0,0.1c0-0.1,0-0.1,0-0.2c-0.1,0.5-0.1,0.5,0,0c0.1-0.3,0.1-0.5,0-0.1c-0.2,0.3-0.1,0.2,0.3-0.3l-0.5,0.5
			c-0.1-0.1,0.9-0.5,0.3-0.3c-0.2,0.1-0.5,0.2-0.6,0.3c-0.5,0.3,0.8-0.1,0.2-0.1c-0.3,0-0.9,0.5-1.3,0.3c0,0,1.1,0,0.3-0.1
			c-0.2,0-0.6,0-0.9,0c-0.7,0.1,0.9,0.3,0.3,0c-0.2-0.1-0.5-0.1-0.7-0.2c-0.5-0.1-1.4-0.7-0.5-0.1c-0.5-0.2-0.9-0.6-1.4-0.8
			c-0.2-0.1-0.7-0.6,0.1,0.1c-0.2-0.2-0.5-0.3-0.6-0.6c-0.5-0.3-0.8-0.8-1.1-1.1c-0.2-0.2-0.5-0.8,0,0.1c-0.1-0.2-0.3-0.5-0.5-0.7
			c-0.2-0.5-0.5-0.8-0.7-1.3c-0.1-0.2-0.2-0.5-0.3-0.8c-0.3-0.7,0.3,1.1,0-0.1c-0.3-1-0.6-1.9-0.8-3c-0.1-0.6,0,0.3,0,0.3
			c0-0.3-0.1-0.7-0.1-1c0-0.8,0-1.6,0-2.3c0-0.2,0.1-1.8,0-0.9c0.1-0.7,0.2-1.4,0.3-2.1c0.3-1.4,0.7-2.7,1.1-4
			c0.2-0.7,0.5-1.4,0.7-1.9c0-0.1,0.3-0.9,0.1-0.2c0.1-0.2,0.2-0.5,0.3-0.7c0.6-1.4,1.3-2.7,1.9-4.1c1.3-2.5,2.5-4.9,3.9-7.3
			c3.1-5.7,5.9-11.6,8.2-17.7c2.3-5.9,4.1-12,6-18c0.8-2.5-0.9-5.7-3.5-6.3C184.3,63.8,181.6,65.2,180.8,68L180.8,68z"/>
	</g>
</g>
<g>
	<g>
		<path class="st0" d="M192.1,66.3c5.4,14.9,0.6,30.9,1,46.2c0.2,7.9,1.9,15.6,1.8,23.5c0,3-0.3,6.3-2.5,8.5
			c-2.1,2.2-4.9,3.2-7.7,3.6c-3.4,0.6-7.3,0.5-10.6-0.2c-3.1-0.7-5.5-2.2-7.5-4.4c-4.3-5-5.4-12.3-6-18.7c-0.1-1.6-0.3-3.2-0.1-4.8
			c0.2-1.8,0.9-3.8,1.6-5.4c1.4-3.2,3.1-6.3,4.8-9.3c3.5-6.3,7.4-12.4,10.3-19c1.7-4,3-8.2,4.2-12.3c0.9-2.8,1.8-6.7,4.3-8.4
			c1.4-0.9,3.2-1,4.8-1c0.8,0,1.5,0,1.9,0.1c0.3,0,0.5,0.2,0.5,0.2c0.3,0.8,0.5,1.8,0.6,2.7c0.2,1.1,0.3,2.2,0.6,3.3
			c0.3,2.3,0.7,4.6,0.9,6.8c0.2,1.8,1.4,3.4,3.4,3.4c1.7,0,3.6-1.6,3.4-3.4c-0.6-4.7-1-9.5-2.2-13.9c-1-4.4-4.8-6.3-9.2-6.2
			c-4.2,0.1-8.3,1-11.2,4.6c-2.6,3.2-3.8,7.2-4.9,11c-1.1,3.9-2.3,7.6-4,11.3c-1.7,3.6-3.6,7.1-5.6,10.6c-1.9,3.4-4,6.9-5.9,10.4
			c-1.9,3.6-3.9,7.4-4.9,11.4c-1,4.3-0.5,8.8,0.2,13.2c0.6,4.3,1.6,8.4,3.4,12.3c1.5,3.2,3.6,6.3,6.5,8.5c3.4,2.7,7.2,4,11.5,4.4
			c8.1,0.8,17.4-0.1,22.7-7.1c2.6-3.4,3.3-7.7,3.4-12.1c0.1-4.4-0.5-8.8-0.9-13.1c-0.6-4.9-1-9.9-0.9-14.8c0.1-5,0.7-10,1-15
			c0.8-9.6,1-19.4-2.3-28.6c-0.6-1.7-2.3-2.8-4.2-2.4C192.8,62.5,191.4,64.6,192.1,66.3L192.1,66.3z"/>
	</g>
</g>
<g>
	<g>
		<path class="st0" d="M193.2,145.6c5.2,10,18.4,30,25.9,37c7.4,7.2,16.3,13.3,25.7,14.5c2.4,0.4,15.5,6.5,15.5,3.4
			c0-3.5-13.1-15.3-15.5-15.7c-7.6-1-15-7-21-12.9c-6.1-5.7-11.2-13.1-15.5-21.3c-1.4-2.7-9.6-11.1-11.9-9.5
			c-2.1,1.6-3.9,3.7,3.8,15.8L193.2,145.6z"/>
	</g>
</g>
<g>
	<g>
		<path class="st0" d="M257.2,209.6c9.4,1,21.8,2.2,29.6-2.8c7.6-4.9,8.6-13,6.8-19.9c-1.8-6.8-6.6-12.9-10.1-19.3
			c-3.1-5.5-4.3-10.7-3.5-16.5c0.8-5.7,4.3-11.3,10.1-15.4c5.5-3.9-2.7-10-8.2-6.1c-11.5,8.3-15.4,20.6-12.9,32
			c1.4,6.5,5.7,12.3,9.2,18.1c3.1,5.1,6,11,3.9,16.7c-1,2.6-3.1,4.6-6.8,5.1c-4.9,0.6-10.1,0.3-15-0.3c-3.1-0.3-6.2,0.6-7.2,3
			C252.3,206.4,254,209.3,257.2,209.6L257.2,209.6z"/>
	</g>
</g>
<g>
	<g>
		<path class="st0" d="M285.3,252.5c4.4,0,4.4-6.8,0-6.8S280.9,252.5,285.3,252.5L285.3,252.5z"/>
	</g>
</g>
<g>
	<g>
		<path class="st0" d="M390.6,195.9c1.8-2.5,4.7-4.6,7.6-5.6c3.9-1.4,7.9-0.8,12-1.1c7.7-0.7,14.8-5.2,18.3-12.3
			c0.8-1.7,0.5-3.6-1.3-4.7c-1.5-0.9-3.9-0.5-4.7,1.3c-1.5,3-3.5,5.2-6.4,6.9c-3.2,1.8-6.6,2.1-10.3,2.2c-4.3,0-8.3,0.6-12.3,2.4
			c-3.6,1.7-6.5,4.3-8.9,7.5c-1.1,1.5-0.2,3.8,1.3,4.7C387.8,198,389.6,197.3,390.6,195.9L390.6,195.9z"/>
	</g>
</g>
<g>
	<g>
		<path class="st0" d="M291.8,252c8-2.3,12.6-9.5,17-16c4.2-6.4,8-12.9,12.6-19.1c7.6-10.4,18.9-20.3,32.2-19.5
			c3.1,0.2,5.7-2.7,5.7-5.8c0-3.3-2.7-5.6-5.7-5.8c-15.3-1-29,8.7-38.1,20.1c-5.1,6.4-9.3,13.1-13.7,20.1c-2.1,3.3-4.2,6.6-6.5,9.8
			c-1.7,2.1-3.6,4.4-6.3,5.2C281.7,242.9,284.7,254.1,291.8,252L291.8,252z"/>
	</g>
</g>
<g>
	<g>
		<path class="st0" d="M398.9,253.8c3.3-0.1,6.2,0.7,8.9,1.7c3.4,1.3,6.7,2.5,10.1,3.5c7.8,2.2,16.3,3.8,24.8,4.9
			c8.9,1.3,17.2,1,25.9-0.7c8.5-1.7,16.8-3.8,25.2-5.7c2.7-0.6,4.5-2.3,3.8-4.2c-0.7-1.7-4-3-6.7-2.4c-8.3,1.8-16.5,3.9-24.8,5.6
			c-3.8,0.8-7.6,1.4-11.4,1.5c-4,0-7.8-0.5-11.6-1c-7.6-1.3-15.6-2.5-22.6-4.8c-6.9-2.3-13.4-5.5-21.7-5.2c-2.9,0.1-5.4,1.5-5.4,3.4
			C393.5,252.2,396,254,398.9,253.8L398.9,253.8z"/>
	</g>
</g>
<g>
	<g>
		<path class="st0" d="M488,238.6c-6.7-2.7-10.5-10.4-12.6-17.2c-2.8-8.9-4.2-18.5-9.5-26.3c-1-1.5-3-2.2-4.7-1.3
			c-1.5,0.9-2.3,3.2-1.3,4.7c5.4,8,6.3,17.8,9.5,26.7c0,10.5,19.6,23,28.2,26.5c1.7,0.7,7.4-3.8,7.8-5.4
			C505.9,244.3,489.7,239.3,488,238.6L488,238.6z"/>
	</g>
</g>
<g>
	<g>
		<path class="st0" d="M405.5,91.1c-1.4,9.7,0.5,19.5,5.4,28c2.4,4.1,5.7,7.5,8.7,11.2c1.3,1.6,2.5,3.3,3.2,5.2
			c0.9,2.5,1.5,5,2.5,7.4c0.8,1.7,3.2,2.1,4.7,1.3c1.7-1,2.1-3,1.3-4.7c-0.9-1.9-1.3-4.2-2.1-6.3c-0.8-2.2-1.9-4.1-3.3-6
			c-2.7-3.5-5.9-6.6-8.3-10.4c-4.4-7.1-6.5-15.6-5.4-23.9c0.2-1.8-0.5-3.6-2.4-4.2C408.2,88.2,405.8,89.3,405.5,91.1L405.5,91.1z"/>
	</g>
</g>
<g>
	<path class="st3" d="M256.2,240.7h-31.8c-10.7,0-19.5-5.1-19.5-11.4v-3.2c0-6.3,8.7-11.4,19.5-11.4h31.8c10.7,0,19.5,5.1,19.5,11.4
		v3.2C275.6,235.5,266.9,240.7,256.2,240.7z"/>
	<text transform="matrix(0.8827 0 0 1 210.4263 233.9899)" class="st4 st5 st6">草皮A區</text>
</g>
<g>
	<path class="st3" d="M385.3,298.8h-34.1c-11.5,0-20.9-5.5-20.9-12.3V283c0-6.8,9.3-12.3,20.9-12.3h34.1c11.5,0,20.9,5.5,20.9,12.3
		v3.5C406.2,293.3,396.6,298.8,385.3,298.8z"/>
	<text transform="matrix(0.9999 -1.473000e-02 1.473000e-02 0.9999 337.0837 290.9619)" class="st4 st5 st7">草皮C區</text>
</g>
<g>
	<circle class="st8" cx="161" cy="248.6" r="11.4"/>
	<text transform="matrix(1 0 0 1 156.3255 255.5789)" class="st9 st10 st11">P</text>
</g>
<g>
	<path class="st12" d="M251.3,263.9h-22.1c-7.5,0-13.5-4.9-13.5-10.9v-3.1c0-6,6-10.9,13.5-10.9h22.1c7.5,0,13.5,4.9,13.5,10.9v3.1
		C264.8,258.8,258.8,263.9,251.3,263.9z"/>
	<text transform="matrix(1 0 0 1 221.9889 257.2117)" class="st4 st5 st7">10帳</text>
</g>
<g>
	<path class="st3" d="M167.3,332.4l-19.3-4.8c-6.5-1.7-10.6-8.3-8.9-14.8l0.9-3.4c1.7-6.5,8.3-10.6,14.8-8.9l19.3,4.8
		c6.5,1.7,10.6,8.3,8.9,14.8l-0.9,3.4C180.4,330.1,173.8,334.1,167.3,332.4z"/>
	<text transform="matrix(0.9708 0.2399 -0.2399 0.9708 142.2205 318.6861)" class="st4 st5 st13">入口</text>
</g>
<g>
	<polygon class="st14" points="452.9,179 446,205.1 478.8,186.4 	"/>
	<polygon class="st15" points="438.2,153.4 445.1,127.4 412.3,146.1 	"/>
	<polygon class="st16" points="412.3,146.1 446,205.1 452.9,179 438.2,153.4 	"/>
	<polygon class="st16" points="444.6,127.8 478,186.9 452.1,179.5 437.7,153.7 	"/>
</g>
<g>
	<path class="st3" d="M460.5,178.9h-33.6c-6,0-10.9-4.9-10.9-10.9v-3.1c0-6,4.9-10.9,10.9-10.9h33.6c6,0,10.9,4.9,10.9,10.9v3.1
		C471.5,174,466.6,178.9,460.5,178.9z"/>
	<text transform="matrix(0.9166 0 0 1 422.6992 173.5211)" class="st4 st5 st7">營本部</text>
</g>
<g>
	<g>
		<polygon class="st17" points="458.6,300.7 441.7,308.6 442.1,291.9 459,283.8 		"/>
		<polygon class="st18" points="457.2,291.7 443.4,298.2 443.5,294 457.3,287.4 		"/>
		<polygon class="st19" points="456.8,291.4 444,297.4 444.1,294.3 456.9,288.2 		"/>
		<polygon class="st20" points="456.8,289.8 444,295.8 444.1,294.3 456.9,288.2 		"/>
		<polygon class="st20" points="456.8,288.8 444.1,294.8 444.1,294.3 456.9,288.2 		"/>
		<polygon class="st20" points="456.8,291.4 444.1,294.3 456.9,288.2 		"/>
		<polygon class="st21" points="458.6,300.7 441.7,308.6 442.1,291.9 459,283.8 		"/>
	</g>
	<g>
		<polygon class="st17" points="441.7,308.6 425,299.9 425.4,283.1 442.1,291.9 		"/>
		<polygon class="st18" points="440.3,298.1 426.8,291 426.9,286.8 440.4,293.9 		"/>
		<polygon class="st19" points="439.8,297.3 427.4,290.8 427.5,287.6 439.9,294.2 		"/>
		<polygon class="st20" points="439.8,295.7 427.4,289.2 427.5,287.6 439.9,294.2 		"/>
		<polyline class="st20" points="439.9,294.2 439.8,294.7 427.5,288.1 427.5,287.6 		"/>
		<polygon class="st22" points="439.8,297.3 427.5,287.6 427.4,290.8 		"/>
		<polygon class="st18" points="430.8,302.9 426.6,300.7 426.8,293.4 430.9,295.5 		"/>
		<polygon class="st23" points="427.3,294.2 430.4,295.8 430.2,302.7 427.2,301 		"/>
		<polygon class="st24" points="430.2,302.1 427.2,300.4 427.2,300 430.2,301.5 		"/>
		<polygon class="st24" points="430.2,301.1 427.2,299.4 427.2,298.8 430.3,300.5 		"/>
		<polygon class="st24" points="430.3,300.1 427.2,298.4 427.2,297.8 430.3,299.5 		"/>
		<polygon class="st24" points="430.3,298.9 427.3,297.4 427.3,296.8 430.3,298.5 		"/>
		<polygon class="st24" points="430.3,297.9 427.3,296.2 427.3,295.8 430.3,297.4 		"/>
		<polygon class="st24" points="430.3,296.9 427.3,295.2 427.3,294.7 430.4,296.3 		"/>
		<polygon class="st25" points="441.7,308.6 425,299.9 425.4,283.1 442.1,291.9 		"/>
	</g>
	<polygon class="st26" points="442.1,291.9 459,283.8 442.4,275 425.4,283.1 	"/>
</g>
<g>
	<g>
		<g>
			<circle class="st8" cx="430.7" cy="272.7" r="10.3"/>
		</g>
	</g>
	<g>
		<g>
			<g>
				<path class="st18" d="M433.3,272.8h-0.2v-0.5h0.2c0.3,0,0.7-0.2,0.7-0.7l0.3-3.9c0.3-0.1,0.6-0.4,0.5-0.8
					c-0.1-0.2-0.3-0.5-0.6-0.5l-6.8-0.6c-0.3,0-0.7,0.2-0.7,0.7c0,0.3,0.1,0.6,0.4,0.7l-0.3,3.9c0,0.3,0.2,0.7,0.7,0.7h0.2v0.5h-0.2
					c-0.6,0-1.1,0.4-1.3,1c0,0.1,0.1,0.2,0.2,0.2c-0.1,1.5,0.6,3,2,3.7l-0.2,2.2c0,0.1,0.1,0.2,0.2,0.2l2.7,0.3
					c0.1,0,0.2-0.1,0.2-0.2l0.2-2.2c1.4-0.5,2.4-1.8,2.6-3.2c0.1,0,0.2-0.1,0.2-0.2C434.4,273.4,434,272.8,433.3,272.8z
					 M427.3,266.5c0-0.1,0.1-0.2,0.2-0.2l6.8,0.6c0.1,0,0.2,0.1,0.2,0.2s-0.1,0.2-0.2,0.2l-6.8-0.6
					C427.4,266.7,427.3,266.6,427.3,266.5z M427.5,271.3c-0.1,0-0.2-0.1-0.2-0.2l0.3-3.9l6.4,0.6l-0.3,3.9c0,0.1-0.1,0.2-0.2,0.2
					L427.5,271.3z M432.7,272.2v0.5l-4.5-0.4v-0.5L432.7,272.2z M428.7,279.2l0.2-1.7l0,0c0,0,0,0,0.1,0s0.1,0,0.2,0.1h0.1
					c0.1,0,0.1,0,0.2,0h0.1c0.1,0,0.2,0,0.2,0l0,0l0,0c0.1,0,0.2,0,0.2,0h0.1c0.1,0,0.1,0,0.2,0h0.1c0.1,0,0.1,0,0.2,0
					c0,0,0,0,0.1,0l0,0l-0.2,1.7L428.7,279.2z M431.2,277.1c-0.6,0.2-1.3,0.2-1.9,0c-0.2,0-0.5-0.1-0.6-0.2c-1.2-0.6-2-2-1.9-3.3
					l6.8,0.6C433.6,275.5,432.6,276.6,431.2,277.1z M426.8,273.1c0.1-0.2,0.4-0.4,0.7-0.4l5.9,0.6c0.3,0,0.6,0.2,0.6,0.5
					L426.8,273.1z"/>
				<path class="st18" d="M429.8,268.1h-0.7c-0.1-0.3-0.4-0.6-0.8-0.5s-0.6,0.4-0.5,0.8c0.1,0.3,0.4,0.6,0.8,0.5
					c0.2,0,0.3-0.2,0.5-0.3h0.7c0.1,0,0.2-0.1,0.2-0.2C430.1,268.3,430.1,268.2,429.8,268.1z M428.5,268.5c-0.1,0-0.2-0.1-0.2-0.2
					s0.1-0.2,0.2-0.2s0.2,0.1,0.2,0.2C428.7,268.3,428.6,268.5,428.5,268.5z"/>
			</g>
		</g>
	</g>
</g>
<g>
	<g>
		<circle class="st8" cx="450.9" cy="274.4" r="10.3"/>
	</g>
	<g id="XMLID_1_">
		<g id="XMLID_2_">
			<path id="XMLID_12_" class="st18" d="M457.1,275.9c0-0.5-0.3-0.8-0.8-0.8l-9.9-0.7l0.3-5.1c0-0.5,0.4-0.7,0.8-0.7h0.2
				c0.3,0,0.6,0.2,0.7,0.6c-0.5,0.1-0.8,0.4-0.8,0.9v0.3c0,0.1,0.1,0.2,0.2,0.2l1.6,0.1c0.1,0,0.2-0.1,0.2-0.2v-0.3
				c0-0.5-0.3-0.9-0.8-1c-0.1-0.6-0.5-1-1.1-1.1h-0.2c-0.7,0-1.3,0.4-1.3,1.1l-0.3,5.1h-0.6c-0.5,0-0.8,0.3-0.8,0.8
				c0,0.3,0.2,0.7,0.4,0.8v0.8c0,0.9,0.2,1.7,0.7,2.3c-0.1,0-0.1,0.1-0.2,0.1c-0.2,0-0.3,0.1-0.5,0.3c-0.1,0.2-0.1,0.3-0.1,0.6
				c0.1,0.3,0.3,0.6,0.7,0.6c0.1,0,0.1,0,0.2,0c0.5-0.1,0.9-0.3,1.3-0.8c0.2,0.1,0.6,0.1,0.8,0.1l5.1,0.3c0.3,0,0.6,0,0.8-0.1
				c0.2,0.5,0.7,0.7,1.1,0.9c0.1,0,0.1,0,0.2,0c0.3,0,0.7-0.2,0.8-0.6c0.1-0.2,0-0.5,0-0.6c-0.1-0.2-0.2-0.3-0.4-0.4
				c-0.1,0-0.1-0.1-0.2-0.1c0.6-0.6,1.1-1.2,1.1-2.1v-0.8C456.9,276.5,457.1,276.3,457.1,275.9L457.1,275.9z M449.3,270.3
				L449.3,270.3h-1l0,0c0-0.3,0.2-0.6,0.6-0.4C449.1,269.7,449.3,270,449.3,270.3z M445.9,280.1c-0.1,0-0.1,0-0.2,0
				s-0.1-0.1-0.1-0.2s0-0.1,0-0.2s0.1-0.1,0.2-0.1c0.2,0,0.3-0.1,0.5-0.2c0.1,0.1,0.3,0.2,0.4,0.4
				C446.4,279.8,446.2,280,445.9,280.1z M455.7,280.3c0,0.1,0,0.1,0,0.2s-0.1,0.1-0.1,0.2c-0.1,0-0.1,0-0.2,0
				c-0.3-0.1-0.6-0.4-0.8-0.6c0.2-0.1,0.3-0.2,0.6-0.2c0.1,0.1,0.3,0.2,0.4,0.4C455.5,280.2,455.7,280.2,455.7,280.3L455.7,280.3z
				 M456.3,276.1l-4.3-0.3c-0.1,0-0.2,0.1-0.2,0.2s0.1,0.2,0.2,0.2l4.1,0.3v0.8c-0.1,1.5-1.3,2.6-2.8,2.4l-5.1-0.3
				c-1.5-0.1-2.6-1.3-2.4-2.8v-0.8l4.1,0.3c0.1,0,0.2-0.1,0.2-0.2s-0.1-0.2-0.2-0.2l-4.3-0.3c-0.1,0-0.3-0.1-0.2-0.3
				c0-0.1,0.1-0.3,0.3-0.2l10.9,0.7c0.1,0,0.3,0.1,0.2,0.3C456.7,276,456.6,276.2,456.3,276.1z"/>
			<path id="XMLID_11_" class="st18" d="M450.9,275.8c-0.1,0-0.1,0-0.2,0.1l-0.1,0.1c0,0.1,0,0.1,0.1,0.2l0.1,0.1
				c0.1,0,0.1,0,0.2-0.1s0.1-0.1,0.1-0.1c0-0.1,0-0.1-0.1-0.2C451,275.8,451,275.8,450.9,275.8z"/>
			<path id="XMLID_10_" class="st18" d="M455,270.8c0.1,0,0.2-0.1,0.2-0.2v-0.3c0-0.1-0.1-0.2-0.2-0.2s-0.2,0.1-0.2,0.2v0.3
				C454.7,270.6,454.7,270.8,455,270.8z"/>
			<path id="XMLID_9_" class="st18" d="M454.8,272.5c0.1,0,0.2-0.1,0.2-0.2V272c0-0.1-0.1-0.2-0.2-0.2s-0.2,0.1-0.2,0.2v0.3
				C454.6,272.3,454.7,272.5,454.8,272.5z"/>
			<path id="XMLID_8_" class="st18" d="M455.5,271.6h0.3c0.1,0,0.2-0.1,0.2-0.2s-0.1-0.2-0.2-0.2h-0.3c-0.1,0-0.2,0.1-0.2,0.2
				S455.4,271.6,455.5,271.6z"/>
			<path id="XMLID_7_" class="st18" d="M453.9,271.4h0.3c0.1,0,0.2-0.1,0.2-0.2s-0.1-0.2-0.2-0.2h-0.3c-0.1,0-0.2,0.1-0.2,0.2
				C453.6,271.3,453.7,271.4,453.9,271.4z"/>
			<path id="XMLID_6_" class="st18" d="M451.2,272c0.1,0,0.2-0.1,0.2-0.2v-0.3c0-0.1-0.1-0.2-0.2-0.2s-0.2,0.1-0.2,0.2v0.3
				C450.9,271.9,451.1,272,451.2,272z"/>
			<path id="XMLID_5_" class="st18" d="M451,273.7c0.1,0,0.2-0.1,0.2-0.2v-0.3c0-0.1-0.1-0.2-0.2-0.2s-0.2,0.1-0.2,0.2v0.3
				C450.8,273.6,450.9,273.7,451,273.7z"/>
			<path id="XMLID_4_" class="st18" d="M451.7,272.7h0.3c0.1,0,0.2-0.1,0.2-0.2s-0.1-0.2-0.2-0.2h-0.3c-0.1,0-0.2,0.1-0.2,0.2
				S451.6,272.7,451.7,272.7z"/>
			<path id="XMLID_3_" class="st18" d="M450.1,272.7h0.3c0.1,0,0.2-0.1,0.2-0.2s-0.1-0.2-0.2-0.2h-0.3c-0.1,0-0.2,0.1-0.2,0.2
				S449.9,272.7,450.1,272.7z"/>
		</g>
	</g>
</g>
<g>
	<g>
		<polygon class="st17" points="316.1,272.8 299.3,281.1 299.3,264.4 316.1,256 		"/>
		<polygon class="st18" points="314.5,263.8 300.9,270.6 300.9,266.4 314.5,259.7 		"/>
		<polygon class="st19" points="314,263.6 301.4,269.8 301.4,266.8 314,260.4 		"/>
		<polygon class="st20" points="314,262 301.4,268.4 301.4,266.8 314,260.4 		"/>
		<polygon class="st20" points="314,261 301.4,267.2 301.4,266.8 314,260.4 		"/>
		<polygon class="st20" points="314,263.6 301.4,266.8 314,260.4 		"/>
		<polygon class="st21" points="316.1,272.8 299.3,281.1 299.3,264.4 316.1,256 		"/>
	</g>
	<g>
		<polygon class="st17" points="299.3,281.1 282.5,272.8 282.5,256 299.3,264.4 		"/>
		<polygon class="st18" points="297.8,270.6 284.1,263.8 284.1,259.7 297.8,266.4 		"/>
		<polygon class="st19" points="297.2,269.8 284.6,263.6 284.6,260.4 297.2,266.8 		"/>
		<polygon class="st20" points="297.2,268.4 284.6,262 284.6,260.4 297.2,266.8 		"/>
		<polyline class="st20" points="297.2,266.8 297.2,267.2 284.6,261 284.6,260.4 		"/>
		<polygon class="st22" points="297.2,269.8 284.6,260.4 284.6,263.6 		"/>
		<polygon class="st18" points="288.4,275.7 284.1,273.6 284.1,266.2 288.4,268.4 		"/>
		<polygon class="st23" points="284.6,267 287.8,268.6 287.8,275.4 284.6,273.8 		"/>
		<polygon class="st24" points="287.8,274.9 284.6,273.3 284.6,272.8 287.8,274.4 		"/>
		<polygon class="st24" points="287.8,273.8 284.6,272.2 284.6,271.7 287.8,273.3 		"/>
		<polygon class="st24" points="287.8,272.8 284.6,271.2 284.6,270.6 287.8,272.2 		"/>
		<polygon class="st24" points="287.8,271.7 284.6,270.2 284.6,269.6 287.8,271.2 		"/>
		<polygon class="st24" points="287.8,270.6 284.6,269.1 284.6,268.6 287.8,270.2 		"/>
		<polygon class="st24" points="287.8,269.6 284.6,268 284.6,267.6 287.8,269.1 		"/>
		<polygon class="st25" points="299.3,281.1 282.5,272.8 282.5,256 299.3,264.4 		"/>
	</g>
	<polygon class="st26" points="299.3,264.4 316.1,256 299.3,247.6 282.5,256 	"/>
</g>
<g>
	<g>
		<g>
			<circle class="st8" cx="288.4" cy="247.2" r="10.3"/>
		</g>
	</g>
	<g>
		<g>
			<g>
				<path class="st18" d="M291.1,247.1h-0.2v-0.5h0.2c0.3,0,0.7-0.2,0.7-0.7l0.2-3.9c0.3-0.1,0.6-0.5,0.5-0.8
					c-0.1-0.2-0.3-0.5-0.6-0.5l-6.8-0.5c-0.3,0-0.7,0.2-0.7,0.7c0,0.3,0.1,0.6,0.5,0.7l-0.2,3.9c0,0.3,0.2,0.7,0.7,0.7h0.2v0.5h-0.2
					c-0.6,0-1.1,0.5-1.3,1c0,0.1,0.1,0.2,0.2,0.2c-0.1,1.5,0.7,3,2.1,3.6l-0.1,2.2c0,0.1,0.1,0.2,0.2,0.2l2.7,0.2
					c0.1,0,0.2-0.1,0.2-0.2l0.1-2.2c1.4-0.6,2.4-1.8,2.5-3.3c0.1,0,0.2-0.1,0.2-0.2C292.2,247.6,291.7,247.2,291.1,247.1z
					 M284.9,241c0-0.1,0.1-0.2,0.2-0.2l6.8,0.5c0.1,0,0.2,0.1,0.2,0.2s-0.1,0.2-0.2,0.2l-6.8-0.5C285,241.3,284.9,241.1,284.9,241z
					 M285.3,245.8c-0.1,0-0.2-0.1-0.2-0.2l0.2-3.9l6.4,0.5l-0.2,3.9c0,0.1-0.1,0.2-0.2,0.2L285.3,245.8z M290.4,246.6v0.5l-4.6-0.3
					v-0.5L290.4,246.6z M286.5,253.6l0.1-1.7l0,0c0,0,0,0,0.1,0s0.1,0,0.2,0.1h0.1c0.1,0,0.1,0,0.2,0h0.1c0.1,0,0.2,0,0.2,0l0,0l0,0
					c0.1,0,0.2,0,0.2,0h0.1c0.1,0,0.1,0,0.2,0h0.1c0.1,0,0.1,0,0.2,0c0,0,0,0,0.1,0l0,0l-0.1,1.7L286.5,253.6z M289,251.5
					c-0.6,0.2-1.3,0.2-1.9,0c-0.2,0-0.5-0.1-0.6-0.2c-1.3-0.6-2.1-1.9-1.9-3.3l6.8,0.5C291.3,249.9,290.4,251.1,289,251.5z
					 M284.5,247.5c0.1-0.2,0.3-0.5,0.7-0.5l5.9,0.5c0.3,0,0.6,0.2,0.6,0.5L284.5,247.5z"/>
				<path class="st18" d="M287.6,242.5h-0.7c-0.1-0.3-0.5-0.6-0.8-0.5s-0.6,0.5-0.5,0.8s0.5,0.6,0.8,0.5c0.2,0,0.3-0.2,0.5-0.3h0.7
					c0.1,0,0.2-0.1,0.2-0.2C287.8,242.6,287.7,242.5,287.6,242.5z M286.2,242.9c-0.1,0-0.2-0.1-0.2-0.2c0-0.1,0.1-0.2,0.2-0.2
					s0.2,0.1,0.2,0.2C286.4,242.9,286.3,242.9,286.2,242.9z"/>
			</g>
		</g>
	</g>
</g>
<g>
	<g>
		<circle class="st8" cx="308.6" cy="248.4" r="10.3"/>
	</g>
	<g id="XMLID_37_">
		<g id="XMLID_38_">
			<path id="XMLID_48_" class="st18" d="M315,249.8c0-0.5-0.3-0.8-0.8-0.8l-9.9-0.5l0.2-5.1c0-0.5,0.3-0.7,0.8-0.7h0.2
				c0.3,0,0.6,0.2,0.7,0.6c-0.5,0.1-0.8,0.5-0.8,0.9v0.3c0,0.1,0.1,0.2,0.2,0.2l1.6,0.1c0.1,0,0.2-0.1,0.2-0.2v-0.3
				c0-0.5-0.3-0.9-0.8-1c-0.1-0.6-0.6-1-1.1-1h-0.2c-0.7,0-1.3,0.5-1.3,1.1l-0.2,5.1h-0.6c-0.5,0-0.8,0.3-0.8,0.8
				c0,0.3,0.2,0.7,0.5,0.8v0.8c0,0.9,0.2,1.7,0.8,2.3c-0.1,0-0.1,0.1-0.2,0.1c-0.2,0-0.3,0.1-0.5,0.3c-0.1,0.2-0.1,0.3-0.1,0.6
				c0.1,0.3,0.3,0.6,0.7,0.6c0.1,0,0.1,0,0.2,0c0.5-0.1,0.9-0.3,1.3-0.8c0.2,0.1,0.6,0.1,0.8,0.1l5.1,0.2c0.3,0,0.6,0,0.8-0.1
				c0.2,0.5,0.7,0.7,1.1,0.9c0.1,0,0.1,0,0.2,0c0.3,0,0.7-0.2,0.8-0.6c0.1-0.2,0-0.5,0-0.6c-0.1-0.2-0.2-0.3-0.5-0.3
				c-0.1,0-0.1-0.1-0.2-0.1c0.6-0.6,1-1.3,1-2.2v-0.8C314.7,250.4,314.9,250.1,315,249.8L315,249.8z M306.9,244.3L306.9,244.3h-1
				l0,0c0-0.3,0.2-0.6,0.6-0.5C306.7,243.8,306.9,244,306.9,244.3z M303.7,254.1c-0.1,0-0.1,0-0.2,0s-0.1-0.1-0.1-0.2s0-0.1,0-0.2
				c0-0.1,0.1-0.1,0.2-0.1c0.2,0,0.3-0.1,0.5-0.2c0.1,0.1,0.3,0.2,0.5,0.3C304.4,253.9,304.1,254.1,303.7,254.1z M313.5,254.1
				c0,0.1,0,0.1,0,0.2s-0.1,0.1-0.1,0.2c-0.1,0-0.1,0-0.2,0c-0.3-0.1-0.6-0.3-0.8-0.6c0.2-0.1,0.3-0.2,0.6-0.2
				c0.1,0.1,0.3,0.2,0.5,0.3V254.1L313.5,254.1z M314.2,250l-4.3-0.2c-0.1,0-0.2,0.1-0.2,0.2s0.1,0.2,0.2,0.2l4.1,0.2v0.8
				c-0.1,1.5-1.3,2.6-2.7,2.5l-5.1-0.2c-1.5-0.1-2.6-1.3-2.5-2.7V250l4.1,0.2c0.1,0,0.2-0.1,0.2-0.2s-0.1-0.2-0.2-0.2l-4.3-0.2
				c-0.1,0-0.3-0.1-0.2-0.3c0-0.1,0.1-0.3,0.3-0.2l10.9,0.5c0.1,0,0.3,0.1,0.2,0.3C314.4,249.9,314.3,250,314.2,250z"/>
			<path id="XMLID_47_" class="st18" d="M308.7,249.8c-0.1,0-0.1,0-0.2,0.1l-0.1,0.1c0,0.1,0,0.1,0.1,0.2l0.1,0.1
				c0.1,0,0.1,0,0.2-0.1l0.1-0.1c0-0.1,0-0.1-0.1-0.2C308.9,249.8,308.7,249.8,308.7,249.8z"/>
			<path id="XMLID_46_" class="st18" d="M312.6,244.7c0.1,0,0.2-0.1,0.2-0.2v-0.3c0-0.1-0.1-0.2-0.2-0.2s-0.2,0.1-0.2,0.2v0.3
				C312.4,244.6,312.5,244.7,312.6,244.7z"/>
			<path id="XMLID_45_" class="st18" d="M312.5,246.4c0.1,0,0.2-0.1,0.2-0.2v-0.3c0-0.1-0.1-0.2-0.2-0.2s-0.2,0.1-0.2,0.2v0.3
				C312.3,246.3,312.4,246.4,312.5,246.4z"/>
			<path id="XMLID_44_" class="st18" d="M313.3,245.4h0.3c0.1,0,0.2-0.1,0.2-0.2s-0.1-0.2-0.2-0.2h-0.3c-0.1,0-0.2,0.1-0.2,0.2
				S313.2,245.4,313.3,245.4z"/>
			<path id="XMLID_43_" class="st18" d="M311.6,245.4h0.3c0.1,0,0.2-0.1,0.2-0.2s-0.1-0.2-0.2-0.2h-0.3c-0.1,0-0.2,0.1-0.2,0.2
				S311.5,245.4,311.6,245.4z"/>
			<path id="XMLID_42_" class="st18" d="M308.9,246c0.1,0,0.2-0.1,0.2-0.2v-0.3c0-0.1-0.1-0.2-0.2-0.2s-0.2,0.1-0.2,0.2v0.3
				C308.6,245.9,308.7,246,308.9,246z"/>
			<path id="XMLID_41_" class="st18" d="M308.7,247.8c0.1,0,0.2-0.1,0.2-0.2v-0.3c0-0.1-0.1-0.2-0.2-0.2s-0.2,0.1-0.2,0.2v0.3
				C308.5,247.6,308.6,247.8,308.7,247.8z"/>
			<path id="XMLID_40_" class="st18" d="M309.5,246.7h0.3c0.1,0,0.2-0.1,0.2-0.2s-0.1-0.2-0.2-0.2h-0.3c-0.1,0-0.2,0.1-0.2,0.2
				S309.4,246.7,309.5,246.7z"/>
			<path id="XMLID_39_" class="st18" d="M307.8,246.6h0.3c0.1,0,0.2-0.1,0.2-0.2s-0.1-0.2-0.2-0.2h-0.3c-0.1,0-0.2,0.1-0.2,0.2
				C307.6,246.5,307.7,246.6,307.8,246.6z"/>
		</g>
	</g>
</g>
<g>
	<g>
		<polygon class="st17" points="281.8,77.6 265,86.1 265,69.2 281.8,60.9 		"/>
		<polygon class="st18" points="280.2,68.8 266.6,75.6 266.6,71.4 280.2,64.5 		"/>
		<polygon class="st19" points="279.7,68.4 267.1,74.8 267.1,71.6 279.7,65.3 		"/>
		<polygon class="st20" points="279.7,66.9 267.1,73.2 267.1,71.6 279.7,65.3 		"/>
		<polygon class="st20" points="279.7,65.8 267.1,72.2 267.1,71.6 279.7,65.3 		"/>
		<polygon class="st20" points="279.7,68.4 267.1,71.6 279.7,65.3 		"/>
		<polygon class="st21" points="281.8,77.6 265,86.1 265,69.2 281.8,60.9 		"/>
	</g>
	<g>
		<polygon class="st17" points="265,86.1 248.2,77.6 248.2,60.9 265,69.2 		"/>
		<polygon class="st18" points="263.4,75.6 249.8,68.8 249.8,64.5 263.4,71.4 		"/>
		<polygon class="st19" points="262.9,74.8 250.3,68.4 250.3,65.3 262.9,71.6 		"/>
		<polygon class="st20" points="262.9,73.2 250.3,66.9 250.3,65.3 262.9,71.6 		"/>
		<polyline class="st20" points="262.9,71.6 262.9,72.2 250.3,65.8 250.3,65.3 		"/>
		<polygon class="st22" points="262.9,74.8 250.3,65.3 250.3,68.4 		"/>
		<polygon class="st18" points="253.9,80.5 249.8,78.4 249.8,71 253.9,73.2 		"/>
		<polygon class="st23" points="250.3,71.8 253.5,73.4 253.5,80.3 250.3,78.7 		"/>
		<polygon class="st24" points="253.5,79.7 250.3,78.2 250.3,77.6 253.5,79.2 		"/>
		<polygon class="st24" points="253.5,78.7 250.3,77.1 250.3,76.6 253.5,78.2 		"/>
		<polygon class="st24" points="253.5,77.6 250.3,76 250.3,75.6 253.5,77.1 		"/>
		<polygon class="st24" points="253.5,76.6 250.3,75 250.3,74.4 253.5,76 		"/>
		<polygon class="st24" points="253.5,75.6 250.3,74 250.3,73.4 253.5,75 		"/>
		<polygon class="st24" points="253.5,74.4 250.3,72.9 250.3,72.4 253.5,74 		"/>
		<polygon class="st25" points="265,86.1 248.2,77.6 248.2,60.9 265,69.2 		"/>
	</g>
	<polygon class="st26" points="265,69.2 281.8,60.9 265,52.5 248.2,60.9 	"/>
</g>
<g>
	<g>
		<circle class="st8" cx="274.5" cy="56.1" r="10.3"/>
	</g>
	<g id="XMLID_13_">
		<g id="XMLID_14_">
			<path id="XMLID_24_" class="st18" d="M280.9,57.2c0-0.5-0.3-0.8-0.8-0.8h-9.9v-5.1c0-0.5,0.3-0.7,0.7-0.7h0.2
				c0.3,0,0.6,0.2,0.7,0.6c-0.5,0.1-0.8,0.6-0.8,1v0.3c0,0.1,0.1,0.2,0.2,0.2h1.6c0.1,0,0.2-0.1,0.2-0.2v-0.3c0-0.5-0.3-0.9-0.8-1
				c-0.1-0.6-0.6-1-1.3-1h-0.2c-0.7,0-1.3,0.6-1.3,1.3v5.1H269c-0.5,0-0.8,0.3-0.8,0.8c0,0.3,0.2,0.7,0.6,0.8V59
				c0,0.9,0.3,1.6,0.9,2.2c-0.1,0-0.1,0.1-0.2,0.1c-0.2,0-0.3,0.2-0.5,0.3c-0.1,0.2-0.1,0.3-0.1,0.6c0.1,0.3,0.5,0.6,0.8,0.6
				c0.1,0,0.1,0,0.2,0c0.5-0.1,0.9-0.5,1.3-0.8c0.2,0.1,0.6,0.1,0.8,0.1h5.1c0.3,0,0.6,0,0.8-0.1c0.3,0.5,0.7,0.7,1.3,0.8
				c0.1,0,0.1,0,0.2,0c0.3,0,0.7-0.2,0.8-0.6c0-0.2,0-0.5-0.1-0.6c-0.1-0.2-0.2-0.3-0.5-0.3c-0.1,0-0.1-0.1-0.2-0.1
				c0.6-0.6,0.9-1.4,0.9-2.2v-0.8C280.7,57.8,280.9,57.6,280.9,57.2L280.9,57.2z M272.6,52.1L272.6,52.1h-1l0,0
				c0-0.3,0.2-0.6,0.6-0.6C272.5,51.6,272.6,51.8,272.6,52.1z M269.9,62.1c-0.1,0-0.1,0-0.2,0s-0.1-0.1-0.1-0.2c0-0.1,0-0.1,0-0.2
				s0.1-0.1,0.2-0.1c0.2,0,0.3-0.1,0.5-0.2c0.1,0.1,0.3,0.2,0.6,0.3C270.6,61.8,270.2,62,269.9,62.1z M279.8,61.7c0,0.1,0,0.1,0,0.2
				s-0.1,0.1-0.1,0.2c0,0.1-0.1,0-0.2,0c-0.3-0.1-0.6-0.2-0.8-0.6c0.2-0.1,0.3-0.2,0.6-0.3c0.1,0.1,0.3,0.2,0.5,0.2
				C279.7,61.6,279.7,61.6,279.8,61.7L279.8,61.7z M280.1,57.5h-4.3c-0.1,0-0.2,0.1-0.2,0.2c0,0.1,0.1,0.2,0.2,0.2h4.1v0.8
				c0,1.5-1.1,2.6-2.6,2.6h-5.1c-1.5,0-2.6-1.1-2.6-2.6v-0.8h4.1c0.1,0,0.2-0.1,0.2-0.2c0-0.1-0.1-0.2-0.2-0.2h-4.3
				c-0.1,0-0.3-0.1-0.3-0.3c0-0.1,0.1-0.3,0.3-0.3h10.9c0.1,0,0.3,0.1,0.3,0.3C280.5,57.4,280.2,57.5,280.1,57.5z"/>
			<path id="XMLID_23_" class="st18" d="M274.7,57.5c-0.1,0-0.1,0-0.2,0.1c0,0-0.1,0.1-0.1,0.2c0,0.1,0,0.1,0.1,0.2
				c0,0,0.1,0.1,0.2,0.1s0.1,0,0.2-0.1c0,0,0.1-0.1,0.1-0.2c0-0.1,0-0.1-0.1-0.2C274.8,57.5,274.8,57.5,274.7,57.5z"/>
			<path id="XMLID_22_" class="st18" d="M278.3,52.2c0.1,0,0.2-0.1,0.2-0.2v-0.3c0-0.1-0.1-0.2-0.2-0.2s-0.2,0.1-0.2,0.2V52
				C278.1,52.1,278.2,52.2,278.3,52.2z"/>
			<path id="XMLID_21_" class="st18" d="M278.3,53.9c0.1,0,0.2-0.1,0.2-0.2v-0.3c0-0.1-0.1-0.2-0.2-0.2s-0.2,0.1-0.2,0.2v0.3
				C278.1,53.8,278.2,53.9,278.3,53.9z"/>
			<path id="XMLID_20_" class="st18" d="M279,52.9h0.3c0.1,0,0.2-0.1,0.2-0.2s-0.1-0.2-0.2-0.2H279c-0.1,0-0.2,0.1-0.2,0.2
				C278.8,52.8,278.9,52.9,279,52.9z"/>
			<path id="XMLID_19_" class="st18" d="M277.4,52.9h0.3c0.1,0,0.2-0.1,0.2-0.2s-0.1-0.2-0.2-0.2h-0.3c-0.1,0-0.2,0.1-0.2,0.2
				C277.1,52.8,277.2,52.9,277.4,52.9z"/>
			<path id="XMLID_18_" class="st18" d="M274.7,53.7c0.1,0,0.2-0.1,0.2-0.2v-0.3c0-0.1-0.1-0.2-0.2-0.2s-0.2,0.1-0.2,0.2v0.3
				C274.4,53.6,274.5,53.7,274.7,53.7z"/>
			<path id="XMLID_17_" class="st18" d="M274.7,55.4c0.1,0,0.2-0.1,0.2-0.2v-0.3c0-0.1-0.1-0.2-0.2-0.2s-0.2,0.1-0.2,0.2v0.3
				C274.4,55.3,274.5,55.4,274.7,55.4z"/>
			<path id="XMLID_16_" class="st18" d="M275.3,54.4h0.3c0.1,0,0.2-0.1,0.2-0.2s-0.1-0.2-0.2-0.2h-0.3c-0.1,0-0.2,0.1-0.2,0.2
				S275.2,54.4,275.3,54.4z"/>
			<path id="XMLID_15_" class="st18" d="M273.6,54.4h0.3c0.1,0,0.2-0.1,0.2-0.2S274,54,273.9,54h-0.3c-0.1,0-0.2,0.1-0.2,0.2
				S273.5,54.4,273.6,54.4z"/>
		</g>
	</g>
</g>
<g>
	<g>
		<g>
			
				<ellipse transform="matrix(0.1735 -0.9848 0.9848 0.1735 154.1921 297.9315)" class="st8" cx="254.6" cy="57.1" rx="10.3" ry="10.3"/>
		</g>
	</g>
	<g>
		<g>
			<g>
				<path class="st18" d="M257.2,56.8H257v-0.5h0.2c0.3,0,0.7-0.3,0.7-0.7v-3.9c0.3-0.1,0.6-0.5,0.5-0.9c-0.1-0.2-0.3-0.5-0.7-0.5
					h-6.8c-0.3,0-0.7,0.3-0.7,0.7c0,0.3,0.2,0.6,0.5,0.7v3.9c0,0.3,0.3,0.7,0.7,0.7h0.2v0.5h-0.2c-0.6,0-1.1,0.5-1.1,1.1
					c0,0.1,0.1,0.2,0.2,0.2c0,1.5,0.9,2.8,2.3,3.5v2.2c0,0.1,0.1,0.2,0.2,0.2h2.7c0.1,0,0.2-0.1,0.2-0.2v-2.2
					c1.4-0.6,2.3-1.9,2.3-3.5c0.1,0,0.2-0.1,0.2-0.2C258.4,57.4,257.9,56.8,257.2,56.8z M250.7,51.2c0-0.1,0.1-0.2,0.2-0.2h6.8
					c0.1,0,0.2,0.1,0.2,0.2s-0.2,0.2-0.3,0.2h-6.8C250.9,51.4,250.7,51.3,250.7,51.2z M251.4,55.9c-0.1,0-0.2-0.1-0.2-0.2v-3.9h6.4
					v3.9c0,0.1-0.1,0.2-0.2,0.2H251.4z M256.6,56.3v0.5H252v-0.5H256.6z M253.3,63.6v-1.7l0,0c0,0,0,0,0.1,0s0.1,0,0.2,0.1h0.1
					c0.1,0,0.1,0,0.2,0h0.1c0.1,0,0.2,0,0.2,0l0,0l0,0c0.1,0,0.2,0,0.2,0h0.1c0.1,0,0.1,0,0.2,0h0.1c0.1,0,0.1,0,0.2-0.1
					c0,0,0,0,0.1,0l0,0v1.7H253.3z M255.6,61.3c-0.6,0.2-1.3,0.3-1.9,0.2c-0.2,0-0.5-0.1-0.6-0.2c-1.3-0.6-2.2-1.7-2.2-3.2h6.8
					C257.7,59.5,256.9,60.8,255.6,61.3z M250.7,57.7c0.1-0.2,0.3-0.5,0.7-0.5h5.9c0.3,0,0.6,0.2,0.7,0.5H250.7z"/>
				<path class="st18" d="M253.4,52.6h-0.7c-0.1-0.3-0.6-0.6-0.9-0.5s-0.6,0.6-0.5,0.9c0.1,0.3,0.6,0.6,0.9,0.5
					c0.2-0.1,0.3-0.2,0.5-0.5h0.7c0.1,0,0.2-0.1,0.2-0.2C253.6,52.6,253.6,52.6,253.4,52.6z M252.1,52.9c-0.1,0-0.2-0.1-0.2-0.2
					s0.1-0.2,0.2-0.2c0.1,0,0.2,0.1,0.2,0.2C252.3,52.9,252.2,52.9,252.1,52.9z"/>
			</g>
		</g>
	</g>
</g>
<g>
	<polygon class="st27" points="97.7,228.7 91.9,230.9 96,231.1 93.4,232.8 99.6,232.8 103.2,231.9 102.6,234.9 106.4,234.2 
		109.1,231.9 114.4,233.6 119.7,232.8 118,231.8 120,231.3 112.1,229.2 	"/>
	<path class="st28" d="M100.3,206.1c4.4-0.6,6.6-9.1,6.6-9.1s0.9,8.4,6.6,10.7c0.1,0.8-1.9,1.5-3.8,0.7c-0.1,1.7,3.6,4.4,5.9,5
		c0.1,0.9-2.1,2.3-4.1,1.6c0.9,2.1,2.5,3.8,5.9,4.7c-1.6,0.9-4.1,0.1-5.7,0c0,1.4,5,2.6,7.5,2.5c-0.5,1.3-2.8,2.6-5,2.5
		c0,1.5,4.9,2.7,6.3,3.2c0.1,1.3-3.4,2.1-5.9,1.3c-0.1,1.5,2.5,2.8,3.8,3.4c0,1.1-8.1,0.8-9.5-1.6c-1.5,0.6-2.5,3.8-5.5,3.5
		c0.3-0.8,1.3-3.5-0.2-4.1c-1.1,1.6-6.2,2.8-8.2,1.9c0.7-0.7,3.6-1.1,2.7-3c-2.6-0.1-6-2.4-5.9-3.4c0.7,0.5,4.9,1.1,5,0
		c-1.9-0.1-3.1-1.6-3.2-2.8c0.7,0.3,4.9,1,5-0.3c-1.5-0.6-3.3-1.6-3.2-2.8c1.3,0.1,3.9,0.1,4.1-1.3c-1.6-0.6-3.1-2.8-3.2-3.8
		c1.1,0.3,5.7,0.1,5.7-0.9c-1.9-0.1-3.6-0.9-3.4-2.2c2.5-0.2,5.4-2.8,5.4-4.1C103,207.9,100.9,207.5,100.3,206.1z"/>
	<path class="st29" d="M117.5,219.5c0,0-3.2,0.1-5.9-2.5c-2.7-2.6-3.4-4.4-3.4-4.4s-0.7,0.9-2.8,2.2c-2.2,1.3-6.9,1.3-6.9,1.3
		s3,2.3,7.2,0.9c2.1-0.7,1.9-1.1,1.9-1.1s3,2.5,4.1,3C115.7,220.4,117.5,219.5,117.5,219.5z"/>
	<path class="st29" d="M99.9,212c3.8-2.1,6.2-3.6,6.9-6.9c-0.2,1.5,3,5.7,5.9,7.9c-2.2-0.2-5-3.9-6.3-3.8
		C106.3,210.3,102.5,211.8,99.9,212z"/>
	<path class="st29" d="M101.6,206.4c3.8-2.1,4.4-4.7,5.1-7.9c-0.2,1.5,1.7,6.3,4.7,8.4c-2.2-0.2-4.1-3.4-5-4.1
		C106.3,204,104.2,206.2,101.6,206.4z"/>
	<path class="st29" d="M96,220.4c0,0,4.7-0.1,8.2-1.8c1.1-0.1,2.6,3.3,3.4,3.4c0.9-0.2,1.4-0.5,2.3-1c0.8,3.2,6.5,6,9.7,6.9
		c-5.9,0-10-3.9-10.7-5c-0.7,0.6-0.9,2.2-2.2,2.2c-1-1.5-2.6-3.8-3.1-4.9C102.5,220,97.9,221.3,96,220.4z"/>
	<path class="st29" d="M93.3,226.7c6.6,0.7,9-2.3,10.1-3.5C102.6,227.7,95.2,229,93.3,226.7z"/>
	<path class="st29" d="M110.7,225.9c1.8,3.1,2.6,4.8,6.8,6.3C110.6,232.5,109.9,227.2,110.7,225.9z"/>
	<path class="st29" d="M104.5,233.4c0.3,0.2,4.4-6.3,1.5-7.4C104.2,226.9,105.7,230.2,104.5,233.4z"/>
	<path class="st27" d="M109.1,206.9c-1.7-1.4-1.7-1.4-1.7-1.4s1.4,1.7,2.3,2.7l0,0c1.8,0.9,3.9,0.1,3.8-0.7
		C113.5,207.7,110.8,208.2,109.1,206.9z"/>
	<path class="st27" d="M111.3,230.4c-2.1-2.2-2.6-5.5-2.6-5.5s-1.3,4.3-2.3,6.4c-0.7,1.3-1.3,2.3-2.8,2.7v0.1c3,0.2,4-3,5.5-3.5
		c1.4,2.4,9.5,2.7,9.5,1.6C118.5,232.3,113.5,232.6,111.3,230.4z"/>
	<path class="st27" d="M114.9,222.9c-2.1-0.1-5-4-5-4s-1.5,0.7-2.3,0.1c-0.9-0.6-1.6-1.3-1.6-1.3s0.8,3.6,1.9,3.5s1.8-0.5,2.3-1
		c0.6,2.8,4.2,4.3,4.2,4.3c2.2,0.1,4.6-1.3,5-2.5C119.4,221.9,117.1,223,114.9,222.9z"/>
	<path class="st27" d="M102.1,213.9C102.2,213.9,102.1,213.9,102.1,213.9c0.6,0,1.3,0,1.8-0.1c1.6-0.2,4.3-1.7,4.3-1.7l-2.1,0.2
		l0.8-1.8c0,0-2.4,1.9-4.6,2.3c-2.2,0.2-3.8-1-3.8-1C98.5,213,100.1,213.7,102.1,213.9z"/>
	<g>
		<path class="st27" d="M98.7,222.6c-0.1,1.4-4.3,0.7-5,0.3c3.1,2.1,8.9-0.3,8.9-0.3h-2.8l3.2-1.6c0,0-7.2,0.5-7.4-1.4
			C95.4,221,97.2,222,98.7,222.6z"/>
		<path class="st27" d="M101.6,224.1c0,0-2.3,0.7-3.8,0.7s-4.1-1.4-4.2-1.8c0.1,1.1,1.3,2.6,3.1,2.7
			C100.4,226,101.6,224.1,101.6,224.1z"/>
	</g>
	<path class="st27" d="M104.5,230.8c0-1.3-0.3-8.7-0.3-8.7s-0.1,4.4-4.1,8.2c-1.4,1.3-4.8,1.7-4.8,1.7c2.1,0.9,6.9-0.2,8.2-1.9
		c1.1,0.5,0.8,2.2,0.5,3.3C104.1,232.7,104.5,231.6,104.5,230.8z"/>
</g>
<g>
	<path class="st30" d="M392.2,171c0,0-0.6-0.2-1.3-0.6c-0.3-0.2-0.6-0.3-1-0.6c-0.6-0.6-1-0.6-1.6-0.8c-0.6-0.7-3.1-1.7-3.8-1.8
		c-0.7-0.2-1.5-0.3-2.3-1.1c-0.8-0.6-1.6-0.9-2.5-1.3c-0.5-0.2-0.3-0.6-0.8-0.8s-0.9-0.5-1.3-0.7c-0.8,0.2-2.1-0.6-2.8-1.1
		c-0.9,0.2-3.4-1.9-4.2-2.1c-0.9,0.7-1.6-1.5-2.5-1.3c-0.8-0.5-1-1-1.8-1.5c-0.9-0.5-4.1-1.6-5-1.9c-0.9-0.7-3.4-2.1-4.1-2.1
		c-0.8-0.2-1.5-0.3-2.2-1s-1.3-1-1.8-0.9c-0.6-0.2-0.6-0.8-0.9-0.9c-0.7-0.5-1.5-0.3-1.5-0.3v-6.9l6.9-3.4c0,0,1.8,1.1,2.5,1.5
		c0.3,0.2,1,0.3,1.5,0.6c0.6-0.6,2.7,2.4,3.4,1.6c0.6,0.3,1.3,0.3,1.9,0.9c0.7,0.1,1.5,0.6,2.3,1.1c0.8,0.2,1.6,1,2.4,1.3
		c0.5,0.2,1.9,1.3,2.4,1.6c0.5,0.2,1.5,0.5,1.9,0.6c0.8,0.2,1.6,0.7,2.5,1.3c0.9,1.3,1.6,0.3,2.5,1.3c0.9,0.2,1.6,1.9,2.5,1.3
		c0.8-0.2,3.4,1.6,4.1,2.1c0.9,0.5,1.7,1,2.6,1.4c0.9,0,1.7-0.1,2.5,1.1c0.8-0.3,1.5,0.6,2.2,1c0.7,1.6,1.3-0.1,1.8,0.9
		c0.6-0.9,0.9,0.6,1.4,0.7c0.6,0.6,1,0.8,1,0.8v6.9c0,0-0.1,0.1-0.2,0.2c-0.2,0.1-0.6,0.6-0.9,0.8c-0.3,0.1-0.6,0.2-0.9,0.2
		c-0.5,0.3-0.9,0.6-1.3,0.6c-0.5,0.2-0.9,0-1.3,0.6c-0.5,0.2-0.8-0.1-1.1,0.1C392.7,170.3,392.2,171,392.2,171z"/>
	<path class="st31" d="M392.2,171c0,0-0.6-0.2-1.3-0.6c-0.3-0.2-0.6-0.3-1-0.6c-0.6-0.6-1-0.6-1.6-0.8c-0.6-0.7-3.1-1.7-3.8-1.8
		c-0.7-0.2-1.5-0.3-2.3-1.1c-0.8-0.6-1.6-0.9-2.5-1.3c-0.5-0.2-0.3-0.6-0.8-0.8s-0.9-0.5-1.3-0.7c-0.8,0.2-2.1-0.6-2.8-1.1
		c-0.9,0.2-3.4-1.9-4.2-2.1c-0.9,0.7-1.6-1.5-2.5-1.3c-0.8-0.5-1-1-1.8-1.5c-0.9-0.5-4.1-1.6-5-1.9c-0.9-0.7-3.4-2.1-4.1-2.1
		c-0.8-0.2-1.5-0.3-2.2-1s-1.3-1-1.8-0.9c-0.6-0.2-0.6-0.8-0.9-0.9c-0.7-0.5-1.5-0.3-1.5-0.3v-6.9c0,0,0.5,0.6,2.2,1.6
		c0.2,0.1,1.3,0.2,1.6,0.3s0.7,0.9,1,0.6c0.3-0.2,0.7-0.2,1.1,0.6c0.5,0.5,0.8,0.7,1.3,0.6c0.5,0.5,2.4,1.5,2.8,1.9
		c0.5,0.3,2.7,0.5,3.2,1c0.5,0.2,0.9,0.5,1.4,0.7c0.6,0.2,1.3,0.2,1.7,0.5c0.5,0.2,0.6,0.7,0.9,0.9c0.5,0.2,0.6,0.7,0.9,1.1
		c0.5,0.3,1.1,0.2,1.6,0.1c0.5,0.6,0.9,0.2,1.3,0.6c0.5,0.1,2.6,1.9,3,1.5c0.5-0.1,0.9,0.6,1.3,0.6c0.5,0.2,1.9,1.8,2.4,2.1
		c1.6,0.8,0.9-0.6,2.4,0.2c0.5,0.2,1.3,1.1,1.6,1.4c0.5,0.1,1.6,0.7,1.9,0.6c0.3,0,2.4,1.1,2.7,1.4c0.3-0.6,0.7,0.8,0.9,0.6
		c0.3,0.5,0.9-0.9,1.3-0.2c0.2,0.3,0.2,0.5,0.6,1.1c0.2-0.2,0.6,0.7,0.9,0.9c1.4,0.6,1.8,0.5,1.8,0.5v6.7h-0.4V171z"/>
	<path class="st32" d="M399.2,160.7v6.9c0,0-0.1,0.1-0.2,0.2c-0.2,0.1-0.6,0.6-0.9,0.8c-0.3,0.1-0.6,0.2-0.9,0.2
		c-0.5,0.3-0.9,0.6-1.3,0.6c-0.5,0.2-0.9,0-1.3,0.6c-0.5,0.2-0.8-0.1-1.1,0.1c-0.6,0.3-1,1-1,1v-6.9c0,0,0.1-0.1,0.2-0.2
		c0.2-0.1,1.1,0.3,1.5,0.2c0.3-0.6,0.1-1.4,0.5-1.1c0.5-0.2,0.9-0.2,1.3-0.6c0.5-0.3,0.9-1.3,1.3-0.6c0.5-0.6,1-0.1,1.3-0.2
		c0.3-0.2,0.3-0.6,0.6-0.7C399,160.7,399.2,160.7,399.2,160.7z"/>
	<path class="st29" d="M364.5,148.1c0,0.3-0.1,0.3-0.2-0.8c-0.2,2.6,1.3-0.9,0.9-0.5c-0.5,0.2-0.6,0.2-0.7-0.1
		c-0.2,0.9,1.3,0.7,0.6,0.9c-0.6-1.6-0.9,0.1-1.4-0.3c-0.5-0.2-2.5-0.9-2.7-1.1c-0.2-0.1-0.5-0.1-0.5-0.1s0.2,0.2,0.5,0.6
		c0.2,0.6,2.4,1.9,2.7,1.7c0.5,0.9,0.9-0.5,1.3,0.5C365.3,149.4,364.1,148.3,364.5,148.1c5.2,3.1-1-1.8-0.5-0.5
		C364.3,147.3,364.5,149.1,364.5,148.1z"/>
	<path class="st29" d="M390.5,157.7c0,0.3-0.1,0.3-0.2-0.8c-0.2,2.6,1.3-0.9,0.9-0.5c-0.5,0.2-0.6,0.2-0.7-0.1
		c-0.2,0.9,1.3,0.7,0.6,0.9c-0.6-1.6-0.9,0.1-1.4-0.3c-0.5-0.2-0.8-0.1-1-0.2c-0.2-0.1-0.5-0.1-0.5-0.1s0.2,0.2,0.5,0.6
		c0.2,0.6,0.7,1,1,0.9c0.5,0.9,0.9-0.5,1.3,0.5c0.3,0.6-0.9-0.6-0.5-0.7c5.2,3.1-1-1.8-0.5-0.5C390.2,156.9,390.5,158.5,390.5,157.7
		z"/>
	<path class="st29" d="M378.3,154.2c0,0.3-0.1,0.3-0.2-0.8c-0.2,2.6-0.6-1.8-0.9-1.3c-0.5,0.2-0.6,0.2-0.7-0.1
		c-0.2,0.9-0.5-0.2-1.3,0.1c-0.6-1.6,0.8,0.9,0.3,0.6c-0.5-0.2-0.8-0.1-1-0.2c-0.2-0.1-0.5-0.1-0.5-0.1s0.2,0.2,0.5,0.6
		c0.2,0.6,0.7,1,1,0.9c0.5,0.9-0.9-1.3-0.6-0.5c0.3,0.6,0.9,0.2,1.3,0.2c0.5,0.2,0.9-0.5,1.3,0.5
		C378.1,153.5,378.3,155.1,378.3,154.2z"/>
	<path class="st29" d="M384,158.3c0,0.3-0.1,0.3-0.2-0.8c-0.2,2.6-0.6-1.8-0.9-1.3c-0.5,0.2-0.6,0.2-0.7-0.1
		c-0.2,0.9-0.6-1.1-1.3-0.9c-0.6-1.6-1,0.9-1.5,0.6c-0.5-0.2-0.8-0.1-1-0.2c-0.2-0.1-0.5-0.1-0.5-0.1s0.2,0.2,0.5,0.6
		c0.2,0.6,0.7,1,1,0.9c0.5,0.9,0.9-1.3,1.3-0.5c0.3,0.6,0.9,1.3,1.4,1.3c0.5,0.2,0.9-0.5,1.3,0.5C383.8,157.6,384,159.3,384,158.3z"
		/>
	<path class="st29" d="M358.2,144c0,0.3-0.1,0.3-0.2-0.8c-0.2,2.6-0.6-1.8-0.9-1.3c-0.6,0.2-2.4,0.2-2.6-0.1c-0.2,1,1.3,0.7,0.6,1
		c-0.6-1.6-1,0.9-1.5,0.5c-0.5-0.2,0.9,0.9,0.7,0.6c-0.2,0-0.5-0.1-0.5-0.1s0.2,0.2,0.5,0.6c0.2,0.6-1,0.2-0.7,0
		c0.5,0.9,0.9-1.3,1.3-0.5c0.3,0.6-0.9-0.6-0.5-0.7c0.5,0.2,2.7-0.5,3.1,0.5C357.8,143.4,358.2,144.8,358.2,144z"/>
	<path class="st29" d="M392.8,163.2c0,0.3-0.1,0.3-0.2-0.8c-0.2,2.6-0.7-1.9-1.1-1.4c-0.5,0.2-0.6,0.2-0.7-0.1
		c-0.2,0.9-0.5-0.2-1.3,0.1c-0.6-1.6-2.1-1-2.4-1.4c-0.5-0.2-2.4-0.7-2.6-0.9c-0.2-0.1-1.3-1-1.3-1s0.2,0.2,0.5,0.6
		c0.2,0.6,2.4,1.9,2.7,1.7c0.5,0.9-2.5-1.3-2.2-0.3c0.3,0.6,2.6,1.1,3.1,1c0.5,0.2,4.6,1.4,4.9,2.3
		C392.5,162.5,392.8,164,392.8,163.2z"/>
	<path class="st29" d="M375.5,151c0,0.3-0.1,0.3-0.2-0.8c-0.2,2.6-5.9-4.4-6.3-4c-0.5,0.2-0.6,0.2-0.7-0.1c-0.2,0.9-0.5-0.2-1.3,0.1
		c-0.6-1.6,1.4,0.7,1,0.3c-0.5-0.2-0.6,0.2-0.9-0.1c-0.2-0.1-1.3-1-1.3-1s0.2,0.2,0.5,0.6c0.2,0.6,0.7,1,1,0.9
		c0.5,0.9-0.8-0.3-0.5,0.6c0.3,0.6,0.9,0.2,1.3,0.2c0.5,0.2,6.3,2.3,6.6,3.1C375.2,150.3,375.5,151.9,375.5,151z"/>
</g>
<g>
	<path class="st30" d="M375.9,175.1c0,0-0.6-0.2-1.3-0.6c-0.3-0.2-0.6-0.3-1-0.6c-0.6-0.6-1-0.6-1.6-0.8c-0.6-0.7-3.1-1.7-3.8-1.8
		c-0.7-0.2-1.5-0.3-2.3-1.1c-0.8-0.6-1.6-0.9-2.5-1.3c-0.5-0.2-0.3-0.6-0.8-0.8s-0.9-0.5-1.3-0.7c-0.8,0.2-2.1-0.6-2.8-1.1
		c-0.9,0.2-3.4-1.9-4.2-2.1c-0.9,0.7-1.6-1.5-2.5-1.3c-0.8-0.5-1-1-1.8-1.5c-0.9-0.5-4.1-1.6-5-1.9c-0.9-0.7-3.4-2.1-4.1-2.1
		c-0.8-0.2-1.5-0.3-2.2-1s-1.3-1-1.8-0.9c-0.6-0.2-0.6-0.8-0.9-0.9c-0.7-0.5-1.5-0.3-1.5-0.3v-6.9l6.9-3.4c0,0,1.8,1.1,2.5,1.5
		c0.3,0.2,1,0.3,1.5,0.6c0.6-0.6,2.7,2.4,3.4,1.6c0.6,0.3,1.3,0.3,1.9,0.9c0.7,0.1,1.5,0.6,2.3,1.1c0.8,0.2,1.6,1,2.4,1.3
		c0.5,0.2,1.9,1.3,2.4,1.6c0.5,0.2,1.5,0.5,1.9,0.6c0.8,0.2,1.6,0.7,2.5,1.3c0.9,1.3,1.6,0.3,2.5,1.3c0.9,0.2,1.6,1.9,2.5,1.3
		c0.8-0.2,3.4,1.6,4.1,2.1c0.9,0.5,1.7,1,2.6,1.4c0.9,0,1.7-0.1,2.5,1.1c0.8-0.3,1.5,0.6,2.2,1c0.7,1.6,1.3-0.1,1.8,0.9
		c0.6-0.9,0.9,0.6,1.4,0.7c0.6,0.6,1,0.8,1,0.8v6.9c0,0-0.1,0.1-0.2,0.2c-0.1,0.1-0.6,0.6-0.9,0.8c-0.3,0.1-0.6,0.2-0.9,0.2
		c-0.5,0.3-0.9,0.6-1.3,0.6c-0.5,0.2-0.9,0-1.3,0.6c-0.5,0.2-0.8-0.1-1.1,0.1C376.4,174.5,375.9,175.1,375.9,175.1z"/>
	<path class="st31" d="M375.9,175.1c0,0-0.6-0.2-1.3-0.6c-0.3-0.2-0.6-0.3-1-0.6c-0.6-0.6-1-0.6-1.6-0.8c-0.6-0.7-3.1-1.7-3.8-1.8
		c-0.7-0.2-1.5-0.3-2.3-1.1c-0.8-0.6-1.6-0.9-2.5-1.3c-0.5-0.2-0.3-0.6-0.8-0.8s-0.9-0.5-1.3-0.7c-0.8,0.2-2.1-0.6-2.8-1.1
		c-0.9,0.2-3.4-1.9-4.2-2.1c-0.9,0.7-1.6-1.5-2.5-1.3c-0.8-0.5-1-1-1.8-1.5c-0.9-0.5-4.1-1.6-5-1.9c-0.9-0.7-3.4-2.1-4.1-2.1
		c-0.8-0.2-1.5-0.3-2.2-1s-1.3-1-1.8-0.9c-0.6-0.2-0.6-0.8-0.9-0.9c-0.7-0.5-1.5-0.3-1.5-0.3v-6.9c0,0,0.5,0.6,2.2,1.6
		c0.2,0.1,1.3,0.2,1.6,0.3s0.7,0.9,1,0.6c0.3-0.2,0.7-0.2,1.1,0.6c0.5,0.5,0.8,0.7,1.3,0.6c0.5,0.5,2.4,1.5,2.8,1.9
		c0.5,0.3,2.7,0.5,3.2,1c0.5,0.2,0.9,0.5,1.4,0.7c0.6,0.2,1.3,0.2,1.7,0.5c0.5,0.2,0.6,0.7,0.9,0.9c0.5,0.2,0.6,0.7,0.9,1.1
		c0.5,0.3,1.1,0.2,1.6,0.1c0.5,0.6,0.9,0.2,1.3,0.6c0.5,0.1,2.6,1.9,3,1.5c0.5-0.1,0.9,0.6,1.3,0.6c0.5,0.2,1.9,1.8,2.4,2.1
		c1.6,0.8,0.9-0.6,2.4,0.2c0.5,0.2,1.3,1.1,1.6,1.4c0.5,0.1,1.6,0.7,1.9,0.6c0.3,0,2.4,1.1,2.7,1.4c0.3-0.6,0.7,0.8,0.9,0.6
		c0.3,0.5,0.9-0.9,1.3-0.2c0.2,0.3,0.2,0.5,0.6,1.1c0.2-0.2,0.6,0.7,0.9,0.9c1.4,0.6,1.8,0.5,1.8,0.5v6.7h-0.4V175.1z"/>
	<path class="st32" d="M382.9,164.8v6.9c0,0-0.1,0.1-0.2,0.2c-0.1,0.1-0.6,0.6-0.9,0.8c-0.3,0.1-0.6,0.2-0.9,0.2
		c-0.5,0.3-0.9,0.6-1.3,0.6c-0.5,0.2-0.9,0-1.3,0.6c-0.5,0.2-0.8-0.1-1.1,0.1c-0.6,0.3-1,1-1,1v-6.9c0,0,0.1-0.1,0.2-0.2
		c0.1-0.1,1.1,0.3,1.5,0.2c0.3-0.6,0.1-1.4,0.5-1.1c0.5-0.2,0.9-0.2,1.3-0.6c0.5-0.3,0.9-1.3,1.3-0.6c0.5-0.6,1-0.1,1.3-0.2
		c0.3-0.2,0.3-0.6,0.6-0.7C382.8,164.9,382.9,164.8,382.9,164.8z"/>
	<path class="st29" d="M348.2,152.4c0,0.3-0.1,0.3-0.2-0.8c-0.2,2.6,1.3-0.9,0.9-0.5c-0.5,0.2-0.6,0.2-0.7-0.1
		c-0.2,0.9,1.3,0.7,0.6,0.9c-0.6-1.6-0.9,0.1-1.4-0.3c-0.5-0.2-2.5-0.9-2.7-1.1c-0.2-0.1-0.5-0.1-0.5-0.1s0.2,0.2,0.5,0.6
		c0.2,0.6,2.4,1.9,2.7,1.7c0.5,0.9,0.9-0.5,1.3,0.5C349,153.6,347.8,152.5,348.2,152.4c5.2,3.1-1-1.8-0.5-0.5
		C348,151.6,348.2,153.2,348.2,152.4z"/>
	<path class="st29" d="M374.2,161.8c0,0.3-0.1,0.3-0.2-0.8c-0.2,2.6,1.3-0.9,0.9-0.5c-0.5,0.2-0.6,0.2-0.7-0.1
		c-0.2,0.9,1.3,0.7,0.6,0.9c-0.6-1.6-0.9,0.1-1.4-0.3c-0.5-0.2-0.8-0.1-1-0.2c-0.2-0.1-0.5-0.1-0.5-0.1s0.2,0.2,0.5,0.6
		c0.2,0.6,0.7,1,1,0.9c0.5,0.9,0.9-0.5,1.3,0.5c0.3,0.6-0.9-0.6-0.5-0.7c5.2,3.1-1-1.8-0.5-0.5C374,161,374.2,162.7,374.2,161.8z"/>
	<path class="st29" d="M362.1,158.4c0,0.3-0.1,0.3-0.2-0.8c-0.2,2.6-0.6-1.8-0.9-1.3c-0.5,0.2-0.6,0.2-0.7-0.1
		c-0.2,0.9-0.5-0.2-1.3,0.1c-0.6-1.6,0.8,0.9,0.3,0.6c-0.5-0.2-0.8-0.1-1-0.2c-0.2-0.1-0.5-0.1-0.5-0.1s0.2,0.2,0.5,0.6
		c0.2,0.6,0.7,1,1,0.9c0.5,0.9-0.9-1.3-0.6-0.5c0.3,0.6,0.9,0.2,1.3,0.2c0.5,0.2,0.9-0.5,1.3,0.5
		C361.8,157.6,362.1,159.3,362.1,158.4z"/>
	<path class="st29" d="M367.8,162.5c0,0.3-0.1,0.3-0.2-0.8c-0.2,2.6-0.6-1.8-0.9-1.3c-0.5,0.2-0.6,0.2-0.7-0.1
		c-0.2,0.9-0.6-1.1-1.3-0.9c-0.6-1.6-1,0.9-1.5,0.6c-0.5-0.2-0.8-0.1-1-0.2c-0.2-0.1-0.5-0.1-0.5-0.1s0.2,0.2,0.5,0.6
		c0.2,0.6,0.7,1,1,0.9c0.5,0.9,0.9-1.3,1.3-0.5c0.3,0.6,0.9,1.3,1.4,1.3c0.5,0.2,0.9-0.5,1.3,0.5
		C367.5,161.8,367.8,163.4,367.8,162.5z"/>
	<path class="st29" d="M341.9,148.1c0,0.3-0.1,0.3-0.2-0.8c-0.2,2.6-0.6-1.8-0.9-1.3c-0.6,0.2-2.4,0.2-2.6-0.1c-0.2,1,1.3,0.7,0.6,1
		c-0.6-1.6-1,0.9-1.5,0.5c-0.5-0.2,0.9,0.9,0.7,0.6c-0.2,0-0.5-0.1-0.5-0.1s0.2,0.2,0.5,0.6c0.2,0.6-1,0.2-0.7,0
		c0.5,0.9,0.9-1.3,1.3-0.5c0.3,0.6-0.9-0.6-0.5-0.7c0.5,0.2,2.7-0.5,3.1,0.5C341.6,147.5,341.9,149.1,341.9,148.1z"/>
	<path class="st29" d="M376.5,167.3c0,0.3-0.1,0.3-0.2-0.8c-0.2,2.6-0.7-1.9-1.1-1.4c-0.5,0.2-0.6,0.2-0.7-0.1
		c-0.2,0.9-0.5-0.2-1.3,0.1c-0.6-1.6-2.1-1-2.4-1.4c-0.5-0.2-2.4-0.7-2.6-0.9c-0.2-0.1-1.3-1-1.3-1s0.2,0.2,0.5,0.6
		c0.2,0.6,2.4,1.9,2.7,1.7c0.5,0.9-2.5-1.3-2.2-0.3c0.3,0.6,2.6,1.1,3.1,1c0.5,0.2,4.6,1.4,4.9,2.3
		C376.3,166.6,376.5,168.2,376.5,167.3z"/>
	<path class="st29" d="M359.3,155.2c0,0.3-0.1,0.3-0.2-0.8c-0.2,2.6-5.9-4.4-6.3-4c-0.5,0.2-0.6,0.2-0.7-0.1
		c-0.2,0.9-0.5-0.2-1.3,0.1c-0.6-1.6,1.4,0.7,1,0.3c-0.5-0.2-0.6,0.2-0.9-0.1c-0.2-0.1-1.3-1-1.3-1s0.2,0.2,0.5,0.6
		c0.2,0.6,0.7,1,1,0.9c0.5,0.9-0.8-0.3-0.5,0.6c0.3,0.6,0.9,0.2,1.3,0.2c0.5,0.2,6.3,2.3,6.6,3.1C358.9,154.5,359.3,156,359.3,155.2
		z"/>
</g>
<g>
	<path class="st30" d="M357.8,178.6c0,0-0.6-0.2-1.3-0.6c-0.3-0.2-0.6-0.3-1-0.6c-0.6-0.6-1-0.6-1.6-0.8c-0.6-0.7-3.1-1.7-3.8-1.8
		c-0.7-0.2-1.5-0.3-2.3-1.1c-0.8-0.6-1.6-0.9-2.5-1.3c-0.5-0.2-0.3-0.6-0.8-0.8s-0.9-0.5-1.3-0.7c-0.8,0.2-2.1-0.6-2.8-1.1
		c-0.9,0.2-3.4-1.9-4.2-2.1c-0.9,0.7-1.6-1.5-2.5-1.3c-0.8-0.5-1-1-1.8-1.5c-0.9-0.5-4.1-1.6-5-1.9c-0.9-0.7-3.4-2.1-4.1-2.1
		c-0.8-0.2-1.5-0.3-2.2-1s-1.3-1-1.8-0.9c-0.6-0.2-0.6-0.8-0.9-0.9c-0.7-0.5-1.5-0.3-1.5-0.3v-6.9l6.9-3.4c0,0,1.8,1.1,2.5,1.5
		c0.3,0.2,1,0.3,1.5,0.6c0.6-0.6,2.7,2.4,3.4,1.6c0.6,0.3,1.3,0.3,1.9,0.9c0.7,0.1,1.5,0.6,2.3,1.1c0.8,0.2,1.6,1,2.4,1.3
		c0.5,0.2,1.9,1.3,2.4,1.6c0.5,0.2,1.5,0.5,1.9,0.6c0.8,0.2,1.6,0.7,2.5,1.3c0.9,1.3,1.6,0.3,2.5,1.3c0.9,0.2,1.6,1.9,2.5,1.3
		c0.8-0.2,3.4,1.6,4.1,2.1c0.9,0.5,1.7,1,2.6,1.4c0.9,0,1.7-0.1,2.5,1.1c0.8-0.3,1.5,0.6,2.2,1c0.7,1.6,1.3-0.1,1.8,0.9
		c0.6-0.9,0.9,0.6,1.4,0.7c0.6,0.6,1,0.8,1,0.8v6.9c0,0-0.1,0.1-0.2,0.2c-0.1,0.1-0.6,0.6-0.9,0.8c-0.3,0.1-0.6,0.2-0.9,0.2
		c-0.5,0.3-0.9,0.6-1.3,0.6c-0.5,0.2-0.9,0-1.3,0.6c-0.5,0.2-0.8-0.1-1.1,0.1C358.3,177.9,357.8,178.6,357.8,178.6z"/>
	<path class="st31" d="M357.8,178.6c0,0-0.6-0.2-1.3-0.6c-0.3-0.2-0.6-0.3-1-0.6c-0.6-0.6-1-0.6-1.6-0.8c-0.6-0.7-3.1-1.7-3.8-1.8
		c-0.7-0.2-1.5-0.3-2.3-1.1c-0.8-0.6-1.6-0.9-2.5-1.3c-0.5-0.2-0.3-0.6-0.8-0.8s-0.9-0.5-1.3-0.7c-0.8,0.2-2.1-0.6-2.8-1.1
		c-0.9,0.2-3.4-1.9-4.2-2.1c-0.9,0.7-1.6-1.5-2.5-1.3c-0.8-0.5-1-1-1.8-1.5c-0.9-0.5-4.1-1.6-5-1.9c-0.9-0.7-3.4-2.1-4.1-2.1
		c-0.8-0.2-1.5-0.3-2.2-1s-1.3-1-1.8-0.9c-0.6-0.2-0.6-0.8-0.9-0.9c-0.7-0.5-1.5-0.3-1.5-0.3v-6.9c0,0,0.5,0.6,2.2,1.6
		c0.2,0.1,1.3,0.2,1.6,0.3s0.7,0.9,1,0.6c0.3-0.2,0.7-0.2,1.1,0.6c0.5,0.5,0.8,0.7,1.3,0.6c0.5,0.5,2.4,1.5,2.8,1.9
		c0.5,0.3,2.7,0.5,3.2,1c0.5,0.2,0.9,0.5,1.4,0.7c0.6,0.2,1.3,0.2,1.7,0.5c0.5,0.2,0.6,0.7,0.9,0.9c0.5,0.2,0.6,0.7,0.9,1.1
		c0.5,0.3,1.1,0.2,1.6,0.1c0.5,0.6,0.9,0.2,1.3,0.6c0.5,0.1,2.6,1.9,3,1.5c0.5-0.1,0.9,0.6,1.3,0.6c0.5,0.2,1.9,1.8,2.4,2.1
		c1.6,0.8,0.9-0.6,2.4,0.2c0.5,0.2,1.3,1.1,1.6,1.4c0.5,0.1,1.6,0.7,1.9,0.6c0.3,0,2.4,1.1,2.7,1.4c0.3-0.6,0.7,0.8,0.9,0.6
		c0.3,0.5,0.9-0.9,1.3-0.2c0.2,0.3,0.2,0.5,0.6,1.1c0.2-0.2,0.6,0.7,0.9,0.9c1.4,0.6,1.8,0.5,1.8,0.5v6.7h-0.4V178.6z"/>
	<path class="st32" d="M364.8,168.2v6.9c0,0-0.1,0.1-0.2,0.2c-0.1,0.1-0.6,0.6-0.9,0.8c-0.3,0.1-0.6,0.2-0.9,0.2
		c-0.5,0.3-0.9,0.6-1.3,0.6c-0.5,0.2-0.9,0-1.3,0.6c-0.5,0.2-0.8-0.1-1.1,0.1c-0.6,0.3-1,1-1,1v-7.1c0,0,0.1-0.1,0.2-0.2
		c0.1-0.1,1.1,0.3,1.5,0.2c0.3-0.6,0.1-1.4,0.5-1.1c0.5-0.2,0.9-0.2,1.3-0.6c0.5-0.3,0.9-1.3,1.3-0.6c0.5-0.6,1-0.1,1.3-0.2
		C364.5,168.8,364.5,168.4,364.8,168.2C364.6,168.3,364.8,168.2,364.8,168.2z"/>
	<path class="st29" d="M330.1,155.8c0,0.3-0.1,0.3-0.2-0.8c-0.2,2.6,1.3-0.9,0.9-0.5c-0.5,0.2-0.6,0.2-0.7-0.1
		c-0.2,0.9,1.3,0.7,0.6,0.9c-0.6-1.6-0.9,0.1-1.4-0.3c-0.5-0.2-2.5-0.9-2.7-1.1c-0.2-0.1-0.5-0.1-0.5-0.1s0.2,0.2,0.5,0.6
		c0.2,0.6,2.4,1.9,2.7,1.7c0.5,0.9,0.9-0.5,1.3,0.5C330.9,157,329.7,155.9,330.1,155.8c5.2,3.1-1-1.8-0.5-0.5
		C329.8,155,330.1,156.6,330.1,155.8z"/>
	<path class="st29" d="M356.1,165.2c0,0.3-0.1,0.3-0.2-0.8c-0.2,2.6,1.3-0.9,0.9-0.5c-0.5,0.2-0.6,0.2-0.7-0.1
		c-0.2,0.9,1.3,0.7,0.6,0.9c-0.6-1.6-0.9,0.1-1.4-0.3c-0.5-0.2-0.8-0.1-1-0.2c-0.2-0.1-0.5-0.1-0.5-0.1s0.2,0.2,0.5,0.6
		c0.2,0.6,0.7,1,1,0.9c0.5,0.9,0.9-0.5,1.3,0.5c0.3,0.6-0.9-0.6-0.5-0.7c5.2,3.1-1-1.8-0.5-0.5C355.8,164.4,356.1,166.1,356.1,165.2
		z"/>
	<path class="st29" d="M343.9,161.8c0,0.3-0.1,0.3-0.2-0.8c-0.2,2.6-0.6-1.8-0.9-1.3c-0.5,0.2-0.6,0.2-0.7-0.1
		c-0.2,0.9-0.5-0.2-1.3,0.1c-0.6-1.6,0.8,0.9,0.3,0.6c-0.5-0.2-0.8-0.1-1-0.2c-0.2-0.1-0.5-0.1-0.5-0.1s0.2,0.2,0.5,0.6
		c0.2,0.6,0.7,1,1,0.9c0.5,0.9-0.9-1.3-0.6-0.5c0.3,0.6,0.9,0.2,1.3,0.2c0.5,0.2,0.9-0.5,1.3,0.5C343.7,161,343.9,162.6,343.9,161.8
		z"/>
	<path class="st29" d="M349.6,165.9c0,0.3-0.1,0.3-0.2-0.8c-0.2,2.6-0.6-1.8-0.9-1.3c-0.5,0.2-0.6,0.2-0.7-0.1
		c-0.2,0.9-0.6-1.1-1.3-0.9c-0.6-1.6-1,0.9-1.5,0.6c-0.5-0.2-0.8-0.1-1-0.2c-0.2-0.1-0.5-0.1-0.5-0.1s0.2,0.2,0.5,0.6
		c0.2,0.6,0.7,1,1,0.9c0.5,0.9,0.9-1.3,1.3-0.5c0.3,0.6,0.9,1.3,1.4,1.3c0.5,0.2,0.9-0.5,1.3,0.5
		C349.4,165.1,349.6,166.8,349.6,165.9z"/>
	<path class="st29" d="M323.6,151.6c0,0.3-0.1,0.3-0.2-0.8c-0.2,2.6-0.6-1.8-0.9-1.3c-0.6,0.2-2.4,0.2-2.6-0.1c-0.2,1,1.3,0.7,0.6,1
		c-0.6-1.6-1,0.9-1.5,0.5c-0.5-0.2,0.9,0.9,0.7,0.6c-0.2,0-0.5-0.1-0.5-0.1s0.2,0.2,0.5,0.6c0.2,0.6-1,0.2-0.7,0
		c0.5,0.9,0.9-1.3,1.3-0.5c0.3,0.6-0.9-0.6-0.5-0.7c0.5,0.2,2.7-0.5,3.1,0.5C323.4,150.9,323.6,152.5,323.6,151.6z"/>
	<path class="st29" d="M358.4,170.7c0,0.3-0.1,0.3-0.2-0.8c-0.2,2.6-0.7-1.9-1.1-1.4c-0.5,0.2-0.6,0.2-0.7-0.1
		c-0.2,0.9-0.5-0.2-1.3,0.1c-0.6-1.6-2.1-1-2.4-1.4c-0.5-0.2-2.4-0.7-2.6-0.9c-0.2-0.1-1.3-1-1.3-1s0.2,0.2,0.5,0.6
		c0.2,0.6,2.4,1.9,2.7,1.7c0.5,0.9-2.5-1.3-2.2-0.3c0.3,0.6,2.6,1.1,3.1,1c0.5,0.2,4.6,1.4,4.9,2.3
		C358.2,170,358.4,171.6,358.4,170.7z"/>
	<path class="st29" d="M341.1,158.6c0,0.3-0.1,0.3-0.2-0.8c-0.2,2.6-5.9-4.4-6.3-4c-0.5,0.2-0.6,0.2-0.7-0.1
		c-0.2,0.9-0.5-0.2-1.3,0.1c-0.6-1.6,1.4,0.7,1,0.3c-0.5-0.2-0.6,0.2-0.9-0.1c-0.2-0.1-1.3-1-1.3-1s0.2,0.2,0.5,0.6
		c0.2,0.6,0.7,1,1,0.9c0.5,0.9-0.8-0.3-0.5,0.6c0.3,0.6,0.9,0.2,1.3,0.2c0.5,0.2,6.3,2.3,6.6,3.1
		C340.8,157.9,341.1,159.4,341.1,158.6z"/>
</g>
<g>
	<path class="st30" d="M337.3,182c0,0-0.6-0.2-1.3-0.6c-0.3-0.2-0.6-0.3-1-0.6c-0.6-0.6-1-0.6-1.6-0.8c-0.6-0.7-3.1-1.7-3.8-1.8
		c-0.7-0.2-1.5-0.3-2.3-1.1c-0.8-0.6-1.6-0.9-2.5-1.3c-0.5-0.2-0.3-0.6-0.8-0.8s-0.9-0.5-1.3-0.7c-0.8,0.2-2.1-0.6-2.8-1.1
		c-0.9,0.2-3.4-1.9-4.2-2.1c-0.9,0.7-1.6-1.5-2.5-1.3c-0.8-0.5-1-1-1.8-1.5c-0.9-0.5-4.1-1.6-5-1.9c-0.9-0.7-3.4-2.1-4.1-2.1
		c-0.8-0.2-1.5-0.3-2.2-1s-1.3-1-1.8-0.9c-0.6-0.2-0.6-0.8-0.9-0.9c-0.7-0.5-1.5-0.3-1.5-0.3v-6.9l6.9-3.4c0,0,1.8,1.1,2.5,1.5
		c0.3,0.2,1,0.3,1.5,0.6c0.6-0.6,2.7,2.4,3.4,1.6c0.6,0.3,1.3,0.3,1.9,0.9c0.7,0.1,1.5,0.6,2.3,1.1c0.8,0.2,1.6,1,2.4,1.3
		c0.5,0.2,1.9,1.3,2.4,1.6c0.5,0.2,1.5,0.5,1.9,0.6c0.8,0.2,1.6,0.7,2.5,1.3c0.9,1.3,1.6,0.3,2.5,1.3c0.9,0.2,1.6,1.9,2.5,1.3
		c0.8-0.2,3.4,1.6,4.1,2.1c0.9,0.5,1.7,1,2.6,1.4c0.9,0,1.7-0.1,2.5,1.1c0.8-0.3,1.5,0.6,2.2,1c0.7,1.6,1.3-0.1,1.8,0.9
		c0.6-0.9,0.9,0.6,1.4,0.7c0.6,0.6,1,0.8,1,0.8v6.9c0,0-0.1,0.1-0.2,0.2c-0.1,0.1-0.6,0.6-0.9,0.8c-0.3,0.1-0.6,0.2-0.9,0.2
		c-0.5,0.3-0.9,0.6-1.3,0.6c-0.5,0.2-0.9,0-1.3,0.6c-0.5,0.2-0.8-0.1-1.1,0.1C337.8,181.3,337.3,182,337.3,182z"/>
	<path class="st31" d="M337.3,182c0,0-0.6-0.2-1.3-0.6c-0.3-0.2-0.6-0.3-1-0.6c-0.6-0.6-1-0.6-1.6-0.8c-0.6-0.7-3.1-1.7-3.8-1.8
		c-0.7-0.2-1.5-0.3-2.3-1.1c-0.8-0.6-1.6-0.9-2.5-1.3c-0.5-0.2-0.3-0.6-0.8-0.8s-0.9-0.5-1.3-0.7c-0.8,0.2-2.1-0.6-2.8-1.1
		c-0.9,0.2-3.4-1.9-4.2-2.1c-0.9,0.7-1.6-1.5-2.5-1.3c-0.8-0.5-1-1-1.8-1.5c-0.9-0.5-4.1-1.6-5-1.9c-0.9-0.7-3.4-2.1-4.1-2.1
		c-0.8-0.2-1.5-0.3-2.2-1s-1.3-1-1.8-0.9c-0.6-0.2-0.6-0.8-0.9-0.9c-0.7-0.5-1.5-0.3-1.5-0.3v-6.9c0,0,0.5,0.6,2.2,1.6
		c0.2,0.1,1.3,0.2,1.6,0.3s0.7,0.9,1,0.6c0.3-0.2,0.7-0.2,1.1,0.6c0.5,0.5,0.8,0.7,1.3,0.6c0.5,0.5,2.4,1.5,2.8,1.9
		c0.5,0.3,2.7,0.5,3.2,1c0.5,0.2,0.9,0.5,1.4,0.7c0.6,0.2,1.3,0.2,1.7,0.5c0.5,0.2,0.6,0.7,0.9,0.9s0.6,0.7,0.9,1.1
		c0.5,0.3,1.1,0.2,1.6,0.1c0.5,0.6,0.9,0.2,1.3,0.6c0.5,0.1,2.6,1.9,3,1.5c0.5-0.1,0.9,0.6,1.3,0.6c0.5,0.2,1.9,1.8,2.4,2.1
		c1.6,0.8,0.9-0.6,2.4,0.2c0.5,0.2,1.3,1.1,1.6,1.4c0.5,0.1,1.6,0.7,1.9,0.6c0.3,0,2.4,1.1,2.7,1.4c0.3-0.6,0.7,0.8,0.9,0.6
		c0.3,0.5,0.9-0.9,1.3-0.2c0.2,0.3,0.2,0.5,0.6,1.1c0.2-0.2,0.6,0.7,0.9,0.9c1.4,0.6,1.8,0.5,1.8,0.5v6.7h-0.4V182z"/>
	<path class="st32" d="M344.3,171.6v6.9c0,0-0.1,0.1-0.2,0.2c-0.1,0.1-0.6,0.6-0.9,0.8c-0.3,0.1-0.6,0.2-0.9,0.2
		c-0.5,0.3-0.9,0.6-1.3,0.6c-0.5,0.2-0.9,0-1.3,0.6c-0.5,0.2-0.8-0.1-1.1,0.1c-0.6,0.3-1,1-1,1v-7c0,0,0.1-0.1,0.2-0.2
		c0.1-0.1,1.1,0.3,1.5,0.2c0.3-0.6,0.1-1.4,0.5-1.1c0.5-0.2,0.9-0.2,1.3-0.6c0.5-0.3,0.9-1.3,1.3-0.6c0.5-0.6,1-0.1,1.3-0.2
		c0.3-0.2,0.3-0.6,0.6-0.7C344.1,171.7,344.3,171.6,344.3,171.6z"/>
	<path class="st29" d="M309.6,159.2c0,0.3-0.1,0.3-0.2-0.8c-0.2,2.6,1.3-0.9,0.9-0.5c-0.5,0.2-0.6,0.2-0.7-0.1
		c-0.2,0.9,1.3,0.7,0.6,0.9c-0.6-1.6-0.9,0.1-1.4-0.3c-0.5-0.2-2.5-0.9-2.7-1.1c-0.2-0.1-0.5-0.1-0.5-0.1s0.2,0.2,0.5,0.6
		c0.2,0.6,2.4,1.9,2.7,1.7c0.5,0.9,0.9-0.5,1.3,0.5C310.4,160.4,309.2,159.3,309.6,159.2c5.2,3.1-1-1.8-0.5-0.5
		C309.4,158.4,309.6,160,309.6,159.2z"/>
	<path class="st29" d="M335.6,168.6c0,0.3-0.1,0.3-0.2-0.8c-0.2,2.6,1.3-0.9,0.9-0.5c-0.5,0.2-0.6,0.2-0.7-0.1
		c-0.2,0.9,1.3,0.7,0.6,0.9c-0.6-1.6-0.9,0.1-1.4-0.3c-0.5-0.2-0.8-0.1-1-0.2c-0.2-0.1-0.5-0.1-0.5-0.1s0.2,0.2,0.5,0.6
		c0.2,0.6,0.7,1,1,0.9c0.5,0.9,0.9-0.5,1.3,0.5c0.3,0.6-0.9-0.6-0.5-0.7c5.2,3.1-1-1.8-0.5-0.5C335.4,167.8,335.6,169.6,335.6,168.6
		z"/>
	<path class="st29" d="M323.5,165.2c0,0.3-0.1,0.3-0.2-0.8c-0.2,2.6-0.6-1.8-0.9-1.3c-0.5,0.2-0.6,0.2-0.7-0.1
		c-0.2,0.9-0.5-0.2-1.3,0.1c-0.6-1.6,0.8,0.9,0.3,0.6c-0.5-0.2-0.8-0.1-1-0.2c-0.2-0.1-0.5-0.1-0.5-0.1s0.2,0.2,0.5,0.6
		c0.2,0.6,0.7,1,1,0.9c0.5,0.9-0.9-1.3-0.6-0.5c0.3,0.6,0.9,0.2,1.3,0.2c0.5,0.2,0.9-0.5,1.3,0.5C323.3,164.4,323.5,166,323.5,165.2
		z"/>
	<path class="st29" d="M329.2,169.2c0,0.3-0.1,0.3-0.2-0.8c-0.2,2.6-0.6-1.8-0.9-1.3c-0.5,0.2-0.6,0.2-0.7-0.1
		c-0.2,0.9-0.6-1.1-1.3-0.9c-0.6-1.6-1,0.9-1.5,0.6c-0.5-0.2-0.8-0.1-1-0.2c-0.2-0.1-0.5-0.1-0.5-0.1s0.2,0.2,0.5,0.6
		c0.2,0.6,0.7,1,1,0.9c0.5,0.9,0.9-1.3,1.3-0.5c0.3,0.6,0.9,1.3,1.4,1.3c0.5,0.2,0.9-0.5,1.3,0.5C329,168.5,329.2,170.2,329.2,169.2
		z"/>
	<path class="st29" d="M303.3,155c0,0.3-0.1,0.3-0.2-0.8c-0.2,2.6-0.6-1.8-0.9-1.3c-0.6,0.2-2.4,0.2-2.6-0.1c-0.2,1,1.3,0.7,0.6,1
		c-0.6-1.6-1,0.9-1.5,0.5c-0.5-0.2,0.9,0.9,0.7,0.6c-0.2,0-0.5-0.1-0.5-0.1s0.2,0.2,0.5,0.6c0.2,0.6-1,0.2-0.7,0
		c0.5,0.9,0.9-1.3,1.3-0.5c0.3,0.6-0.9-0.6-0.5-0.7c0.5,0.2,2.7-0.5,3.1,0.5C303,154.3,303.3,155.9,303.3,155z"/>
	<path class="st29" d="M338,174.1c0,0.3-0.1,0.3-0.2-0.8c-0.2,2.6-0.7-1.9-1.1-1.4c-0.5,0.2-0.6,0.2-0.7-0.1
		c-0.2,0.9-0.5-0.2-1.3,0.1c-0.6-1.6-2.1-1-2.4-1.4c-0.5-0.2-2.4-0.7-2.6-0.9c-0.2-0.1-1.3-1-1.3-1s0.2,0.2,0.5,0.6
		c0.2,0.6,2.4,1.9,2.7,1.7c0.5,0.9-2.5-1.3-2.2-0.3c0.3,0.6,2.6,1.1,3.1,1c0.5,0.2,4.6,1.4,4.9,2.3C337.6,173.4,338,175,338,174.1z"
		/>
	<path class="st29" d="M320.7,162c0,0.3-0.1,0.3-0.2-0.8c-0.2,2.6-5.9-4.4-6.3-4c-0.5,0.2-0.6,0.2-0.7-0.1c-0.2,0.9-0.5-0.2-1.3,0.1
		c-0.6-1.6,1.4,0.7,1,0.3c-0.5-0.2-0.6,0.2-0.9-0.1c-0.2-0.1-1.3-1-1.3-1s0.2,0.2,0.5,0.6c0.2,0.6,0.7,1,1,0.9
		c0.5,0.9-0.8-0.3-0.5,0.6c0.3,0.6,0.9,0.2,1.3,0.2c0.5,0.2,6.3,2.3,6.6,3.1C320.5,161.4,320.7,162.8,320.7,162z"/>
</g>
<g>
	<path class="st33" d="M361.8,172.1h-20.5c-5,0-9.2-4.1-9.2-9.2v-6c0-5,4.1-9.2,9.2-9.2h20.5c5,0,9.2,4.1,9.2,9.2v6
		C371,167.8,366.9,172.1,361.8,172.1z"/>
	<text transform="matrix(1 0 0 1 335.3156 165.3781)" class="st4 st5 st34">果園</text>
</g>
<g>
	<polygon class="st35" points="412.3,96.1 422.7,80.4 433.2,85.6 433.2,98.6 412.3,109.1 	"/>
	<polygon class="st18" points="412.3,109.1 413.6,108.4 413.6,94 412.3,96.1 	"/>
	<polygon class="st18" points="433.2,98.6 431.8,99.3 431.8,84.9 433.2,85.6 	"/>
	<g>
		<polygon class="st18" points="426.6,94.7 418.9,98.6 418.9,94 426.6,90.2 		"/>
		<polygon class="st36" points="426,94.4 419.4,97.7 419.4,94.4 426,91.2 		"/>
		<polygon class="st19" points="420.1,96.7 425.4,94 425.4,92.1 420.1,94.7 		"/>
		<polygon class="st20" points="425.4,92.8 420.1,95.4 420.1,94.7 425.4,92.1 		"/>
		<polygon class="st27" points="425.4,94 425.4,91.4 426,91.2 426,94.4 419.4,97.7 419.4,97 		"/>
	</g>
	<g>
		<polygon class="st35" points="391.4,85.6 412.3,96.1 412.3,109.1 391.4,98.6 		"/>
		<polygon class="st18" points="391.4,98.6 392.7,99.3 392.7,86.3 391.4,85.6 		"/>
		<polygon class="st18" points="411,108.4 412.3,109.1 412.3,96.1 411,95.4 		"/>
		<polygon class="st27" points="411,108.4 392.7,99.3 392.7,98.6 411,107.8 		"/>
		<polygon class="st18" points="409.1,95.7 394.7,88.6 394.7,100.3 409.1,107.5 		"/>
		<polygon class="st36" points="408.4,107.1 395.3,100.6 395.3,89.5 408.4,96.1 		"/>
		<polygon class="st27" points="408.4,106.5 395.3,100 395.3,99.3 408.4,105.8 		"/>
		<polygon class="st27" points="408.4,105.2 395.3,98.6 395.3,98 408.4,104.5 		"/>
		<polygon class="st27" points="408.4,103.8 395.3,97.3 395.3,96.7 408.4,103.3 		"/>
		<polygon class="st27" points="408.4,102.6 395.3,96.1 395.3,95.4 408.4,101.9 		"/>
		<polygon class="st27" points="408.4,101.2 395.3,94.7 395.3,94 408.4,100.6 		"/>
		<polygon class="st27" points="408.4,100 395.3,93.5 395.3,92.8 408.4,99.3 		"/>
		<polygon class="st27" points="408.4,98.6 395.3,92.1 395.3,91.4 408.4,98 		"/>
		<polygon class="st27" points="408.4,97.3 395.3,90.8 395.3,90.2 408.4,96.7 		"/>
		<polygon class="st25" points="391.4,85.6 412.3,96.1 412.3,109.1 391.4,98.6 		"/>
	</g>
	<polygon class="st37" points="412.3,96.1 391.4,85.6 401.9,69.9 422.7,80.4 	"/>
	<polygon class="st25" points="412.3,96.1 391.4,85.6 401.9,69.9 422.7,80.4 	"/>
	<polygon class="st29" points="401.1,71 422,81.4 422.7,80.4 401.9,69.9 	"/>
	<polygon class="st27" points="431.8,99.3 413.6,108.4 413.6,107.8 431.8,98.6 	"/>
	<polygon class="st37" points="412.3,96.1 422.7,80.4 433.2,85.6 432.5,85.6 422.7,81.1 412.9,96.1 	"/>
	<polygon class="st21" points="412.3,96.1 422.7,80.4 433.2,85.6 433.2,98.6 412.3,109.1 	"/>
</g>
<g>
	<path class="st33" d="M428.3,76.2l-32.9-0.3c-9.1-0.1-16.6-4.3-16.4-9.3l0.2-4.6c0.2-5,7.9-9.1,17-9l32.9,0.5
		c9.1,0.1,16.6,4.3,16.4,9.3l-0.2,4.6C445.1,72.4,437.4,76.3,428.3,76.2z"/>
	<text transform="matrix(0.9997 2.237887e-02 -2.237887e-02 0.9997 381.9415 69.4483)" class="st4 st5 st38">露友客廳</text>
</g>
<g>
	<path class="st33" d="M190.4,114.5h-35.1c-5,0-9.2-4.1-9.2-9.2v-6c0-5,4.1-9.2,9.2-9.2h35.1c5,0,9.2,4.1,9.2,9.2v6
		C199.6,110.4,195.4,114.5,190.4,114.5z"/>
	<text transform="matrix(1 0 0 1 149.3007 107.8428)" class="st4 st5 st34">戲水池</text>
</g>
<g class="st39">
	<polygon class="st8" points="859.7,59.7 847.5,80.8 859.7,77.6 871.8,80.8 	"/>
	<text transform="matrix(1 0 0 1 850.3936 55.6973)" class="st8 st10 st40">N</text>
</g>
<g>
	<g>
		<g>
			<g>
				<circle class="st8" cx="815.6" cy="310.3" r="6.8"/>
			</g>
			<g id="XMLID_25_">
				<g id="XMLID_26_">
					<path id="XMLID_36_" class="st18" d="M819.8,310.9c0-0.3-0.2-0.6-0.6-0.6h-6.5V307c0-0.2,0.2-0.5,0.5-0.5h0.1
						c0.2,0,0.5,0.1,0.5,0.3c-0.3,0.1-0.5,0.3-0.5,0.7v0.2c0,0.1,0.1,0.1,0.1,0.1h1c0.1,0,0.1-0.1,0.1-0.1v-0.2
						c0-0.3-0.2-0.6-0.6-0.7c-0.1-0.3-0.5-0.7-0.8-0.7H813c-0.5,0-0.8,0.3-0.8,0.8v3.4h-0.3c-0.3,0-0.6,0.2-0.6,0.6
						c0,0.2,0.1,0.5,0.3,0.5v0.6c0,0.6,0.2,1.1,0.6,1.5l-0.1,0.1c-0.1,0-0.2,0.1-0.3,0.2s-0.1,0.2,0,0.3c0.1,0.2,0.2,0.3,0.5,0.3
						h0.1c0.3-0.1,0.6-0.2,0.8-0.6c0.2,0,0.3,0.1,0.6,0.1h3.4c0.2,0,0.3,0,0.6-0.1c0.2,0.2,0.5,0.5,0.8,0.6h0.1
						c0.2,0,0.5-0.1,0.5-0.3c0-0.1,0-0.2,0-0.3c-0.1-0.1-0.2-0.2-0.3-0.2c0,0-0.1,0-0.1-0.1c0.3-0.3,0.6-0.9,0.6-1.5v-0.6
						C819.7,311.4,819.8,311.2,819.8,310.9L819.8,310.9z M814.4,307.7L814.4,307.7h-0.7l0,0c0-0.2,0.1-0.3,0.3-0.3
						C814.3,307.3,814.4,307.4,814.4,307.7z M812.6,314.2L812.6,314.2l-0.2-0.1V314l0.1-0.1c0.1,0,0.2-0.1,0.3-0.2
						c0.1,0.1,0.2,0.1,0.3,0.2C813.1,314.1,812.8,314.2,812.6,314.2z M819,314v0.1c0,0,0,0.1-0.1,0.1h-0.1c-0.2-0.1-0.5-0.2-0.6-0.3
						c0.1,0,0.2-0.1,0.3-0.2c0.1,0.1,0.2,0.1,0.3,0.2C819,313.9,819,313.9,819,314L819,314z M819.3,311.2h-2.8
						c-0.1,0-0.1,0.1-0.1,0.1c0,0.1,0.1,0.1,0.1,0.1h2.7v0.6c0,0.9-0.8,1.7-1.7,1.7h-3.4c-0.9,0-1.7-0.8-1.7-1.7v-0.6h2.7
						c0.1,0,0.1-0.1,0.1-0.1c0-0.1-0.1-0.1-0.1-0.1h-2.8c-0.1,0-0.2-0.1-0.2-0.2s0.1-0.2,0.2-0.2h7.2c0.1,0,0.2,0.1,0.2,0.2
						S819.4,311.2,819.3,311.2z"/>
					<path id="XMLID_35_" class="st18" d="M815.8,311.2L815.8,311.2l-0.1,0.1v0.1h0.1h0.1v-0.1L815.8,311.2
						C815.8,311.2,815.8,311.2,815.8,311.2z"/>
					<path id="XMLID_34_" class="st18" d="M818.1,307.8c0.1,0,0.1-0.1,0.1-0.1v-0.2c0-0.1-0.1-0.1-0.1-0.1c-0.1,0-0.1,0.1-0.1,0.1
						v0.2C818,307.7,818,307.8,818.1,307.8z"/>
					<path id="XMLID_33_" class="st18" d="M818.1,308.8c0.1,0,0.1-0.1,0.1-0.1v-0.2c0-0.1-0.1-0.1-0.1-0.1c-0.1,0-0.1,0.1-0.1,0.1
						v0.2C818,308.8,818,308.8,818.1,308.8z"/>
					<path id="XMLID_32_" class="st18" d="M818.6,308.2h0.2c0.1,0,0.1-0.1,0.1-0.1c0-0.1-0.1-0.1-0.1-0.1h-0.2
						c-0.1,0-0.1,0.1-0.1,0.1S818.5,308.2,818.6,308.2z"/>
					<path id="XMLID_31_" class="st18" d="M817.5,308.2h0.2c0.1,0,0.1-0.1,0.1-0.1c0-0.1-0.1-0.1-0.1-0.1h-0.2
						c-0.1,0-0.1,0.1-0.1,0.1S817.3,308.2,817.5,308.2z"/>
					<path id="XMLID_30_" class="st18" d="M815.8,308.7c0.1,0,0.1-0.1,0.1-0.1v-0.2c0-0.1-0.1-0.1-0.1-0.1l-0.1,0.1v0.2
						C815.5,308.7,815.6,308.7,815.8,308.7z"/>
					<path id="XMLID_29_" class="st18" d="M815.8,309.8c0.1,0,0.1-0.1,0.1-0.1v-0.2c0-0.1-0.1-0.1-0.1-0.1l-0.1,0.1v0.2
						C815.5,309.8,815.6,309.8,815.8,309.8z"/>
					<path id="XMLID_28_" class="st18" d="M816.2,309.1h0.2c0.1,0,0.1-0.1,0.1-0.1c0-0.1-0.1-0.1-0.1-0.1h-0.2
						c-0.1,0-0.1,0.1-0.1,0.1C816,309.1,816.1,309.1,816.2,309.1z"/>
					<path id="XMLID_27_" class="st18" d="M815.1,309.1h0.2c0.1,0,0.1-0.1,0.1-0.1c0-0.1-0.1-0.1-0.1-0.1h-0.2
						c-0.1,0-0.1,0.1-0.1,0.1C814.9,309.1,815,309.1,815.1,309.1z"/>
				</g>
			</g>
		</g>
		<g>
			<g>
				<g>
					<circle class="st8" cx="815.6" cy="293.8" r="6.5"/>
				</g>
			</g>
			<g>
				<g>
					<g>
						<path class="st18" d="M817.5,293.7L817.5,293.7l-0.1-0.3h0.1c0.2,0,0.5-0.2,0.5-0.5v-2.5c0.2-0.1,0.3-0.3,0.2-0.6
							c-0.1-0.2-0.2-0.3-0.5-0.3h-4.4c-0.2,0-0.5,0.2-0.5,0.5c0,0.2,0.1,0.3,0.3,0.5v2.5c0,0.2,0.2,0.5,0.5,0.5h0.1v0.3h-0.1
							c-0.5,0-0.7,0.3-0.7,0.7c0,0.1,0.1,0.1,0.1,0.1c0,1,0.6,1.8,1.5,2.3v1.4c0,0.1,0.1,0.1,0.1,0.1h1.7c0.1,0,0.1-0.1,0.1-0.1
							v-1.4c0.9-0.5,1.5-1.2,1.5-2.3c0.1,0,0.1-0.1,0.1-0.1C818.1,294,817.8,293.7,817.5,293.7z M813.2,289.9c0-0.1,0.1-0.1,0.1-0.1
							h4.4c0.1,0,0.1,0.1,0.1,0.1l-0.1,0.1h-4.4C813.3,290.2,813.2,290.1,813.2,289.9z M813.6,293.1c-0.1,0-0.1-0.1-0.1-0.1v-2.5
							h4.1v2.5c0,0.1-0.1,0.1-0.1,0.1H813.6z M817,293.3v0.3h-2.9v-0.3H817z M814.7,298v-1.1l0,0l0,0h0.1c0,0,0,0,0.1,0h0.1
							c0,0,0,0,0.1,0s0.1,0,0.2,0l0,0l0,0c0.1,0,0.1,0,0.2,0c0,0,0,0,0.1,0h0.1c0,0,0,0,0.1,0h0.1l0,0l0,0v1.1H814.7z M816.3,296.5
							c-0.3,0.1-0.8,0.2-1.2,0.1c-0.1,0-0.2-0.1-0.5-0.1c-0.8-0.3-1.4-1.1-1.4-2h4.4C817.7,295.4,817.1,296.3,816.3,296.5z
							 M813.2,294.2c0.1-0.2,0.2-0.3,0.5-0.3h3.8c0.2,0,0.3,0.1,0.5,0.3H813.2z"/>
						<path class="st18" d="M815,290.8h-0.5c-0.1-0.2-0.3-0.3-0.6-0.2c-0.2,0.1-0.3,0.3-0.2,0.6c0.1,0.2,0.3,0.3,0.6,0.2
							c0.1,0,0.2-0.1,0.2-0.2h0.5c0.1,0,0.1-0.1,0.1-0.1L815,290.8z M814.1,291.2c-0.1,0-0.1-0.1-0.1-0.1l0.1-0.1l0.1,0.1
							C814.2,291.1,814.2,291.2,814.1,291.2z"/>
					</g>
				</g>
			</g>
		</g>
		<g>
			<circle class="st8" cx="815.6" cy="328" r="6.8"/>
			<text transform="matrix(1 0 0 1 812.943 332.0731)" class="st9 st10 st41">P</text>
		</g>
		<path class="st42" d="M868.3,341.3h-57.4c-5.1,0-9.3-4.2-9.3-9.3v-43.6c0-5.1,4.2-9.3,9.3-9.3h57.4c5.1,0,9.3,4.2,9.3,9.3V332
			C877.4,337.1,873.3,341.3,868.3,341.3z"/>
		<text transform="matrix(1 0 0 1 829.2897 297.7068)" class="st5 st43">公共廁所</text>
		<text transform="matrix(1 0 0 1 828.4166 314.4285)" class="st5 st43">公共浴室</text>
		<text transform="matrix(1 0 0 1 830.0065 331.1922)" class="st5 st43">停車場</text>
	</g>
	<text transform="matrix(1 0 0 1 703.8426 235.149)" class="st5 st44">山嵐謐靜 露營區</text>
	<text transform="matrix(1 0 0 1 788.5142 261.8416)" class="st45 st5 st46">海拔450公尺</text>
</g>
<path class="st47" d="M361.9,97.5l-8.5,1.3c-2.5,0.4-4.8-1.3-5.2-3.8l-1.3-8.5c-0.4-2.5,1.3-4.8,3.8-5.2l8.5-1.3
	c2.5-0.4,4.8,1.3,5.2,3.8l1.3,8.5C366.1,94.8,364.4,97.1,361.9,97.5z"/>
<path class="st47" d="M367.2,121.6l-8.5,1.3c-2.5,0.4-4.8-1.3-5.2-3.8l-1.3-8.5c-0.4-2.5,1.3-4.8,3.8-5.2l8.5-1.3
	c2.5-0.4,4.8,1.3,5.2,3.8l1.3,8.5C371.4,118.9,369.7,121.2,367.2,121.6z"/>
<path class="st47" d="M252.8,110.5l-8.5,1.3c-2.5,0.4-4.8-1.3-5.2-3.8l-1.3-8.5c-0.4-2.5,1.3-4.8,3.8-5.2l8.5-1.3
	c2.5-0.4,4.8,1.3,5.2,3.8l1.3,8.5C257,107.9,255.2,110.2,252.8,110.5z"/>
<path class="st47" d="M258.4,134.5l-8.5,1.3c-2.5,0.4-4.8-1.3-5.2-3.8l-1.3-8.5c-0.4-2.5,1.3-4.8,3.8-5.2l8.5-1.3
	c2.5-0.4,4.8,1.3,5.2,3.8l1.3,8.5C262.6,131.8,260.9,134.2,258.4,134.5z"/>
<g>
	<path class="st3" d="M325.8,107.9L284,112c-14.2,1.3-27-2.3-28.7-8.3l-0.9-3c-1.7-6,8.2-11.8,22.4-13.2l41.7-4.1
		c14.2-1.3,27,2.3,28.7,8.3l0.9,3C350.1,100.5,339.9,106.6,325.8,107.9z"/>
	<text transform="matrix(0.9985 -5.501000e-02 5.501000e-02 0.9985 264.447 103.6752)" class="st4 st5 st48">木棧板Ａ區</text>
</g>
<g>
	<path class="st3" d="M381.5,223.5h-31.8c-10.7,0-19.5-5.1-19.5-11.4v-3.2c0-6.3,8.7-11.4,19.5-11.4h31.8c10.7,0,19.5,5.1,19.5,11.4
		v3.2C400.9,218.3,392.2,223.5,381.5,223.5z"/>
	<text transform="matrix(0.8827 0 0 1 335.7041 216.7418)" class="st4 st5 st6">草皮B區</text>
</g>
<path class="st47" d="M520,328.8l-8.4,1.7c-2.5,0.5-4.9-1.1-5.3-3.6l-1.7-8.4c-0.5-2.5,1.1-4.9,3.6-5.3l8.4-1.7
	c2.5-0.5,4.9,1.1,5.3,3.6l1.7,8.4C524.1,325.9,522.5,328.3,520,328.8z"/>
<path class="st47" d="M510.8,305.1l-8.4,1.7c-2.5,0.5-4.9-1.1-5.3-3.6l-1.7-8.4c-0.5-2.5,1.1-4.9,3.6-5.3l8.4-1.7
	c2.5-0.5,4.9,1.1,5.3,3.6l1.7,8.4C514.8,302.2,513.2,304.6,510.8,305.1z"/>
<path class="st47" d="M613.8,313.6l-8.4,1.7c-2.5,0.5-4.9-1.1-5.3-3.6l-1.7-8.4c-0.5-2.5,1.1-4.9,3.6-5.3l8.4-1.7
	c2.5-0.5,4.9,1.1,5.3,3.6l1.7,8.4C617.8,310.8,616.2,313.2,613.8,313.6z"/>
<path class="st47" d="M598.4,291.7l-8.4,1.7c-2.5,0.5-4.9-1.1-5.3-3.6l-1.7-8.4c-0.5-2.5,1.1-4.9,3.6-5.3l8.4-1.7
	c2.5-0.5,4.9,1.1,5.3,3.6l1.7,8.4C602.4,288.8,600.8,291.2,598.4,291.7z"/>
<path class="st47" d="M503.6,277.4l-8.4,1.7c-2.5,0.5-4.9-1.1-5.3-3.6l-1.7-8.4c-0.5-2.5,1.1-4.9,3.6-5.3l8.4-1.7
	c2.5-0.5,4.9,1.1,5.3,3.6l1.7,8.4C507.7,274.5,506.1,276.9,503.6,277.4z"/>
<path class="st47" d="M584,265.3l-8.4,1.7c-2.5,0.5-4.9-1.1-5.3-3.6l-1.7-8.4c-0.5-2.5,1.1-4.9,3.6-5.3l8.4-1.7
	c2.5-0.5,4.9,1.1,5.3,3.6l1.7,8.4C588.1,262.4,586.5,264.8,584,265.3z"/>
<g>
	<path class="st3" d="M574.2,291l-41.7,4.1c-14.2,1.3-27-2.3-28.7-8.2l-1-3c-1.7-6,8.2-11.9,22.4-13.2l41.7-4.1
		c14.2-1.3,27,2.3,28.7,8.2l1,3C598.6,283.6,588.4,289.6,574.2,291z"/>
	<text transform="matrix(0.9976 -6.970771e-02 6.970771e-02 0.9976 512.9915 287.2849)" class="st4 st5 st49">木棧板B區</text>
</g>
<g>
	<path class="st12" d="M570.3,312.1h-20.7c-6.9,0-12.6-4.9-12.6-10.9v-3.1c0-6,5.7-10.9,12.6-10.9h20.7c6.9,0,12.6,4.9,12.6,10.9
		v3.1C582.9,307.3,577.1,312.1,570.3,312.1z"/>
	<text transform="matrix(1 0 0 1 543.2502 305.6087)" class="st4 st5 st7">10帳</text>
</g>
<g>
	<path class="st12" d="M382.5,321l-20.8,0.2c-7,0.1-12.9-4.8-12.9-10.8v-3.1c-0.1-6,5.6-11,12.6-11l20.8-0.2
		c7-0.1,12.9,4.8,12.9,10.8v3.1C395.1,315.9,389.4,320.9,382.5,321z"/>
	<text transform="matrix(0.9999 -1.473000e-02 1.473000e-02 0.9999 355.0905 314.6669)" class="st4 st5 st49">10帳</text>
</g>
<g>
	<polygon class="st27" points="111.5,255.5 105.7,257.7 109.8,257.9 107.2,259.6 113.4,259.6 117,258.7 116.4,261.6 120.2,261 
		122.9,258.7 128.2,260.4 133.5,259.6 131.8,258.6 133.7,258.1 125.9,256 	"/>
	<path class="st28" d="M114,232.8c4.4-0.6,6.6-9.1,6.6-9.1s0.9,8.4,6.6,10.7c0.1,0.8-1.9,1.5-3.8,0.7c-0.1,1.7,3.6,4.4,5.9,5
		c0.1,0.9-2.1,2.3-4.1,1.6c0.9,2.1,2.5,3.8,5.9,4.7c-1.6,0.9-4.1,0.1-5.7,0c0,1.4,5,2.6,7.5,2.5c-0.5,1.3-2.8,2.6-5,2.5
		c0,1.5,4.9,2.7,6.3,3.2c0.1,1.3-3.4,2.1-5.9,1.3c-0.1,1.5,2.5,2.8,3.8,3.4c0,1.1-8.1,0.8-9.5-1.6c-1.5,0.6-2.5,3.8-5.5,3.5
		c0.3-0.8,1.3-3.5-0.2-4.1c-1.1,1.6-6.2,2.8-8.2,1.9c0.7-0.7,3.6-1.1,2.7-3c-2.6-0.1-6-2.4-5.9-3.4c0.7,0.5,4.9,1.1,5,0
		c-1.9-0.1-3.1-1.6-3.2-2.8c0.7,0.3,4.9,1,5-0.3c-1.5-0.6-3.3-1.6-3.2-2.8c1.3,0.1,3.9,0.1,4.1-1.3c-1.6-0.6-3.1-2.8-3.2-3.8
		c1.1,0.3,5.7,0.1,5.7-0.9c-1.9-0.1-3.6-0.9-3.4-2.2c2.5-0.2,5.4-2.8,5.4-4.1C116.8,234.7,114.7,234.3,114,232.8z"/>
	<path class="st29" d="M131.2,246.3c0,0-3.2,0.1-5.9-2.5c-2.7-2.6-3.4-4.4-3.4-4.4s-0.7,0.9-2.8,2.2c-2.2,1.3-6.9,1.3-6.9,1.3
		s3,2.3,7.2,0.9c2.1-0.7,1.9-1.1,1.9-1.1s3,2.5,4.1,3C129.5,247.2,131.2,246.3,131.2,246.3z"/>
	<path class="st29" d="M113.7,238.8c3.8-2.1,6.2-3.6,6.9-6.9c-0.2,1.5,3,5.7,5.9,7.9c-2.2-0.2-5-3.9-6.3-3.8
		C120.1,237,116.3,238.5,113.7,238.8z"/>
	<path class="st29" d="M115.4,233.2c3.8-2.1,4.4-4.7,5.1-7.9c-0.2,1.5,1.7,6.3,4.7,8.4c-2.2-0.2-4.1-3.4-5-4.1
		C120.1,230.8,118,232.9,115.4,233.2z"/>
	<path class="st29" d="M109.8,247.2c0,0,4.7-0.1,8.2-1.8c1.1-0.1,2.6,3.3,3.4,3.4c0.9-0.2,1.4-0.5,2.3-1c0.8,3.2,6.5,6,9.7,6.9
		c-5.9,0-10-3.9-10.7-5c-0.7,0.6-0.9,2.2-2.2,2.2c-1-1.5-2.6-3.8-3.1-4.9C116.3,246.7,111.6,248.1,109.8,247.2z"/>
	<path class="st29" d="M107.1,253.4c6.6,0.7,9-2.3,10.1-3.5C116.4,254.5,109,255.7,107.1,253.4z"/>
	<path class="st29" d="M124.5,252.7c1.8,3.1,2.6,4.8,6.8,6.3C124.4,259.3,123.7,254,124.5,252.7z"/>
	<path class="st29" d="M118.2,260.2c0.3,0.2,4.4-6.3,1.5-7.4C118,253.7,119.5,257,118.2,260.2z"/>
	<path class="st27" d="M122.9,233.6c-1.7-1.4-1.7-1.4-1.7-1.4s1.4,1.7,2.3,2.7l0,0c1.8,0.9,3.9,0.1,3.8-0.7
		C127.2,234.4,124.6,235,122.9,233.6z"/>
	<path class="st27" d="M125.1,257.2c-2.1-2.2-2.6-5.5-2.6-5.5s-1.3,4.3-2.3,6.4c-0.7,1.3-1.3,2.3-2.8,2.7v0.1c3,0.2,4-3,5.5-3.5
		c1.4,2.4,9.5,2.7,9.5,1.6C132.3,259,127.2,259.4,125.1,257.2z"/>
	<path class="st27" d="M128.7,249.7c-2.1-0.1-5-4-5-4s-1.5,0.7-2.3,0.1c-0.9-0.6-1.6-1.3-1.6-1.3s0.8,3.6,1.9,3.5s1.8-0.5,2.3-1
		c0.6,2.8,4.2,4.3,4.2,4.3c2.2,0.1,4.6-1.3,5-2.5C133.2,248.7,130.9,249.8,128.7,249.7z"/>
	<path class="st27" d="M115.9,240.7C116,240.7,115.9,240.7,115.9,240.7c0.6,0,1.3,0,1.8-0.1c1.6-0.2,4.3-1.7,4.3-1.7l-2.1,0.2
		l0.8-1.8c0,0-2.4,1.9-4.6,2.3c-2.2,0.2-3.8-1-3.8-1C112.3,239.8,113.9,240.5,115.9,240.7z"/>
	<g>
		<path class="st27" d="M112.4,249.3c-0.1,1.4-4.3,0.7-5,0.3c3.1,2.1,8.9-0.3,8.9-0.3h-2.8l3.2-1.6c0,0-7.2,0.5-7.4-1.4
			C109.1,247.8,111,248.8,112.4,249.3z"/>
		<path class="st27" d="M115.4,250.8c0,0-2.3,0.7-3.8,0.7s-4.1-1.4-4.2-1.8c0.1,1.1,1.3,2.6,3.1,2.7
			C114.1,252.8,115.4,250.8,115.4,250.8z"/>
	</g>
	<path class="st27" d="M118.2,257.5c0-1.3-0.3-8.7-0.3-8.7s-0.1,4.4-4.1,8.2c-1.4,1.3-4.8,1.7-4.8,1.7c2.1,0.9,6.9-0.2,8.2-1.9
		c1.1,0.5,0.8,2.2,0.5,3.3C117.9,259.5,118.2,258.3,118.2,257.5z"/>
</g>
<g>
	<polygon class="st27" points="89.2,271.7 83.4,273.9 87.5,274.1 84.9,275.8 91,275.8 94.7,274.9 94.1,277.9 97.9,277.2 
		100.6,274.9 105.8,276.6 111.2,275.8 109.5,274.8 111.4,274.4 103.6,272.2 	"/>
	<path class="st28" d="M91.7,249.1c4.4-0.6,6.6-9.1,6.6-9.1s0.9,8.4,6.6,10.7c0.1,0.8-1.9,1.5-3.8,0.7c-0.1,1.7,3.6,4.4,5.9,5
		c0.1,0.9-2.1,2.3-4.1,1.6c0.9,2.1,2.5,3.8,5.9,4.7c-1.6,0.9-4.1,0.1-5.7,0c0,1.4,5,2.6,7.5,2.5c-0.5,1.3-2.8,2.6-5,2.5
		c0,1.5,4.9,2.7,6.3,3.2c0.1,1.3-3.4,2.1-5.9,1.3c-0.1,1.5,2.5,2.8,3.8,3.4c0,1.1-8.1,0.8-9.5-1.6c-1.5,0.6-2.5,3.8-5.5,3.5
		c0.3-0.8,1.3-3.5-0.2-4.1c-1.1,1.6-6.2,2.8-8.2,1.9c0.7-0.7,3.6-1.1,2.7-3c-2.6-0.1-6-2.4-5.9-3.4c0.7,0.5,4.9,1.1,5,0
		c-1.9-0.1-3.1-1.6-3.2-2.8c0.7,0.3,4.9,1,5-0.3c-1.5-0.6-3.3-1.6-3.2-2.8c1.3,0.1,3.9,0.1,4.1-1.3c-1.6-0.6-3.1-2.8-3.2-3.8
		c1.1,0.3,5.7,0.1,5.7-0.9c-1.9-0.1-3.6-0.9-3.4-2.2c2.5-0.2,5.4-2.8,5.4-4.1C94.4,250.9,92.4,250.6,91.7,249.1z"/>
	<path class="st29" d="M108.9,262.5c0,0-3.2,0.1-5.9-2.5c-2.7-2.6-3.4-4.4-3.4-4.4s-0.7,0.9-2.8,2.2s-6.9,1.3-6.9,1.3s3,2.3,7.2,0.9
		c2.1-0.7,1.9-1.1,1.9-1.1s3,2.5,4.1,3C107.2,263.4,108.9,262.5,108.9,262.5z"/>
	<path class="st29" d="M91.4,255c3.8-2.1,6.2-3.6,6.9-6.9c-0.2,1.5,3,5.7,5.9,7.9c-2.2-0.2-5-3.9-6.3-3.8
		C97.7,253.3,94,254.8,91.4,255z"/>
	<path class="st29" d="M93.1,249.4c3.8-2.1,4.4-4.7,5.1-7.9c-0.2,1.5,1.7,6.3,4.7,8.4c-2.2-0.2-4.1-3.4-5-4.1
		C97.7,247,95.7,249.2,93.1,249.4z"/>
	<path class="st29" d="M87.5,263.4c0,0,4.7-0.1,8.2-1.8c1.1-0.1,2.6,3.3,3.4,3.4c0.9-0.2,1.4-0.5,2.3-1c0.8,3.2,6.5,6,9.7,6.9
		c-5.9,0-10-3.9-10.7-5c-0.7,0.6-0.9,2.2-2.2,2.2c-1-1.5-2.6-3.8-3.1-4.9C94,263,89.3,264.3,87.5,263.4z"/>
	<path class="st29" d="M84.8,269.7c6.6,0.7,9-2.3,10.1-3.5C94.1,270.7,86.7,272,84.8,269.7z"/>
	<path class="st29" d="M102.2,268.9c1.8,3.1,2.6,4.8,6.8,6.3C102.1,275.5,101.4,270.3,102.2,268.9z"/>
	<path class="st29" d="M95.9,276.4c0.3,0.2,4.4-6.3,1.5-7.4C95.7,269.9,97.2,273.2,95.9,276.4z"/>
	<path class="st27" d="M100.6,249.9c-1.7-1.4-1.7-1.4-1.7-1.4s1.4,1.7,2.3,2.7l0,0c1.8,0.9,3.9,0.1,3.8-0.7
		C104.9,250.7,102.3,251.2,100.6,249.9z"/>
	<path class="st27" d="M102.8,273.5c-2.1-2.2-2.6-5.5-2.6-5.5s-1.3,4.3-2.3,6.4c-0.7,1.3-1.3,2.3-2.8,2.7v0.1c3,0.2,4-3,5.5-3.5
		c1.4,2.4,9.5,2.7,9.5,1.6C109.9,275.3,104.9,275.6,102.8,273.5z"/>
	<path class="st27" d="M106.4,265.9c-2.1-0.1-5-4-5-4s-1.5,0.7-2.3,0.1c-0.9-0.6-1.6-1.3-1.6-1.3s0.8,3.6,1.9,3.5s1.8-0.5,2.3-1
		c0.6,2.8,4.2,4.3,4.2,4.3c2.2,0.1,4.6-1.3,5-2.5C110.8,264.9,108.6,266.1,106.4,265.9z"/>
	<path class="st27" d="M93.5,256.9C93.6,256.9,93.5,256.9,93.5,256.9c0.6,0,1.3,0,1.8-0.1c1.6-0.2,4.3-1.7,4.3-1.7l-2.1,0.2l0.8-1.8
		c0,0-2.4,1.9-4.6,2.3c-2.2,0.2-3.8-1-3.8-1C90,256,91.6,256.7,93.5,256.9z"/>
	<g>
		<path class="st27" d="M90.1,265.6c-0.1,1.4-4.3,0.7-5,0.3c3.1,2.1,8.9-0.3,8.9-0.3h-2.8l3.2-1.6c0,0-7.2,0.5-7.4-1.4
			C86.8,264,88.6,265,90.1,265.6z"/>
		<path class="st27" d="M93.1,267.1c0,0-2.3,0.7-3.8,0.7s-4.1-1.4-4.2-1.8c0.1,1.1,1.3,2.6,3.1,2.7C91.8,269,93.1,267.1,93.1,267.1z
			"/>
	</g>
	<path class="st27" d="M95.9,273.8c0-1.3-0.3-8.7-0.3-8.7s-0.1,4.4-4.1,8.2c-1.4,1.3-4.8,1.7-4.8,1.7c2.1,0.9,6.9-0.2,8.2-1.9
		c1.1,0.5,0.8,2.2,0.5,3.3C95.6,275.7,95.9,274.6,95.9,273.8z"/>
</g>
<g>
	<polygon class="st27" points="491.4,209.6 485.6,211.8 489.7,212 487.1,213.7 493.2,213.7 496.9,212.8 496.3,215.7 500.1,215.1 
		502.8,212.8 508,214.5 513.4,213.7 511.7,212.7 513.6,212.2 505.8,210 	"/>
	<path class="st28" d="M493.9,186.9c4.4-0.6,6.6-9.1,6.6-9.1s0.9,8.4,6.6,10.7c0.1,0.8-1.9,1.5-3.8,0.7c-0.1,1.7,3.6,4.4,5.9,5
		c0.1,0.9-2.1,2.3-4.1,1.6c0.9,2.1,2.5,3.8,5.9,4.7c-1.6,0.9-4.1,0.1-5.7,0c0,1.4,5,2.6,7.5,2.5c-0.5,1.3-2.8,2.6-5,2.5
		c0,1.5,4.9,2.7,6.3,3.2c0.1,1.3-3.4,2.1-5.9,1.3c-0.1,1.5,2.5,2.8,3.8,3.4c0,1.1-8.1,0.8-9.5-1.6c-1.5,0.6-2.5,3.8-5.5,3.5
		c0.3-0.8,1.3-3.5-0.2-4.1c-1.1,1.6-6.2,2.8-8.2,1.9c0.7-0.7,3.6-1.1,2.7-3c-2.6-0.1-6-2.4-5.9-3.4c0.7,0.5,4.9,1.1,5,0
		c-1.9-0.1-3.1-1.6-3.2-2.8c0.7,0.3,4.9,1,5-0.3c-1.5-0.6-3.3-1.6-3.2-2.8c1.3,0.1,3.9,0.1,4.1-1.3c-1.6-0.6-3.1-2.8-3.2-3.8
		c1.1,0.3,5.7,0.1,5.7-0.9c-1.9-0.1-3.6-0.9-3.4-2.2c2.5-0.2,5.4-2.8,5.4-4.1C496.6,188.7,494.6,188.4,493.9,186.9z"/>
	<path class="st29" d="M511.1,200.4c0,0-3.2,0.1-5.9-2.5c-2.7-2.6-3.4-4.4-3.4-4.4s-0.7,0.9-2.8,2.2c-2.2,1.3-6.9,1.3-6.9,1.3
		s3,2.3,7.2,0.9c2.1-0.7,1.9-1.1,1.9-1.1s3,2.5,4.1,3C509.4,201.3,511.1,200.4,511.1,200.4z"/>
	<path class="st29" d="M493.6,192.8c3.8-2.1,6.2-3.6,6.9-6.9c-0.2,1.5,3,5.7,5.9,7.9c-2.2-0.2-5-3.9-6.3-3.8
		C499.9,191.1,496.2,192.6,493.6,192.8z"/>
	<path class="st29" d="M495.3,187.3c3.8-2.1,4.4-4.7,5.1-7.9c-0.2,1.5,1.7,6.3,4.7,8.4c-2.2-0.2-4.1-3.4-5-4.1
		C499.9,184.9,497.9,187,495.3,187.3z"/>
	<path class="st29" d="M489.7,201.3c0,0,4.7-0.1,8.2-1.8c1.1-0.1,2.6,3.3,3.4,3.4c0.9-0.2,1.4-0.5,2.3-1c0.8,3.2,6.5,6,9.7,6.9
		c-5.9,0-10-3.9-10.7-5c-0.7,0.6-0.9,2.2-2.2,2.2c-1-1.5-2.6-3.8-3.1-4.9C496.2,200.8,491.5,202.2,489.7,201.3z"/>
	<path class="st29" d="M487,207.5c6.6,0.7,9-2.3,10.1-3.5C496.3,208.6,488.9,209.8,487,207.5z"/>
	<path class="st29" d="M504.4,206.7c1.8,3.1,2.6,4.8,6.8,6.3C504.3,213.3,503.6,208.1,504.4,206.7z"/>
	<path class="st29" d="M498.1,214.3c0.3,0.2,4.4-6.3,1.5-7.4C497.9,207.8,499.4,211.1,498.1,214.3z"/>
	<path class="st27" d="M502.8,187.7c-1.7-1.4-1.7-1.4-1.7-1.4s1.4,1.7,2.3,2.7l0,0c1.8,0.9,3.9,0.1,3.8-0.7
		C507.1,188.5,504.5,189.1,502.8,187.7z"/>
	<path class="st27" d="M505,211.3c-2.1-2.2-2.6-5.5-2.6-5.5s-1.3,4.3-2.3,6.4c-0.7,1.3-1.3,2.3-2.8,2.7v0.1c3,0.2,4-3,5.5-3.5
		c1.4,2.4,9.5,2.7,9.5,1.6C512.1,213.1,507.1,213.5,505,211.3z"/>
	<path class="st27" d="M508.6,203.8c-2.1-0.1-5-4-5-4s-1.5,0.7-2.3,0.1c-0.9-0.6-1.6-1.3-1.6-1.3s0.8,3.6,1.9,3.5s1.8-0.5,2.3-1
		c0.6,2.8,4.2,4.3,4.2,4.3c2.2,0.1,4.6-1.3,5-2.5C513,202.8,510.8,203.9,508.6,203.8z"/>
	<path class="st27" d="M495.7,194.8C495.8,194.8,495.7,194.8,495.7,194.8c0.6,0,1.3,0,1.8-0.1c1.6-0.2,4.3-1.7,4.3-1.7l-2.1,0.2
		l0.8-1.8c0,0-2.4,1.9-4.6,2.3c-2.2,0.2-3.8-1-3.8-1C492.2,193.9,493.8,194.6,495.7,194.8z"/>
	<g>
		<path class="st27" d="M492.3,203.4c-0.1,1.4-4.3,0.7-5,0.3c3.1,2.1,8.9-0.3,8.9-0.3h-2.8l3.2-1.6c0,0-7.2,0.5-7.4-1.4
			C489,201.8,490.8,202.9,492.3,203.4z"/>
		<path class="st27" d="M495.3,204.9c0,0-2.3,0.7-3.8,0.7s-4.1-1.4-4.2-1.8c0.1,1.1,1.3,2.6,3.1,2.7
			C494,206.9,495.3,204.9,495.3,204.9z"/>
	</g>
	<path class="st27" d="M498.1,211.6c0-1.3-0.3-8.7-0.3-8.7s-0.1,4.4-4.1,8.2c-1.4,1.3-4.8,1.7-4.8,1.7c2.1,0.9,6.9-0.2,8.2-1.9
		c1.1,0.5,0.8,2.2,0.5,3.3C497.8,213.6,498.1,212.4,498.1,211.6z"/>
</g>
<g>
	<polygon class="st27" points="518.6,227.4 512.8,229.6 516.9,229.8 514.3,231.5 520.5,231.5 524.1,230.6 523.5,233.5 527.3,232.9 
		530,230.6 535.3,232.3 540.6,231.5 538.9,230.5 540.9,230 533,227.8 	"/>
	<path class="st28" d="M521.2,204.7c4.4-0.6,6.6-9.1,6.6-9.1s0.9,8.4,6.6,10.7c0.1,0.8-1.9,1.5-3.8,0.7c-0.1,1.7,3.6,4.4,5.9,5
		c0.1,0.9-2.1,2.3-4.1,1.6c0.9,2.1,2.5,3.8,5.9,4.7c-1.6,0.9-4.1,0.1-5.7,0c0,1.4,5,2.6,7.5,2.5c-0.5,1.3-2.8,2.6-5,2.5
		c0,1.5,4.9,2.7,6.3,3.2c0.1,1.3-3.4,2.1-5.9,1.3c-0.1,1.5,2.5,2.8,3.8,3.4c0,1.1-8.1,0.8-9.5-1.6c-1.5,0.6-2.5,3.8-5.5,3.5
		c0.3-0.8,1.3-3.5-0.2-4.1c-1.1,1.6-6.2,2.8-8.2,1.9c0.7-0.7,3.6-1.1,2.7-3c-2.6-0.1-6-2.4-5.9-3.4c0.7,0.5,4.9,1.1,5,0
		c-1.9-0.1-3.1-1.6-3.2-2.8c0.7,0.3,4.9,1,5-0.3c-1.5-0.6-3.3-1.6-3.2-2.8c1.3,0.1,3.9,0.1,4.1-1.3c-1.6-0.6-3.1-2.8-3.2-3.8
		c1.1,0.3,5.7,0.1,5.7-0.9c-1.9-0.1-3.6-0.9-3.4-2.2c2.5-0.2,5.4-2.8,5.4-4.1C523.9,206.5,521.8,206.2,521.2,204.7z"/>
	<path class="st29" d="M538.4,218.2c0,0-3.2,0.1-5.9-2.5s-3.4-4.4-3.4-4.4s-0.7,0.9-2.8,2.2c-2.2,1.3-6.9,1.3-6.9,1.3s3,2.3,7.2,0.9
		c2.1-0.7,1.9-1.1,1.9-1.1s3,2.5,4.1,3C536.6,219.1,538.4,218.2,538.4,218.2z"/>
	<path class="st29" d="M520.8,210.6c3.8-2.1,6.2-3.6,6.9-6.9c-0.2,1.5,3,5.7,5.9,7.9c-2.2-0.2-5-3.9-6.3-3.8
		C527.2,208.9,523.4,210.4,520.8,210.6z"/>
	<path class="st29" d="M522.5,205.1c3.8-2.1,4.4-4.7,5.1-7.9c-0.2,1.5,1.7,6.3,4.7,8.4c-2.2-0.2-4.1-3.4-5-4.1
		C527.2,202.7,525.1,204.8,522.5,205.1z"/>
	<path class="st29" d="M516.9,219.1c0,0,4.7-0.1,8.2-1.8c1.1-0.1,2.6,3.3,3.4,3.4c0.9-0.2,1.4-0.5,2.3-1c0.8,3.2,6.5,6,9.7,6.9
		c-5.9,0-10-3.9-10.7-5c-0.7,0.6-0.9,2.2-2.2,2.2c-1-1.5-2.6-3.8-3.1-4.9C523.4,218.6,518.8,220,516.9,219.1z"/>
	<path class="st29" d="M514.2,225.3c6.6,0.7,9-2.3,10.1-3.5C523.5,226.4,516.1,227.6,514.2,225.3z"/>
	<path class="st29" d="M531.6,224.5c1.8,3.1,2.6,4.8,6.8,6.3C531.5,231.2,530.8,225.9,531.6,224.5z"/>
	<path class="st29" d="M525.4,232.1c0.3,0.2,4.4-6.3,1.5-7.4C525.1,225.6,526.6,228.9,525.4,232.1z"/>
	<path class="st27" d="M530,205.5c-1.7-1.4-1.7-1.4-1.7-1.4s1.4,1.7,2.3,2.7l0,0c1.8,0.9,3.9,0.1,3.8-0.7
		C534.4,206.3,531.7,206.9,530,205.5z"/>
	<path class="st27" d="M532.2,229.1c-2.1-2.2-2.6-5.5-2.6-5.5s-1.3,4.3-2.3,6.4c-0.7,1.3-1.3,2.3-2.8,2.7v0.1c3,0.2,4-3,5.5-3.5
		c1.4,2.4,9.5,2.7,9.5,1.6C539.4,230.9,534.4,231.3,532.2,229.1z"/>
	<path class="st27" d="M535.8,221.6c-2.1-0.1-5-4-5-4s-1.5,0.7-2.3,0.1c-0.9-0.6-1.6-1.3-1.6-1.3s0.8,3.6,1.9,3.5
		c1.1-0.1,1.8-0.5,2.3-1c0.6,2.8,4.2,4.3,4.2,4.3c2.2,0.1,4.6-1.3,5-2.5C540.3,220.6,538,221.7,535.8,221.6z"/>
	<path class="st27" d="M523,212.6C523.1,212.6,523,212.6,523,212.6c0.6,0,1.3,0,1.8-0.1c1.6-0.2,4.3-1.7,4.3-1.7L527,211l0.8-1.8
		c0,0-2.4,1.9-4.6,2.3c-2.2,0.2-3.8-1-3.8-1C519.4,211.7,521,212.4,523,212.6z"/>
	<g>
		<path class="st27" d="M519.6,221.2c-0.1,1.4-4.3,0.7-5,0.3c3.1,2.1,8.9-0.3,8.9-0.3h-2.8l3.2-1.6c0,0-7.2,0.5-7.4-1.4
			C516.3,219.6,518.1,220.7,519.6,221.2z"/>
		<path class="st27" d="M522.5,222.7c0,0-2.3,0.7-3.8,0.7s-4.1-1.4-4.2-1.8c0.1,1.1,1.3,2.6,3.1,2.7
			C521.3,224.7,522.5,222.7,522.5,222.7z"/>
	</g>
	<path class="st27" d="M525.4,229.4c0-1.3-0.3-8.7-0.3-8.7s-0.1,4.4-4.1,8.2c-1.4,1.3-4.8,1.7-4.8,1.7c2.1,0.9,6.9-0.2,8.2-1.9
		c1.1,0.5,0.8,2.2,0.5,3.3C525,231.4,525.4,230.2,525.4,229.4z"/>
</g>
<g>
	<path class="st12" d="M377.8,247.2l-21.5,0.2c-7.3,0.1-13.3-4.8-13.3-10.8v-3.1c-0.1-6,5.8-11,13-11l21.5-0.2
		c7.3-0.1,13.3,4.8,13.3,10.8v3.1C390.8,242.1,384.9,247.1,377.8,247.2z"/>
	<text transform="matrix(0.9999 -1.473000e-02 1.473000e-02 0.9999 349.3113 240.9164)" class="st4 st5 st49">10帳</text>
</g>
<g>
	<path class="st12" d="M319.9,129.5l-22.1,1.8c-7.5,0.6-14.2-3.8-14.9-9.8l-0.4-3.1c-0.7-6,4.7-11.4,12.2-12l22.1-1.8
		c7.5-0.6,14.2,3.8,14.9,9.8l0.4,3.1C332.7,123.6,327.3,128.9,319.9,129.5z"/>
	<text transform="matrix(0.995 -9.964001e-02 9.964001e-02 0.995 289.4859 125.1408)" class="st4 st5 st48">10帳</text>
</g>
</svg>
