<svg id="圖層_1" data-name="圖層 1" xmlns="http://www.w3.org/2000/svg" viewBox="0 0 100.75 100.75"><defs><style>.cls-1{fill:#fff;}.cls-2{fill:none;stroke:#fff;stroke-miterlimit:10;stroke-width:4px;}</style></defs><path class="cls-1" d="M54.3,9.45a21,21,0,1,0,21,21.05A21.11,21.11,0,0,0,54.3,9.45Z" transform="translate(-4.07 -0.07)"/><path class="cls-1" d="M90.42,68.37a19.21,19.21,0,0,0-2.11-3.86A26.16,26.16,0,0,0,70.2,53.11a3.87,3.87,0,0,0-2.66.64,22.45,22.45,0,0,1-26.48,0,3.45,3.45,0,0,0-2.66-.64,26,26,0,0,0-18.11,11.4,22,22,0,0,0-2.11,3.86,1.91,1.91,0,0,0,.09,1.74,34.74,34.74,0,0,0,2.48,3.68A35.1,35.1,0,0,0,25,78.57c1.29,1.29,2.76,2.48,4.23,3.68a41.41,41.41,0,0,0,54.23-3.68,42.45,42.45,0,0,0,4.23-4.78,32,32,0,0,0,2.48-3.68A1.55,1.55,0,0,0,90.42,68.37Z" transform="translate(-4.07 -0.07)"/><circle class="cls-2" cx="50.38" cy="50.38" r="48.37"/></svg>