<?xml version="1.0" encoding="utf-8"?>
<!-- Generator: Adobe Illustrator 25.0.0, SVG Export Plug-In . SVG Version: 6.00 Build 0)  -->
<svg version="1.1" id="圖層_1" focusable="false" xmlns="http://www.w3.org/2000/svg" xmlns:xlink="http://www.w3.org/1999/xlink"
	 x="0px" y="0px" viewBox="0 0 555 580" style="enable-background:new 0 0 555 580;" xml:space="preserve">
<path d="M274,275c70.7,0,128-57.3,128-128S344.7,19,274,19S146,76.3,146,147S203.3,275,274,275z M363.6,307h-16.7
	c-22.2,10.2-46.9,16-72.9,16s-50.6-5.8-72.9-16h-16.7C110.2,307,50,367.2,50,441.4V483c0,26.5,21.5,48,48,48h352
	c26.5,0,48-21.5,48-48v-41.6C498,367.2,437.8,307,363.6,307z"/>
</svg>
