<?xml version="1.0" encoding="utf-8"?>
<!-- Generator: Adobe Illustrator 25.0.0, SVG Export Plug-In . SVG Version: 6.00 Build 0)  -->
<svg version="1.1" id="圖層_1" xmlns="http://www.w3.org/2000/svg" xmlns:xlink="http://www.w3.org/1999/xlink" x="0px" y="0px"
	 viewBox="0 0 1366 154" style="enable-background:new 0 0 1366 154;" xml:space="preserve">
<style type="text/css">
	.st0{fill:none;stroke:#B4D2D9;stroke-width:8;stroke-miterlimit:10;}
	.st1{enable-background:new    ;}
	.st2{fill:#3C7275;}
	.st3{fill:#95ACAF;stroke:#7F9293;stroke-width:4;stroke-miterlimit:10;}
	.st4{fill:#FFFFFF;}
	.st5{fill:#3C7275;stroke:#73DDDD;stroke-width:6;stroke-miterlimit:10;}
	.st6{fill:none;stroke:#A5BFC4;stroke-width:8;stroke-miterlimit:10;}
</style>
<line class="st0" x1="369.5" y1="53.9" x2="988.5" y2="53.9"/>
<g>
	<g class="st1">
		<path class="st2" d="M329.6,108.6v-2.2h3v2.2h7.9v2.7h-7.9v1.6h6.2V128h2.9v2.8h-6.5c2.2,1.2,4.2,2.5,6.1,4.1l-1.9,2.2
			c-1.9-1.7-4.1-3.2-6.3-4.5l1.9-1.7h-7.7l2,1.7c-1.9,1.7-4.3,3.2-7.1,4.5l-1.8-2.3c2.7-1.1,4.9-2.4,6.7-3.9h-6.5v-2.3
			c-2.8,1.1-5.7,2-8.8,2.8l-0.8-3c1.3-0.2,2.5-0.5,3.8-0.8v-10.2h-3.4v-3h3.4v-7.7h3v7.7h3.1v3h-3.1v9.3c1-0.4,2-0.8,3-1.2v2.7h2.7
			V113h6.1v-1.6h-7.9v-2.7h7.9V108.6z M335.8,116.9v-1.5h-9.4v1.5H335.8z M335.8,120.6v-1.5h-9.4v1.5H335.8z M335.8,124.3v-1.5h-9.4
			v1.5H335.8z M335.8,128.1v-1.6h-9.4v1.6H335.8z"/>
		<path class="st2" d="M362.7,134c1.2,0.1,2.2,0.1,3.3,0.1c1.3,0,2.1-0.4,2.5-1.2s0.7-2.5,0.8-5.1h-17.9c-0.6,0.5-1.2,0.9-1.7,1.3
			l2.4,0.6c-0.6,2.4-1.3,4.6-2.1,6.5l-2.8-1c0.9-1.6,1.6-3.6,2.2-5.9c-0.9,0.6-1.7,1.1-2.6,1.5l-1.9-2.3c2.7-1.3,5.1-2.9,7.2-4.8h-3
			v-10.3c3.1-0.1,5.8-0.6,8.1-1.3l1.4,2.3c-1.6,0.5-3.8,1-6.7,1.4v1.5h6v2.4h-6v1.5h14.8v-1.5H361v-2.3h5.6v-1.6h-6.1v-2.4h8.9v10.5
			h-13.8c-0.5,0.5-0.9,1.1-1.3,1.5h18.1c-0.1,2.8-0.3,5.1-0.5,6.8c-0.3,1.7-0.8,2.9-1.4,3.6c-0.7,0.7-1.7,1-3.1,1.1h-4L362.7,134z
			 M373.2,115.1h-2.9v-3.5h-22v3.6h-2.9v-6.3h12.1c-0.4-0.7-0.8-1.4-1.2-1.9l3.2-0.5c0.4,0.7,0.8,1.5,1.2,2.5h12.6v6.1H373.2z
			 M357.6,135l-2.8,0.6c-0.3-2.2-0.6-4.1-1-5.7l2.6-0.6C356.8,131.1,357.2,132.9,357.6,135z M362.8,133.6l-2.7,0.7
			c-0.4-1.8-0.8-3.3-1.4-4.7l2.5-0.5C361.8,130.5,362.3,132,362.8,133.6z M367.7,132.2l-2.4,1c-0.5-1.5-1.1-2.8-1.6-3.9l2.3-1
			C366.6,129.6,367.2,130.9,367.7,132.2z"/>
		<path class="st2" d="M398.5,111.5c-0.1,0.5-0.3,0.9-0.4,1.3c2.3,2.2,5.3,3.5,8.9,3.9l-1.3,2.6c-0.9-0.1-1.7-0.3-2.5-0.6v13.5h-6.5
			c3.5,0.6,6.9,1.4,10.2,2.4l-1,2.5c-3.5-1.3-7.2-2.2-11-2.9l1-2h-7.6l1.4,1.7c-2.4,1.3-5.9,2.3-10.5,3.1l-1.4-2.4
			c4.2-0.7,7.5-1.5,9.8-2.4h-6.1v-13.6h7.9l-1.3-1.9c4.4-0.8,7-2.7,7.8-5.7L398.5,111.5z M387.2,114.1v2.7h-9.5v-2.7H387.2z
			 M386.5,108.1v2.6h-8.2v-2.6H386.5z M400,122.6V121h-15.7v1.5L400,122.6L400,122.6z M400,126.1v-1.5h-15.7v1.5H400z M400,128.1
			h-15.7v1.6H400V128.1z M388.7,114.3L387,112c2.3-1.6,3.9-3.5,4.7-5.8l2.9,0.3c-0.2,0.5-0.4,1.1-0.6,1.5h11.6v2.2
			c-0.9,1.7-1.8,3.2-2.8,4.3l-2.1-1.7c0.6-0.7,1.2-1.4,1.7-2.2h-9.8C391.5,112,390.2,113.3,388.7,114.3z M402.8,118.6
			c-2.3-0.8-4.3-2-6-3.7c-1.4,1.7-3.4,3-6,3.7H402.8z"/>
		<path class="st2" d="M414.6,122.9c-0.7,3.4-1.5,6.5-2.4,9.1l-2.3-0.8c1-2.3,1.8-5.3,2.5-8.8L414.6,122.9z M414.7,116l-2.4,0.7
			c-0.5-2.3-1.1-4.6-1.8-6.7l2.6-0.8C413.6,111.1,414.2,113.4,414.7,116z M415.6,117.8v-11.4h3v11.4h4.5v3h-4.5v16h-3v-16h-4.8v-3
			H415.6z M423.2,109.1c-0.2,2.7-0.6,5.2-1.4,7.3l-2.3-0.7c0.6-2,0.9-4.3,1.1-6.9L423.2,109.1z M423.7,129.9l-2.4,0.6
			c-0.4-2.7-1-5.2-1.5-7.7l2-0.7C422.5,124.4,423.1,127,423.7,129.9z M437.2,106.5V125l2.8-0.4l0.5,3l-3.3,0.5v8.7h-3v-8.3l-9.6,1.5
			l-0.5-3l10.1-1.5v-19H437.2z M432.3,121.6l-2.1,2.1c-1.3-1.6-3.1-3.4-5.5-5.2l2-1.9C428.9,118.3,430.8,120,432.3,121.6z
			 M433.2,113.6l-2,2c-1.4-1.5-3.2-3.1-5.7-4.9l2-2C429.8,110.4,431.7,112,433.2,113.6z"/>
	</g>
</g>
<g>
	<path class="st2" d="M629.2,108v3h-4.3c-0.4,2.4-1,4.6-1.7,6.7h5.6v6.9c3.1-3.3,5.4-7.4,7-12.3h-3v4.2H630v-7h6.7
		c0.3-1.1,0.5-2.2,0.8-3.3l2.9,0.5c-0.2,1-0.4,1.9-0.6,2.8h8.2v6.3h-3v-3.6h-6.1c-0.6,1.8-1.2,3.5-1.9,5.1h3c-0.3-1.1-0.7-2-1.1-3
		l2.7-0.7c0.5,1.4,0.9,2.6,1.2,3.8h4.6v2.7h-4.8v2.4h4.2v2.7h-4.2v2.5h4.4v2.7h-4.4v2.7h5.7v2.8h-13.1v1h-2.9v-11.8
		c-0.6,0.7-1.1,1.3-1.7,1.9l-1.6-2v10.4h-2.8v-1.6h-2.7v1.9h-2.7v-12.3c-0.5,0.8-0.9,1.5-1.4,2.2l-1.6-2.6c2.1-3.6,3.5-7.6,4.3-12.1
		H619v-3h10.2V108z M626.1,131v-10.5h-2.7V131H626.1z M639.6,120.1h-4c-0.2,0.3-0.4,0.6-0.5,1v1.5h4.5V120.1z M639.6,125.2h-4.5v2.5
		h4.5V125.2z M639.6,133.1v-2.7h-4.5v2.7H639.6z"/>
	<path class="st2" d="M658.1,110.4h3.2v2.8h-10.1v-2.8h3.9c-0.4-1.2-0.9-2.3-1.5-3.3l3-0.9C657.2,107.8,657.7,109.2,658.1,110.4z
		 M660.7,134.8h-5.8v1.5H652v-11.5h8.6v10H660.7z M660.3,115.4v2.7h-7.9v-2.7H660.3z M660.3,120v2.7h-7.9V120H660.3z M657.9,132.2
		v-4.8h-3v4.8H657.9z M665.8,126.3c-0.5,3.7-1.3,6.9-2.3,9.6l-2.5-1.6c1-2.6,1.7-5.5,2.2-8.6L665.8,126.3z M663.7,110.3v-2.8h15.9
		c-0.1,7.2-0.5,11.5-1.3,13c-0.9,1.4-2.3,2.1-4.4,2.1c-0.6,0-1.3-0.1-2-0.1l-0.8-2.7c0.9,0.1,1.6,0.1,2.2,0.2c1.4,0,2.3-0.6,2.7-1.6
		c0.3-1,0.6-3.7,0.6-8h-3.2c-0.6,2.6-1.4,4.8-2.5,6.8c-1.5,2.3-3.7,4.3-6.5,6.1l-1.9-2.5c2-1.1,3.7-2.4,4.9-3.8
		c-1.3-1.1-2.9-2.1-4.6-3.1l1.7-2.1c1.6,0.9,3.1,1.9,4.4,3c0.7-1.3,1.2-2.8,1.5-4.4L663.7,110.3L663.7,110.3z M669.5,136.3
		c-1.9,0-2.9-1.1-2.9-3.1v-8.3h2.9v7.7c0,0.6,0.3,0.9,0.9,0.9h3c0.4,0,0.7-0.2,0.9-0.5c0.2-0.4,0.4-1.5,0.5-3.3l2.7,0.9
		c-0.2,2.7-0.6,4.4-1.1,4.9c-0.6,0.5-1.4,0.8-2.4,0.8L669.5,136.3L669.5,136.3z M675.2,128.5l-2.4,1.1c-0.8-2-1.7-3.9-2.6-5.4
		l2.5-0.8C673.7,125,674.5,126.7,675.2,128.5z M681.7,133l-2.5,1.1c-0.9-3.2-1.8-6-2.9-8.4l2.6-0.9C680,127.4,680.9,130.1,681.7,133
		z"/>
	<path class="st2" d="M694,107.5c-0.7,2.2-1.7,4.4-2.8,6.5v22.9h-3.1v-18.1c-1.1,1.4-2.2,2.7-3.5,4.1l-1-3.3
		c3.4-3.9,5.9-8.4,7.5-13.5L694,107.5z M706.5,113.3v-6.8h3.1v6.8h4.6v3h-4.6v16.8c0,2.4-1.2,3.6-3.5,3.6h-4.9l-0.7-3.1
		c1.5,0.1,3.1,0.2,4.5,0.2c0.9,0,1.4-0.5,1.4-1.5v-16h-12.1v-3H706.5z M703.4,127l-2.7,1.8c-1.4-2.3-3.2-4.9-5.5-7.8l2.6-1.6
		C700.2,122.3,702.1,124.8,703.4,127z"/>
	<path class="st2" d="M722.2,128.1c-0.7,2.6-1.6,4.8-2.8,6.8l-2.3-1.5c1.3-1.8,2.1-3.7,2.6-5.8L722.2,128.1z M723.9,109.2v-2.8h3
		v2.8h5.8v2.7h-5.8v2.2h5v2.6h-13.6v-2.6h5.6v-2.2h-6.7v-2.7H723.9z M733,123.6v2.7h-6.4v10.5h-3v-10.5h-6.3v-2.7
		C717.3,123.6,733,123.6,733,123.6z M730.9,118.9v2.7h-11.5v-2.7H730.9z M732.4,132.2l-2.4,1.1c-0.6-1.9-1.3-3.6-2.1-5.1l2.5-0.8
		C731.2,128.9,731.9,130.4,732.4,132.2z M740.6,116.5c0,2.2-0.1,4.2-0.3,6c1.4,5,3.8,9,7.2,12l-2.1,2.4c-2.6-2.6-4.6-5.7-6-9.3
		c-1,3.8-3.3,6.9-6.9,9.4l-1.9-2.3c3.1-2.2,5.1-4.8,6-8c0.7-2.6,1.1-6.1,1.1-10.3h2.9V116.5z M738.3,107c-0.2,1.6-0.4,3-0.7,4.4h8.5
		v1.9c-0.4,2.8-1,5.5-1.6,8.3l-2.9-0.8c0.6-1.9,1.1-4.1,1.5-6.6H737c-0.8,2.7-1.7,4.9-2.9,6.5l-2.4-1.7c1.9-3,3.2-7.1,3.7-12.4
		L738.3,107z"/>
</g>
<circle class="st3" cx="682.1" cy="53.9" r="36.5"/>
<path class="st4" d="M687.5,52l-8.9-2.6c-1.3-0.4-2-1.7-1.6-3c0-0.1,0.1-0.3,0.2-0.4c0.4-0.8,1.3-1.3,2.2-1.3h5.4c1,0,2,0.3,2.8,0.9
	c0.5,0.3,1.2,0.3,1.6-0.2l2.9-2.8c0.5-0.5,0.5-1.4,0-1.9l-0.1-0.1c-2-1.6-4.5-2.5-7.1-2.5v-4c0-0.7-0.6-1.3-1.3-1.3H681
	c-0.7,0-1.3,0.6-1.3,1.3V38h-0.2c-5,0-9,4-9,9c0,0.3,0,0.5,0,0.8c0.5,3.8,3.2,6.9,6.9,7.9l8.4,2.5c1.3,0.4,2,1.7,1.6,3v0.1
	c-0.4,1-1.3,1.6-2.4,1.6h-5.3c-1,0-2-0.3-2.8-0.9c-0.5-0.3-1.2-0.2-1.6,0.2l-2.8,2.8c-0.5,0.5-0.5,1.4,0,1.9l0.1,0.1
	c2,1.6,4.5,2.4,7.1,2.5v3.9c0,0.7,0.6,1.3,1.3,1.3h2.6c0.7,0,1.3-0.6,1.3-1.3v-4c3.9,0,7.3-2.4,8.7-6c1.6-4.7-0.9-9.8-5.6-11.4l0,0
	H687.5z"/>
<circle class="st5" cx="988.5" cy="53.9" r="36.5"/>
<path class="st4" d="M988.5,30.6c-12.9,0-23.3,10.4-23.3,23.3s10.4,23.3,23.3,23.3s23.3-10.4,23.3-23.3S1001.4,30.6,988.5,30.6
	L988.5,30.6z M988.5,35.1c10.4,0,18.8,8.4,18.8,18.8s-8.4,18.8-18.8,18.8c-10.4,0-18.8-8.4-18.8-18.8S978.1,35.1,988.5,35.1
	L988.5,35.1L988.5,35.1 M1001.7,47.3l-2.1-2.1c-0.4-0.4-1.2-0.4-1.6,0l0,0l0,0l-13.3,13.2l-5.6-5.7c-0.4-0.4-1.1-0.4-1.6,0l0,0
	l-2.1,2.1c-0.4,0.4-0.4,1.1,0,1.6l0,0l8.5,8.6c0.4,0.4,1.1,0.4,1.6,0l0,0l16.2-16.1C1002.1,48.5,1002.1,47.8,1001.7,47.3
	L1001.7,47.3L1001.7,47.3z"/>
<ellipse class="st3" cx="375.8" cy="53.7" rx="36.5" ry="36.7"/>
<path class="st4" d="M392.8,35.2h-34.1c-2.2,0-4,1.8-4,4v29.1c0,2.2,1.8,4,4,4h34.1c2.2,0,4-1.8,4-4V39.2
	C396.7,37,395,35.2,392.8,35.2z M392.7,68.2h-33.4c-0.3,0-0.5-0.2-0.5-0.5l0,0v-28c0-0.3,0.2-0.5,0.5-0.5h33.4
	c0.3,0,0.5,0.2,0.5,0.5v28C393.2,68,392.9,68.2,392.7,68.2L392.7,68.2L392.7,68.2z M389.1,60.8v2c0,0.6-0.4,1-1,1h-16.4
	c-0.6,0-1-0.4-1-1v-2c0-0.6,0.4-1,1-1h16.4C388.7,59.8,389.2,60.2,389.1,60.8L389.1,60.8z M389.1,52.8v2c0,0.6-0.4,1-1,1h-16.4
	c-0.6,0-1-0.4-1-1v-2c0-0.6,0.4-1,1-1h16.4C388.7,51.8,389.2,52.2,389.1,52.8L389.1,52.8z M389.1,44.8v2c0,0.6-0.4,1-1,1h-16.4
	c-0.6,0-1-0.4-1-1v-2c0-0.6,0.4-1,1-1h16.4C388.7,43.7,389.1,44.2,389.1,44.8L389.1,44.8z M368.3,45.9c0,1.7-1.3,3-3,3s-3-1.3-3-3
	s1.3-3,3-3S368.3,44.2,368.3,45.9z M368.3,53.9c0,1.7-1.4,3-3,3c-1.7,0-3-1.4-3-3c0-1.7,1.4-3,3-3C367,50.9,368.3,52.2,368.3,53.9
	L368.3,53.9z M368.3,61.9c0,1.7-1.3,3-3,3s-3-1.3-3-3s1.3-3,3-3l0,0C366.9,58.9,368.3,60.2,368.3,61.9L368.3,61.9z"/>
<g class="st1">
	<path class="st2" d="M632.5-143.9v-2.2h3v2.2h7.9v2.7h-7.9v1.6h6.2v15.1h2.9v2.8H638c2.2,1.2,4.2,2.5,6.1,4.1l-1.9,2.2
		c-1.9-1.7-4.1-3.2-6.3-4.5l1.9-1.7h-7.7l2,1.7c-1.9,1.7-4.3,3.2-7.1,4.5l-1.8-2.3c2.7-1.1,4.9-2.4,6.7-3.9h-6.5v-2.3
		c-2.8,1.1-5.7,2-8.8,2.8l-0.8-3c1.3-0.2,2.5-0.5,3.8-0.8v-10.2h-3.4v-3h3.4v-7.7h3v7.7h3.1v3h-3.1v9.3c1-0.4,2-0.8,3-1.2v2.7h2.7
		v-15.1h6.1v-1.6h-7.9v-2.7h8V-143.9z M638.7-135.6v-1.5h-9.4v1.5H638.7z M638.7-131.9v-1.5h-9.4v1.5H638.7z M638.7-128.2v-1.5h-9.4
		v1.5H638.7z M638.7-124.4v-1.6h-9.4v1.6H638.7z"/>
	<path class="st2" d="M665.6-118.5c1.2,0.1,2.2,0.1,3.3,0.1c1.3,0,2.1-0.4,2.5-1.2c0.4-0.8,0.7-2.5,0.8-5.1h-17.9
		c-0.6,0.5-1.2,0.9-1.7,1.3l2.4,0.6c-0.6,2.4-1.3,4.6-2.1,6.5l-2.8-1c0.9-1.6,1.6-3.6,2.2-5.9c-0.9,0.6-1.7,1.1-2.6,1.5l-1.9-2.3
		c2.7-1.3,5.1-2.9,7.2-4.8h-3V-139c3.1-0.1,5.8-0.6,8.1-1.3l1.4,2.3c-1.6,0.5-3.8,1-6.7,1.4v1.5h6v2.4h-6v1.5h14.8v-1.5H664v-2.3
		h5.6v-1.6h-6.1v-2.4h8.9v10.5h-13.8c-0.5,0.5-0.9,1.1-1.3,1.5h18.1c-0.1,2.8-0.3,5.1-0.5,6.8c-0.3,1.7-0.8,2.9-1.4,3.6
		c-0.7,0.7-1.7,1-3.1,1.1h-4L665.6-118.5z M676.1-137.4h-2.9v-3.5h-22v3.6h-2.9v-6.3h12.1c-0.4-0.7-0.8-1.4-1.2-1.9l3.2-0.5
		c0.4,0.7,0.8,1.5,1.2,2.5h12.6L676.1-137.4L676.1-137.4z M660.5-117.5l-2.8,0.6c-0.3-2.2-0.6-4.1-1-5.7l2.6-0.6
		C659.7-121.4,660.1-119.6,660.5-117.5z M665.7-118.9l-2.7,0.7c-0.4-1.8-0.8-3.3-1.4-4.7l2.5-0.5C664.7-122,665.2-120.5,665.7-118.9
		z M670.6-120.2l-2.4,1c-0.5-1.5-1.1-2.8-1.6-3.9l2.3-1C669.5-122.9,670.1-121.6,670.6-120.2z"/>
	<path class="st2" d="M701.4-141c-0.1,0.5-0.3,0.9-0.4,1.3c2.3,2.2,5.3,3.5,8.9,3.9l-1.3,2.6c-0.9-0.1-1.7-0.3-2.5-0.6v13.5h-6.5
		c3.5,0.6,6.9,1.4,10.2,2.4l-1,2.5c-3.5-1.3-7.2-2.2-11-2.9l1-2h-7.6l1.4,1.7c-2.4,1.3-5.9,2.3-10.5,3.1l-1.4-2.4
		c4.2-0.7,7.5-1.5,9.8-2.4h-6.1v-13.6h7.9l-1.3-1.9c4.4-0.8,7-2.7,7.8-5.7L701.4-141z M690.1-138.4v2.7h-9.5v-2.7H690.1z
		 M689.4-144.4v2.6h-8.2v-2.6H689.4z M702.9-129.9v-1.5h-15.7v1.5H702.9z M702.9-126.4v-1.5h-15.7v1.5H702.9z M702.9-124.4h-15.7
		v1.6h15.7V-124.4z M691.6-138.2l-1.7-2.3c2.3-1.6,3.9-3.5,4.7-5.8l2.9,0.3c-0.2,0.5-0.4,1.1-0.6,1.5h11.6v2.2
		c-0.9,1.7-1.8,3.2-2.8,4.3l-2.1-1.7c0.6-0.7,1.2-1.4,1.7-2.2h-9.8C694.4-140.5,693.1-139.2,691.6-138.2z M705.7-133.9
		c-2.3-0.8-4.3-2-6-3.7c-1.4,1.7-3.4,3-6,3.7H705.7z"/>
	<path class="st2" d="M717.5-129.6c-0.7,3.4-1.5,6.5-2.4,9.1l-2.3-0.8c1-2.3,1.8-5.3,2.5-8.8L717.5-129.6z M717.6-136.5l-2.4,0.7
		c-0.5-2.3-1.1-4.6-1.8-6.7l2.6-0.8C716.6-141.4,717.1-139.1,717.6-136.5z M718.5-134.7v-11.4h3v11.4h4.5v3h-4.5v16h-3v-16h-4.8v-3
		H718.5z M726.1-143.4c-0.2,2.7-0.6,5.2-1.4,7.3l-2.3-0.7c0.6-2,0.9-4.3,1.1-6.9L726.1-143.4z M726.6-122.6l-2.4,0.6
		c-0.4-2.7-1-5.2-1.5-7.7l2-0.7C725.4-128.1,726-125.5,726.6-122.6z M740.1-146v18.5l2.8-0.4l0.5,3l-3.3,0.5v8.7h-3v-8.3l-9.6,1.5
		l-0.5-3l10.1-1.5v-19H740.1z M735.2-130.9l-2.1,2.1c-1.3-1.6-3.1-3.4-5.5-5.2l2-1.9C731.8-134.2,733.7-132.5,735.2-130.9z
		 M736.1-138.9l-2,2c-1.4-1.5-3.2-3.1-5.7-4.9l2-2C732.7-142.1,734.6-140.5,736.1-138.9z"/>
</g>
<line class="st6" x1="374" y1="-151.6" x2="993" y2="-151.6"/>
<g class="st1">
	<path class="st2" d="M334.1-96.9v-2.2h3v2.2h7.9v2.7h-7.9v1.6h6.2v15.1h2.9v2.8h-6.5c2.2,1.2,4.2,2.5,6.1,4.1l-1.9,2.2
		c-1.9-1.7-4.1-3.2-6.3-4.5l1.9-1.7h-7.7l2,1.7c-1.9,1.7-4.3,3.2-7.1,4.5l-1.8-2.3c2.7-1.1,4.9-2.4,6.7-3.9h-6.5V-77
		c-2.8,1.1-5.7,2-8.8,2.8l-0.8-3c1.3-0.2,2.5-0.5,3.8-0.8v-10.2h-3.4v-3h3.4v-7.7h3v7.7h3.1v3h-3.1v9.3c1-0.4,2-0.8,3-1.2v2.7h2.7
		v-15.1h6.1v-1.6h-7.9v-2.7h7.9V-96.9z M340.4-88.6v-1.5H331v1.5H340.4z M340.4-84.9v-1.5H331v1.5H340.4z M340.4-81.2v-1.5H331v1.5
		H340.4z M340.4-77.4V-79H331v1.6H340.4z"/>
	<path class="st2" d="M367.3-71.5c1.2,0.1,2.2,0.1,3.3,0.1c1.3,0,2.1-0.4,2.5-1.2c0.4-0.8,0.7-2.5,0.8-5.1H356
		c-0.6,0.5-1.2,0.9-1.7,1.3l2.4,0.6c-0.6,2.4-1.3,4.6-2.1,6.5l-2.8-1c0.9-1.6,1.6-3.6,2.2-5.9c-0.9,0.6-1.7,1.1-2.6,1.5l-1.9-2.3
		c2.7-1.3,5.1-2.9,7.2-4.8h-3v-10.3c3.1-0.1,5.8-0.6,8.1-1.3l1.4,2.3c-1.6,0.5-3.8,1-6.7,1.4v1.5h6v2.4h-6v1.5h14.8v-1.5h-5.6v-2.3
		h5.6v-1.6H365v-2.4h8.9v10.5h-13.8c-0.5,0.5-0.9,1.1-1.3,1.5h18.1c-0.1,2.8-0.3,5.1-0.5,6.8c-0.3,1.7-0.8,2.9-1.4,3.6
		c-0.7,0.7-1.7,1-3.1,1.1h-4L367.3-71.5z M377.7-90.4h-2.9V-94h-22v3.6h-2.9v-6.3H362c-0.4-0.7-0.8-1.4-1.2-1.9l3.2-0.5
		c0.4,0.7,0.8,1.5,1.2,2.5h12.6v6.2H377.7z M362.2-70.5l-2.8,0.6c-0.3-2.2-0.6-4.1-1-5.7l2.6-0.6C361.4-74.4,361.8-72.6,362.2-70.5z
		 M367.3-71.9l-2.7,0.7c-0.4-1.8-0.8-3.3-1.4-4.7l2.5-0.5C366.3-75,366.9-73.5,367.3-71.9z M372.2-73.3l-2.4,1
		c-0.5-1.5-1.1-2.8-1.6-3.9l2.3-1C371.2-75.9,371.7-74.6,372.2-73.3z"/>
	<path class="st2" d="M403-94c-0.1,0.5-0.3,0.9-0.4,1.3c2.3,2.2,5.3,3.5,8.9,3.9l-1.3,2.6c-0.9-0.1-1.7-0.3-2.5-0.6v13.5h-6.5
		c3.5,0.6,6.9,1.4,10.2,2.4l-1,2.5c-3.5-1.3-7.2-2.2-11-2.9l1-2h-7.6l1.4,1.7c-2.4,1.3-5.9,2.3-10.5,3.1l-1.4-2.4
		c4.2-0.7,7.5-1.5,9.8-2.4H386v-13.6h7.9l-1.3-1.9c4.4-0.8,7-2.7,7.8-5.7L403-94z M391.7-91.4v2.7h-9.5v-2.7H391.7z M391-97.4v2.6
		h-8.2v-2.6H391z M404.6-83v-1.5h-15.7v1.5H404.6z M404.6-79.4v-1.5h-15.7v1.5H404.6z M404.6-77.4h-15.7v1.6h15.7V-77.4z
		 M393.3-91.2l-1.7-2.3c2.3-1.6,3.9-3.5,4.7-5.8l2.9,0.3c-0.2,0.5-0.4,1.1-0.6,1.5h11.6v2.2c-0.9,1.7-1.8,3.2-2.8,4.3l-2.1-1.7
		c0.6-0.7,1.2-1.4,1.7-2.2h-10C396-93.5,394.8-92.3,393.3-91.2z M407.4-86.9c-2.3-0.8-4.3-2-6-3.7c-1.4,1.7-3.4,3-6,3.7H407.4z"/>
	<path class="st2" d="M419.2-82.6c-0.7,3.4-1.5,6.5-2.4,9.1l-2.3-0.8c1-2.3,1.8-5.3,2.5-8.8L419.2-82.6z M419.3-89.5l-2.4,0.7
		c-0.5-2.3-1.1-4.6-1.8-6.7l2.6-0.8C418.2-94.4,418.8-92.1,419.3-89.5z M420.2-87.7v-11.4h3v11.4h4.5v3h-4.5v16h-3v-16h-4.8v-3
		H420.2z M427.8-96.4c-0.2,2.7-0.6,5.2-1.4,7.3l-2.3-0.7c0.6-2,0.9-4.3,1.1-6.9L427.8-96.4z M428.2-75.6l-2.4,0.6
		c-0.4-2.7-1-5.2-1.5-7.7l2-0.7C427-81.1,427.7-78.5,428.2-75.6z M441.7-99v18.5l2.8-0.4l0.5,3l-3.3,0.5v8.7h-3V-77l-9.6,1.5l-0.5-3
		l10.1-1.5v-19H441.7z M436.8-83.9l-2.1,2.1c-1.3-1.6-3.1-3.4-5.5-5.2l2-1.9C433.4-87.2,435.3-85.6,436.8-83.9z M437.8-91.9l-2,2
		c-1.4-1.5-3.2-3.1-5.7-4.9l2-2C434.3-95.1,436.2-93.5,437.8-91.9z"/>
</g>
<g>
	<g>
		<path class="st2" d="M633.7-97.5v3h-4.3c-0.4,2.4-1,4.6-1.7,6.7h5.6v6.9c3.1-3.3,5.4-7.4,7-12.3h-3v4.2h-2.9v-7h6.7
			c0.3-1.1,0.5-2.2,0.8-3.3l2.9,0.5c-0.2,1-0.4,1.9-0.6,2.8h8.2v6.3h-2.9v-3.6h-6.1c-0.6,1.8-1.2,3.5-1.9,5.1h3
			c-0.3-1.1-0.7-2-1.1-3l2.7-0.7c0.5,1.4,0.9,2.6,1.2,3.8h4.6v2.7h-4.8v2.4h4.2v2.7h-4.2v2.5h4.4v2.7h-4.4v2.7h5.7v2.8h-13.1v1h-2.9
			v-11.8c-0.6,0.7-1.1,1.3-1.7,1.9l-1.6-2v10.4h-2.8v-1.6H628v1.9h-2.7V-82c-0.5,0.8-0.9,1.5-1.4,2.2l-1.6-2.6
			c2.1-3.6,3.5-7.6,4.3-12.1h-3.1v-3H633.7z M630.6-74.5V-85h-2.7v10.5H630.6z M644.1-85.4h-4c-0.2,0.3-0.4,0.6-0.5,1v1.5h4.5V-85.4
			z M644.1-80.3h-4.5v2.5h4.5V-80.3z M644.1-72.4v-2.7h-4.5v2.7H644.1z"/>
		<path class="st2" d="M662.6-95.1h3.2v2.8h-10.1v-2.8h3.9c-0.4-1.2-0.9-2.3-1.5-3.3l3-0.9C661.8-97.8,662.2-96.3,662.6-95.1z
			 M665.2-70.7h-5.8v1.5h-2.8v-11.5h8.6V-70.7z M664.8-90.1v2.7h-7.9v-2.7H664.8z M664.8-85.5v2.7h-7.9v-2.7H664.8z M662.4-73.3
			v-4.8h-3v4.8H662.4z M670.3-79.2c-0.5,3.7-1.3,6.9-2.3,9.6l-2.5-1.6c1-2.6,1.7-5.5,2.2-8.6L670.3-79.2z M668.3-95.2V-98h15.9
			c-0.1,7.2-0.5,11.5-1.3,13c-0.9,1.4-2.3,2.1-4.4,2.1c-0.6,0-1.3-0.1-2-0.1l-0.8-2.7c0.9,0.1,1.6,0.1,2.2,0.2
			c1.4,0,2.3-0.6,2.7-1.6c0.3-1,0.6-3.7,0.6-8H678c-0.6,2.6-1.4,4.8-2.5,6.8c-1.5,2.3-3.7,4.3-6.5,6.1l-1.9-2.5
			c2-1.1,3.7-2.4,4.9-3.8c-1.3-1.1-2.9-2.1-4.6-3.1l1.7-2.1c1.6,0.9,3.1,1.9,4.4,3c0.7-1.3,1.2-2.8,1.5-4.4L668.3-95.2L668.3-95.2z
			 M674.1-69.2c-1.9,0-2.9-1.1-2.9-3.1v-8.3h2.9v7.7c0,0.6,0.3,0.9,0.9,0.9h3c0.4,0,0.7-0.2,0.9-0.5c0.2-0.4,0.4-1.5,0.5-3.3
			l2.7,0.9c-0.2,2.7-0.6,4.4-1.1,4.9c-0.6,0.5-1.4,0.8-2.4,0.8H674.1z M679.8-77l-2.4,1.1c-0.8-2-1.7-3.9-2.6-5.4l2.5-0.8
			C678.2-80.5,679.1-78.8,679.8-77z M686.2-72.5l-2.5,1.1c-0.9-3.2-1.8-6-2.9-8.4l2.6-0.9C684.5-78.1,685.4-75.4,686.2-72.5z"/>
		<path class="st2" d="M698.6-98c-0.7,2.2-1.7,4.4-2.8,6.5v22.9h-3.1v-18.1c-1.1,1.4-2.2,2.7-3.5,4.1l-1-3.3
			c3.4-3.9,5.9-8.4,7.5-13.5L698.6-98z M711-92.2V-99h3.1v6.8h4.6v3h-4.6v16.8c0,2.4-1.2,3.6-3.5,3.6h-4.9l-0.7-3.1
			c1.5,0.1,3.1,0.2,4.5,0.2c0.9,0,1.4-0.5,1.4-1.5v-16h-12.1v-3H711z M708-78.5l-2.7,1.8c-1.4-2.3-3.2-4.9-5.5-7.8l2.6-1.6
			C704.8-83.2,706.7-80.7,708-78.5z"/>
		<path class="st2" d="M726.7-77.4c-0.7,2.6-1.6,4.8-2.8,6.8l-2.3-1.5c1.3-1.8,2.1-3.7,2.6-5.8L726.7-77.4z M728.4-96.3v-2.8h3v2.8
			h5.8v2.7h-5.8v2.2h5v2.6h-13.6v-2.6h5.6v-2.2h-6.7v-2.7H728.4z M737.6-81.9v2.7h-6.4v10.5h-3v-10.5h-6.3v-2.7H737.6z M735.4-86.6
			v2.7h-11.5v-2.7H735.4z M737-73.4l-2.4,1.1c-0.6-1.9-1.3-3.6-2.1-5.1l2.5-0.8C735.7-76.7,736.4-75.1,737-73.4z M745.1-89
			c0,2.2-0.1,4.2-0.3,6c1.4,5,3.8,9,7.2,12l-2.1,2.4c-2.6-2.6-4.6-5.7-6-9.3c-1,3.8-3.3,6.9-6.9,9.4l-1.9-2.3c3.1-2.2,5.1-4.8,6-8
			c0.7-2.6,1.1-6.1,1.1-10.3h2.9V-89z M742.9-98.5c-0.2,1.6-0.4,3-0.7,4.4h8.5v1.9c-0.4,2.8-1,5.5-1.6,8.3l-2.9-0.8
			c0.6-1.9,1.1-4.1,1.5-6.6h-6.2c-0.8,2.7-1.7,4.9-2.9,6.5l-2.4-1.7c1.9-3,3.2-7.1,3.7-12.4L742.9-98.5z"/>
	</g>
</g>
<g>
	<g>
		<path class="st2" d="M959.5-83.5v3h-9v6.9c0,1,0.4,1.5,1.3,1.5h4.2c0.4,0,0.7-0.2,0.9-0.7s0.3-1.8,0.4-4.2l3,0.9
			c-0.3,3.3-0.7,5.3-1.2,5.9s-1.4,0.9-2.5,0.9h-5.7c-2.3,0-3.4-1.3-3.4-3.8v-7.6h-4.9v0.1c-0.1,3.2-1.1,5.8-2.7,7.8
			c-1.6,1.8-4.3,3.2-7.9,4.2l-1.8-2.8c3.5-0.9,5.9-2,7.3-3.4c1.2-1.5,1.9-3.4,2-5.7v-0.1h-8.7v-3L959.5-83.5L959.5-83.5z M959.2-88
			H956v-4.7h-22v4.7h-3.2v-7.8h12.3c-0.3-1-0.7-1.9-1.1-2.7l3.5-0.6c0.4,1,0.8,2,1.1,3.3h12.6L959.2-88L959.2-88z M954.3-89.6v3
			h-18.7v-3H954.3z"/>
		<path class="st2" d="M990.3-95.8l-1.5,1.5h4v3H983c0.2,3.9,0.6,6.9,1.2,9.1c0.1,0.6,0.3,1.1,0.5,1.6c1.4-2.4,2.5-5.2,3.5-8.3
			l2.9,1.2c-1.3,4.2-3,7.8-5,10.8c0.4,0.8,0.7,1.5,1.1,2c1,1.5,1.8,2.2,2.3,2.2c0.4,0,0.9-1.6,1.3-4.8l2.8,1.5
			c-0.8,4.6-2,6.9-3.6,6.9c-1.5,0-3-1-4.6-2.9c-0.5-0.7-1-1.4-1.4-2.2c-2.2,2.5-4.8,4.4-7.7,5.6l-1.8-2.6c3.2-1.4,5.8-3.5,8-6.2
			c-0.5-1.2-0.9-2.5-1.2-3.9c-0.7-2.7-1.2-6-1.4-10h-10.6v4.8h8.1c-0.1,6-0.4,9.7-0.9,11.3c-0.5,1.4-1.6,2.1-3.4,2.1
			c-0.8,0-1.7-0.1-2.7-0.2l-1-2.8c1.3,0.1,2.4,0.1,3.3,0.1c0.6,0,1-0.4,1.2-1.1c0.2-0.9,0.3-3,0.4-6.5h-5v0.2
			c-0.1,6.1-1.5,11-4,14.7l-2.4-2.1c2-3,3.1-7.2,3.2-12.6v-11h13.6c-0.1-1.5-0.1-3.2-0.1-4.8h3.2c0,1.7,0.1,3.3,0.1,4.8h5.1
			c-0.9-1-2-2-3.4-3.1l2-1.9C987.9-98.2,989.2-97,990.3-95.8z"/>
		<path class="st2" d="M1001.7-91.3c1.1-1.2,2-2.5,2.9-3.9h-7.8V-98h11v2.4c-1.4,2.4-2.8,4.5-4.4,6.2c0.5,0.6,0.9,1.1,1.3,1.6h4.4
			v1.9c-0.5,2.6-1.1,4.6-1.7,6l-2.5-1c0.5-1.2,1-2.5,1.4-4.1h-2.9v13.1c0,2-1,3-2.8,3h-3.2l-0.6-2.8c1,0.1,1.9,0.2,2.8,0.2
			c0.5,0,0.8-0.4,0.8-1.1v-12.3h-4.6v-2.9h5.6c-1.2-1.4-2.6-2.9-4.3-4.5l2.3-1.5C1000.1-92.8,1000.9-92,1001.7-91.3z M1015.2-93
			c0.3-0.7,0.5-1.5,0.7-2.2h-6.6V-98h16.5v2.8h-6.8c-0.2,0.8-0.4,1.5-0.7,2.2h6.3v18h-3.8c2.2,1.4,4.1,2.7,5.6,4.1l-2,2
			c-1.3-1.4-3.1-2.8-5.5-4.4l1.8-1.7h-6.2l2,1.7c-1.7,1.7-3.9,3.3-6.4,4.6l-1.7-2.2c2.4-1.2,4.5-2.5,6.1-4.1h-3.9v-18H1015.2z
			 M1021.7-87.9v-2.6h-8.2v2.6H1021.7z M1021.7-82.8v-2.7h-8.2v2.7H1021.7z M1021.7-80.3h-8.2v2.8h8.2V-80.3z"/>
		<path class="st2" d="M1053.8-89.5v3h-8.1v4.9h9.5v3h-9.5v6.1c2.2,0.3,5,0.5,8.3,0.5c1.6,0,3.4-0.1,5.1-0.2l-0.6,3.1h-3.1
			c-6.9,0-11.9-0.6-14.9-1.9c-2.1-1-3.8-2.4-5.1-4.4c-1.3,2.6-2.8,4.9-4.6,6.7l-2-2.5c3.1-3.2,5.2-7.6,6.3-13l3,0.5
			c-0.4,1.9-0.9,3.7-1.5,5.4c1.5,2.6,3.5,4.3,5.8,5l0.3,0.1v-13.3h-8.4v-3C1034.3-89.5,1053.8-89.5,1053.8-89.5z M1057.8-88.5h-3.1
			v-4.6h-21.5v4.7h-3.1V-96h12.4c-0.5-1.1-1-2-1.5-2.9l3.4-0.5c0.5,1,0.9,2.1,1.4,3.4h12L1057.8-88.5L1057.8-88.5z"/>
	</g>
</g>
<circle class="st3" cx="686.7" cy="-151.6" r="36.5"/>
<path class="st4" d="M692-153.5l-8.9-2.6c-1.3-0.4-2-1.7-1.6-3c0-0.1,0.1-0.3,0.2-0.4c0.4-0.8,1.3-1.3,2.2-1.3h5.4
	c1,0,2,0.3,2.8,0.9c0.5,0.3,1.2,0.3,1.6-0.2l2.9-2.8c0.5-0.5,0.5-1.4,0-1.9l-0.1-0.1c-2-1.6-4.5-2.5-7.1-2.5v-3.9
	c0-0.7-0.6-1.3-1.3-1.3h-2.6c-0.7,0-1.3,0.6-1.3,1.3v3.9H684c-5,0-9,4.1-9,9c0,0.3,0,0.5,0,0.8c0.5,3.8,3.2,6.9,6.9,7.9l8.4,2.5
	c1.3,0.4,2,1.8,1.6,3v0.1c-0.4,1-1.3,1.6-2.4,1.6h-5.3c-1,0-2-0.3-2.8-0.9c-0.5-0.3-1.2-0.3-1.6,0.2l-2.8,2.8
	c-0.5,0.5-0.5,1.4,0,1.9l0.1,0.1c2,1.6,4.5,2.4,7.1,2.5v3.9c0,0.7,0.6,1.3,1.3,1.3h2.6c0.7,0,1.3-0.6,1.3-1.3v-4
	c3.9,0,7.3-2.4,8.7-6c1.6-4.7-0.9-9.8-5.6-11.4C692.3-153.4,692.1-153.5,692-153.5z"/>
<circle class="st3" cx="993" cy="-151.6" r="36.5"/>
<path class="st4" d="M993-174.9c-12.9,0-23.3,10.4-23.3,23.3s10.4,23.3,23.3,23.3s23.3-10.4,23.3-23.3S1005.9-174.9,993-174.9
	L993-174.9z M993-170.4c10.4,0,18.8,8.4,18.8,18.8s-8.4,18.8-18.8,18.8s-18.8-8.4-18.8-18.8C974.3-162,982.7-170.4,993-170.4
	L993-170.4 M1006.2-158.2l-2.1-2.1c-0.4-0.4-1.2-0.4-1.6,0l0,0l-13.3,13.2l-5.6-5.7c-0.4-0.4-1.1-0.4-1.6,0l0,0l-2.1,2.1
	c-0.4,0.4-0.4,1.1,0,1.6l0,0l8.5,8.6c0.4,0.4,1.1,0.4,1.6,0l16.2-16.1C1006.6-157,1006.6-157.7,1006.2-158.2L1006.2-158.2
	L1006.2-158.2z"/>
<ellipse class="st5" cx="380.3" cy="-151.8" rx="36.5" ry="36.7"/>
<path class="st4" d="M397.3-170.3h-34.1c-2.2,0-4,1.8-4,4v29.1c0,2.2,1.8,4,4,4h34.1c2.2,0,4-1.8,4-4v-29.1
	C401.3-168.5,399.5-170.3,397.3-170.3z M397.2-137.3h-33.4c-0.3,0-0.5-0.2-0.5-0.5l0,0v-28c0-0.3,0.2-0.5,0.5-0.5h33.4
	c0.3,0,0.5,0.2,0.5,0.5v28C397.7-137.5,397.5-137.3,397.2-137.3L397.2-137.3L397.2-137.3z M393.7-144.8v2c0,0.6-0.4,1-1,1h-16.4
	c-0.6,0-1-0.4-1-1v-2c0-0.6,0.4-1,1-1h16.4C393.3-145.8,393.7-145.3,393.7-144.8L393.7-144.8z M393.7-152.8v2c0,0.6-0.4,1-1,1h-16.4
	c-0.6,0-1-0.4-1-1v-2c0-0.6,0.4-1,1-1h16.4C393.2-153.8,393.7-153.3,393.7-152.8L393.7-152.8z M393.7-160.8v2c0,0.6-0.4,1-1,1h-16.4
	c-0.6,0-1-0.4-1-1v-2c0-0.6,0.4-1,1-1h16.4C393.2-161.8,393.7-161.4,393.7-160.8L393.7-160.8z M372.9-159.7c0,1.7-1.3,3-3,3
	s-3-1.3-3-3s1.3-3,3-3C371.5-162.7,372.8-161.4,372.9-159.7L372.9-159.7z M372.9-151.7c0,1.7-1.3,3-3,3s-3-1.3-3-3s1.3-3,3-3
	C371.5-154.7,372.8-153.4,372.9-151.7L372.9-151.7z M372.9-143.7c0,1.7-1.3,3-3,3s-3-1.3-3-3s1.3-3,3-3l0,0c1.6,0,2.9,1.3,3,2.9
	V-143.7z"/>
<g>
	<path class="st2" d="M951.4,121v3h-9v6.9c0,1,0.4,1.5,1.3,1.5h4.2c0.4,0,0.7-0.2,0.9-0.7c0.2-0.5,0.3-1.8,0.4-4.2l3,0.9
		c-0.3,3.3-0.7,5.3-1.2,5.9c-0.5,0.6-1.4,0.9-2.5,0.9h-5.7c-2.3,0-3.4-1.3-3.4-3.8V124h-4.9v0.1c-0.1,3.2-1.1,5.8-2.7,7.8
		c-1.6,1.8-4.3,3.2-7.9,4.2l-1.8-2.8c3.5-0.9,5.9-2,7.3-3.4c1.2-1.5,1.9-3.4,2-5.7V124h-8.7v-3H951.4z M951.1,116.4h-3.2v-4.7h-22
		v4.7h-3.2v-7.8H935c-0.3-1-0.7-1.9-1.1-2.7l3.5-0.6c0.4,1,0.8,2,1.1,3.3h12.6V116.4z M946.2,114.8v3h-18.7v-3H946.2z"/>
	<path class="st2" d="M982.2,108.6l-1.5,1.5h4v3h-9.8c0.2,3.9,0.6,6.9,1.2,9.1c0.1,0.6,0.3,1.1,0.5,1.6c1.4-2.4,2.5-5.2,3.5-8.3
		l2.9,1.2c-1.3,4.2-3,7.8-5,10.8c0.4,0.8,0.7,1.5,1.1,2c1,1.5,1.8,2.2,2.3,2.2c0.4,0,0.9-1.6,1.3-4.8l2.8,1.5
		c-0.8,4.6-2,6.9-3.6,6.9c-1.5,0-3-1-4.6-2.9c-0.5-0.7-1-1.4-1.4-2.2c-2.2,2.5-4.8,4.4-7.7,5.6l-1.8-2.6c3.2-1.4,5.8-3.5,8-6.2
		c-0.5-1.2-0.9-2.5-1.2-3.9c-0.7-2.7-1.2-6-1.4-10H961v4.8h8.1c-0.1,6-0.4,9.7-0.9,11.3c-0.5,1.4-1.6,2.1-3.4,2.1
		c-0.8,0-1.7-0.1-2.7-0.2l-1-2.8c1.3,0.1,2.4,0.1,3.3,0.1c0.6,0,1-0.4,1.2-1.1c0.2-0.9,0.3-3,0.4-6.5h-5v0.2c-0.1,6.1-1.5,11-4,14.7
		l-2.4-2.1c2-3,3.1-7.2,3.2-12.6v-11h13.6c-0.1-1.5-0.1-3.2-0.1-4.8h3.2c0,1.7,0.1,3.3,0.1,4.8h5.1c-0.9-1-2-2-3.4-3.1l2-1.9
		C979.9,106.3,981.1,107.5,982.2,108.6z"/>
	<path class="st2" d="M993.6,113.2c1.1-1.2,2-2.5,2.9-3.9h-7.8v-2.8h11v2.4c-1.4,2.4-2.8,4.5-4.4,6.2c0.5,0.6,0.9,1.1,1.3,1.6h4.4
		v1.9c-0.5,2.6-1.1,4.6-1.7,6l-2.5-1c0.5-1.2,1-2.5,1.4-4.1h-2.9v13.1c0,2-1,3-2.8,3h-3.2l-0.6-2.8c1,0.1,1.9,0.2,2.8,0.2
		c0.5,0,0.8-0.4,0.8-1.1v-12.3h-4.6v-2.9h5.6c-1.2-1.4-2.6-2.9-4.3-4.5l2.3-1.5C992.1,111.6,992.8,112.4,993.6,113.2z M1007.2,111.5
		c0.3-0.7,0.5-1.5,0.7-2.2h-6.6v-2.8h16.5v2.8h-6.8c-0.2,0.8-0.4,1.5-0.7,2.2h6.3v18h-3.8c2.2,1.4,4.1,2.7,5.6,4.1l-2,2
		c-1.3-1.4-3.1-2.8-5.5-4.4l1.8-1.7h-6.2l2,1.7c-1.7,1.7-3.9,3.3-6.4,4.6l-1.7-2.2c2.4-1.2,4.5-2.5,6.1-4.1h-3.9v-18H1007.2z
		 M1013.6,116.6V114h-8.2v2.6H1013.6z M1013.6,121.7V119h-8.2v2.7H1013.6z M1013.6,124.1h-8.2v2.8h8.2V124.1z"/>
	<path class="st2" d="M1025.9,109.3c-0.5-1.1-1-2.2-1.5-3.2l3-0.8c0.7,1.5,1.2,2.8,1.5,4.1h4.3v2.9h-12.1v-2.9H1025.9z
		 M1024.9,135.9h-3v-12.2h10.4v11.6h-3v-1.4h-4.4V135.9z M1031.9,114.3v2.7h-9.8v-2.7H1031.9z M1031.9,118.8v2.8h-9.8v-2.8H1031.9z
		 M1029.2,126.6h-4.4v4.5h4.4V126.6z M1050.9,107.3v2.9h-5.9v21.4c0,2.5-1.1,3.8-3.3,3.8h-4.8l-0.7-3c1.5,0.1,3,0.2,4.4,0.2
		c0.9,0,1.3-0.6,1.3-1.7v-20.7h-8v-2.9H1050.9z"/>
</g>
</svg>
