<?xml version="1.0" encoding="utf-8"?>
<!-- Generator: Adobe Illustrator 25.0.0, SVG Export Plug-In . SVG Version: 6.00 Build 0)  -->
<svg version="1.1" id="圖層_1" xmlns="http://www.w3.org/2000/svg" xmlns:xlink="http://www.w3.org/1999/xlink" x="0px" y="0px"
	 viewBox="0 0 1366 154" style="enable-background:new 0 0 1366 154;" xml:space="preserve">
<style type="text/css">
	.st0{fill:none;stroke:#B4D2D9;stroke-width:8;stroke-miterlimit:10;}
	.st1{enable-background:new    ;}
	.st2{fill:#3C7275;}
	.st3{fill:#3C7275;stroke:#73DDDD;stroke-width:6;stroke-miterlimit:10;}
	.st4{fill:#FFFFFF;}
	.st5{fill:#95ACAF;stroke:#7F9293;stroke-width:4;stroke-miterlimit:10;}
	.st6{fill:none;stroke:#A5BFC4;stroke-width:8;stroke-miterlimit:10;}
</style>
<line class="st0" x1="369.5" y1="53.9" x2="988.5" y2="53.9"/>
<g>
	<g class="st1">
		<path class="st2" d="M329.6,108.6v-2.2h3v2.2h7.9v2.7h-7.9v1.6h6.2V128h2.9v2.8h-6.5c2.2,1.2,4.2,2.5,6.1,4.1l-1.9,2.2
			c-1.9-1.7-4.1-3.2-6.3-4.5l1.9-1.7h-7.7l2,1.7c-1.9,1.7-4.3,3.2-7.1,4.5l-1.8-2.3c2.7-1.1,4.9-2.4,6.7-3.9h-6.5v-2.3
			c-2.8,1.1-5.7,2-8.8,2.8l-0.8-3c1.3-0.2,2.5-0.5,3.8-0.8v-10.2h-3.4v-3h3.4v-7.7h3v7.7h3.1v3h-3.1v9.3c1-0.4,2-0.8,3-1.2v2.7h2.7
			V113h6.1v-1.6h-7.9v-2.7h7.9V108.6z M335.8,116.9v-1.5h-9.4v1.5H335.8z M335.8,120.6v-1.5h-9.4v1.5H335.8z M335.8,124.3v-1.5h-9.4
			v1.5H335.8z M335.8,128.1v-1.6h-9.4v1.6H335.8z"/>
		<path class="st2" d="M362.7,134c1.2,0.1,2.2,0.1,3.3,0.1c1.3,0,2.1-0.4,2.5-1.2s0.7-2.5,0.8-5.1h-17.9c-0.6,0.5-1.2,0.9-1.7,1.3
			l2.4,0.6c-0.6,2.4-1.3,4.6-2.1,6.5l-2.8-1c0.9-1.6,1.6-3.6,2.2-5.9c-0.9,0.6-1.7,1.1-2.6,1.5l-1.9-2.3c2.7-1.3,5.1-2.9,7.2-4.8h-3
			v-10.3c3.1-0.1,5.8-0.6,8.1-1.3l1.4,2.3c-1.6,0.5-3.8,1-6.7,1.4v1.5h6v2.4h-6v1.5h14.8v-1.5H361v-2.3h5.6v-1.6h-6.1v-2.4h8.9v10.5
			h-13.8c-0.5,0.5-0.9,1.1-1.3,1.5h18.1c-0.1,2.8-0.3,5.1-0.5,6.8c-0.3,1.7-0.8,2.9-1.4,3.6c-0.7,0.7-1.7,1-3.1,1.1h-4L362.7,134z
			 M373.2,115.1h-2.9v-3.5h-22v3.6h-2.9v-6.3h12.1c-0.4-0.7-0.8-1.4-1.2-1.9l3.2-0.5c0.4,0.7,0.8,1.5,1.2,2.5h12.6v6.1H373.2z
			 M357.6,135l-2.8,0.6c-0.3-2.2-0.6-4.1-1-5.7l2.6-0.6C356.8,131.1,357.2,132.9,357.6,135z M362.8,133.6l-2.7,0.7
			c-0.4-1.8-0.8-3.3-1.4-4.7l2.5-0.5C361.8,130.5,362.3,132,362.8,133.6z M367.7,132.2l-2.4,1c-0.5-1.5-1.1-2.8-1.6-3.9l2.3-1
			C366.6,129.6,367.2,130.9,367.7,132.2z"/>
		<path class="st2" d="M398.5,111.5c-0.1,0.5-0.3,0.9-0.4,1.3c2.3,2.2,5.3,3.5,8.9,3.9l-1.3,2.6c-0.9-0.1-1.7-0.3-2.5-0.6v13.5h-6.5
			c3.5,0.6,6.9,1.4,10.2,2.4l-1,2.5c-3.5-1.3-7.2-2.2-11-2.9l1-2h-7.6l1.4,1.7c-2.4,1.3-5.9,2.3-10.5,3.1l-1.4-2.4
			c4.2-0.7,7.5-1.5,9.8-2.4h-6.1v-13.6h7.9l-1.3-1.9c4.4-0.8,7-2.7,7.8-5.7L398.5,111.5z M387.2,114.1v2.7h-9.5v-2.7H387.2z
			 M386.5,108.1v2.6h-8.2v-2.6H386.5z M400,122.6V121h-15.7v1.5L400,122.6L400,122.6z M400,126.1v-1.5h-15.7v1.5H400z M400,128.1
			h-15.7v1.6H400V128.1z M388.7,114.3L387,112c2.3-1.6,3.9-3.5,4.7-5.8l2.9,0.3c-0.2,0.5-0.4,1.1-0.6,1.5h11.6v2.2
			c-0.9,1.7-1.8,3.2-2.8,4.3l-2.1-1.7c0.6-0.7,1.2-1.4,1.7-2.2h-9.8C391.5,112,390.2,113.3,388.7,114.3z M402.8,118.6
			c-2.3-0.8-4.3-2-6-3.7c-1.4,1.7-3.4,3-6,3.7H402.8z"/>
		<path class="st2" d="M414.6,122.9c-0.7,3.4-1.5,6.5-2.4,9.1l-2.3-0.8c1-2.3,1.8-5.3,2.5-8.8L414.6,122.9z M414.7,116l-2.4,0.7
			c-0.5-2.3-1.1-4.6-1.8-6.7l2.6-0.8C413.6,111.1,414.2,113.4,414.7,116z M415.6,117.8v-11.4h3v11.4h4.5v3h-4.5v16h-3v-16h-4.8v-3
			H415.6z M423.2,109.1c-0.2,2.7-0.6,5.2-1.4,7.3l-2.3-0.7c0.6-2,0.9-4.3,1.1-6.9L423.2,109.1z M423.7,129.9l-2.4,0.6
			c-0.4-2.7-1-5.2-1.5-7.7l2-0.7C422.5,124.4,423.1,127,423.7,129.9z M437.2,106.5V125l2.8-0.4l0.5,3l-3.3,0.5v8.7h-3v-8.3l-9.6,1.5
			l-0.5-3l10.1-1.5v-19H437.2z M432.3,121.6l-2.1,2.1c-1.3-1.6-3.1-3.4-5.5-5.2l2-1.9C428.9,118.3,430.8,120,432.3,121.6z
			 M433.2,113.6l-2,2c-1.4-1.5-3.2-3.1-5.7-4.9l2-2C429.8,110.4,431.7,112,433.2,113.6z"/>
	</g>
</g>
<g>
	<path class="st2" d="M629.2,108v3h-4.3c-0.4,2.4-1,4.6-1.7,6.7h5.6v6.9c3.1-3.3,5.4-7.4,7-12.3h-3v4.2H630v-7h6.7
		c0.3-1.1,0.5-2.2,0.8-3.3l2.9,0.5c-0.2,1-0.4,1.9-0.6,2.8h8.2v6.3h-3v-3.6h-6.1c-0.6,1.8-1.2,3.5-1.9,5.1h3c-0.3-1.1-0.7-2-1.1-3
		l2.7-0.7c0.5,1.4,0.9,2.6,1.2,3.8h4.6v2.7h-4.8v2.4h4.2v2.7h-4.2v2.5h4.4v2.7h-4.4v2.7h5.7v2.8h-13.1v1h-2.9v-11.8
		c-0.6,0.7-1.1,1.3-1.7,1.9l-1.6-2v10.4h-2.8v-1.6h-2.7v1.9h-2.7v-12.3c-0.5,0.8-0.9,1.5-1.4,2.2l-1.6-2.6c2.1-3.6,3.5-7.6,4.3-12.1
		H619v-3h10.2V108z M626.1,131v-10.5h-2.7V131H626.1z M639.6,120.1h-4c-0.2,0.3-0.4,0.6-0.5,1v1.5h4.5V120.1z M639.6,125.2h-4.5v2.5
		h4.5V125.2z M639.6,133.1v-2.7h-4.5v2.7H639.6z"/>
	<path class="st2" d="M658.1,110.4h3.2v2.8h-10.1v-2.8h3.9c-0.4-1.2-0.9-2.3-1.5-3.3l3-0.9C657.2,107.8,657.7,109.2,658.1,110.4z
		 M660.7,134.8h-5.8v1.5H652v-11.5h8.6v10H660.7z M660.3,115.4v2.7h-7.9v-2.7H660.3z M660.3,120v2.7h-7.9V120H660.3z M657.9,132.2
		v-4.8h-3v4.8H657.9z M665.8,126.3c-0.5,3.7-1.3,6.9-2.3,9.6l-2.5-1.6c1-2.6,1.7-5.5,2.2-8.6L665.8,126.3z M663.7,110.3v-2.8h15.9
		c-0.1,7.2-0.5,11.5-1.3,13c-0.9,1.4-2.3,2.1-4.4,2.1c-0.6,0-1.3-0.1-2-0.1l-0.8-2.7c0.9,0.1,1.6,0.1,2.2,0.2c1.4,0,2.3-0.6,2.7-1.6
		c0.3-1,0.6-3.7,0.6-8h-3.2c-0.6,2.6-1.4,4.8-2.5,6.8c-1.5,2.3-3.7,4.3-6.5,6.1l-1.9-2.5c2-1.1,3.7-2.4,4.9-3.8
		c-1.3-1.1-2.9-2.1-4.6-3.1l1.7-2.1c1.6,0.9,3.1,1.9,4.4,3c0.7-1.3,1.2-2.8,1.5-4.4L663.7,110.3L663.7,110.3z M669.5,136.3
		c-1.9,0-2.9-1.1-2.9-3.1v-8.3h2.9v7.7c0,0.6,0.3,0.9,0.9,0.9h3c0.4,0,0.7-0.2,0.9-0.5c0.2-0.4,0.4-1.5,0.5-3.3l2.7,0.9
		c-0.2,2.7-0.6,4.4-1.1,4.9c-0.6,0.5-1.4,0.8-2.4,0.8L669.5,136.3L669.5,136.3z M675.2,128.5l-2.4,1.1c-0.8-2-1.7-3.9-2.6-5.4
		l2.5-0.8C673.7,125,674.5,126.7,675.2,128.5z M681.7,133l-2.5,1.1c-0.9-3.2-1.8-6-2.9-8.4l2.6-0.9C680,127.4,680.9,130.1,681.7,133
		z"/>
	<path class="st2" d="M694,107.5c-0.7,2.2-1.7,4.4-2.8,6.5v22.9h-3.1v-18.1c-1.1,1.4-2.2,2.7-3.5,4.1l-1-3.3
		c3.4-3.9,5.9-8.4,7.5-13.5L694,107.5z M706.5,113.3v-6.8h3.1v6.8h4.6v3h-4.6v16.8c0,2.4-1.2,3.6-3.5,3.6h-4.9l-0.7-3.1
		c1.5,0.1,3.1,0.2,4.5,0.2c0.9,0,1.4-0.5,1.4-1.5v-16h-12.1v-3H706.5z M703.4,127l-2.7,1.8c-1.4-2.3-3.2-4.9-5.5-7.8l2.6-1.6
		C700.2,122.3,702.1,124.8,703.4,127z"/>
	<path class="st2" d="M722.2,128.1c-0.7,2.6-1.6,4.8-2.8,6.8l-2.3-1.5c1.3-1.8,2.1-3.7,2.6-5.8L722.2,128.1z M723.9,109.2v-2.8h3
		v2.8h5.8v2.7h-5.8v2.2h5v2.6h-13.6v-2.6h5.6v-2.2h-6.7v-2.7H723.9z M733,123.6v2.7h-6.4v10.5h-3v-10.5h-6.3v-2.7
		C717.3,123.6,733,123.6,733,123.6z M730.9,118.9v2.7h-11.5v-2.7H730.9z M732.4,132.2l-2.4,1.1c-0.6-1.9-1.3-3.6-2.1-5.1l2.5-0.8
		C731.2,128.9,731.9,130.4,732.4,132.2z M740.6,116.5c0,2.2-0.1,4.2-0.3,6c1.4,5,3.8,9,7.2,12l-2.1,2.4c-2.6-2.6-4.6-5.7-6-9.3
		c-1,3.8-3.3,6.9-6.9,9.4l-1.9-2.3c3.1-2.2,5.1-4.8,6-8c0.7-2.6,1.1-6.1,1.1-10.3h2.9V116.5z M738.3,107c-0.2,1.6-0.4,3-0.7,4.4h8.5
		v1.9c-0.4,2.8-1,5.5-1.6,8.3l-2.9-0.8c0.6-1.9,1.1-4.1,1.5-6.6H737c-0.8,2.7-1.7,4.9-2.9,6.5l-2.4-1.7c1.9-3,3.2-7.1,3.7-12.4
		L738.3,107z"/>
</g>
<g>
	<path class="st2" d="M734.3,303.4v3h-9v6.9c0,1,0.4,1.5,1.3,1.5h4.2c0.4,0,0.7-0.2,0.9-0.7s0.3-1.8,0.4-4.2l3,0.9
		c-0.3,3.3-0.7,5.3-1.2,5.9s-1.4,0.9-2.5,0.9h-5.7c-2.3,0-3.4-1.3-3.4-3.8v-7.4h-4.9v0.1c-0.1,3.2-1.1,5.8-2.7,7.8
		c-1.6,1.8-4.3,3.2-7.9,4.2l-1.8-2.8c3.5-0.9,5.9-2,7.3-3.4c1.2-1.5,1.9-3.4,2-5.7v-0.2h-8.7v-3H734.3z M734,298.9h-3.2v-4.7h-22
		v4.7h-3.2V291h12.3c-0.3-1-0.7-1.9-1.1-2.7l3.5-0.6c0.4,1,0.8,2,1.1,3.3H734L734,298.9L734,298.9z M729.1,297.2v3h-18.7v-3H729.1z"
		/>
	<path class="st2" d="M765,291l-1.5,1.5h4v3h-9.8c0.2,3.9,0.6,6.9,1.2,9.1c0.1,0.6,0.3,1.1,0.5,1.6c1.4-2.4,2.5-5.2,3.5-8.3l2.9,1.2
		c-1.3,4.2-3,7.8-5,10.8c0.4,0.8,0.7,1.5,1.1,2c1,1.5,1.8,2.2,2.3,2.2c0.4,0,0.9-1.6,1.3-4.8l2.8,1.5c-0.8,4.6-2,6.9-3.6,6.9
		c-1.5,0-3-1-4.6-2.9c-0.5-0.7-1-1.4-1.4-2.2c-2.2,2.5-4.8,4.4-7.7,5.6l-1.8-2.6c3.2-1.4,5.8-3.5,8-6.2c-0.5-1.2-0.9-2.5-1.2-3.9
		c-0.7-2.7-1.2-6-1.4-10H744v4.8h8.1c-0.1,6-0.4,9.7-0.9,11.3c-0.5,1.4-1.6,2.1-3.4,2.1c-0.8,0-1.7-0.1-2.7-0.2l-1-2.8
		c1.3,0.1,2.4,0.1,3.3,0.1c0.6,0,1-0.4,1.2-1.1c0.2-0.9,0.3-3,0.4-6.5h-5v0.2c-0.1,6.1-1.5,11-4,14.7l-2.4-2.1c2-3,3.1-7.2,3.2-12.6
		v-11h13.5c-0.1-1.5-0.1-3.2-0.1-4.8h3.2c0,1.7,0.1,3.3,0.1,4.8h5.1c-0.9-1-2-2-3.4-3.1l2-1.9C762.7,288.8,764,289.9,765,291z"/>
	<path class="st2" d="M776.4,295.5c1.1-1.2,2-2.5,2.9-3.9h-7.8v-2.8h11v2.4c-1.4,2.4-2.8,4.5-4.4,6.2c0.5,0.6,0.9,1.1,1.3,1.6h4.4
		v1.9c-0.5,2.6-1.1,4.6-1.7,6l-2.5-1c0.5-1.2,1-2.5,1.4-4.1h-2.9v13.1c0,2-1,3-2.8,3h-3.2l-0.6-2.8c1,0.1,1.9,0.2,2.8,0.2
		c0.5,0,0.8-0.4,0.8-1.1v-12.3h-4.6V299h5.6c-1.2-1.4-2.6-2.9-4.3-4.5l2.3-1.5C774.9,294,775.7,294.9,776.4,295.5z M790,293.9
		c0.3-0.7,0.5-1.5,0.7-2.2h-6.6v-2.8h16.5v2.8h-6.8c-0.2,0.8-0.4,1.5-0.7,2.2h6.3v18h-3.8c2.2,1.4,4.1,2.7,5.6,4.1l-2,2
		c-1.3-1.4-3.1-2.8-5.5-4.4l1.8-1.7h-6.2l2,1.7c-1.7,1.7-3.9,3.3-6.4,4.6l-1.7-2.2c2.4-1.2,4.5-2.5,6.1-4.1h-3.9v-18H790L790,293.9z
		 M796.4,299v-2.6h-8.2v2.6H796.4z M796.4,304.1v-2.7h-8.2v2.7H796.4z M796.4,306.5h-8.2v2.8h8.2V306.5z"/>
	<path class="st2" d="M828.5,297.4v3h-8.1v4.9h9.5v3h-9.5v6.1c2.2,0.3,5,0.5,8.3,0.5c1.6,0,3.4-0.1,5.1-0.2l-0.6,3.1h-3.1
		c-6.9,0-11.9-0.6-14.9-1.9c-2.1-1-3.8-2.4-5.1-4.4c-1.3,2.6-2.8,4.9-4.6,6.7l-2-2.5c3.1-3.2,5.2-7.6,6.3-13l3,0.5
		c-0.4,1.9-0.9,3.7-1.5,5.4c1.5,2.6,3.5,4.3,5.8,5l0.3,0.1v-13.3H809v-3H828.5L828.5,297.4z M832.5,298.4h-3.1v-4.6h-21.5v4.7h-3.1
		v-7.7h12.4c-0.5-1.1-1-2-1.5-2.9l3.4-0.5c0.5,1,0.9,2.1,1.4,3.4h12L832.5,298.4L832.5,298.4z"/>
</g>
<circle class="st3" cx="682.1" cy="53.9" r="36.5"/>
<path class="st4" d="M687.5,52l-8.9-2.6c-1.3-0.4-2-1.7-1.6-3c0-0.1,0.1-0.3,0.2-0.4c0.4-0.8,1.3-1.3,2.2-1.3h5.4c1,0,2,0.3,2.8,0.9
	c0.5,0.3,1.2,0.3,1.6-0.2l2.9-2.8c0.5-0.5,0.5-1.4,0-1.9l-0.1-0.1c-2-1.6-4.5-2.5-7.1-2.5v-4c0-0.7-0.6-1.3-1.3-1.3H681
	c-0.7,0-1.3,0.6-1.3,1.3V38h-0.2c-5,0-9,4-9,9c0,0.3,0,0.5,0,0.8c0.5,3.8,3.2,6.9,6.9,7.9l8.4,2.5c1.3,0.4,2,1.7,1.6,3v0.1
	c-0.4,1-1.3,1.6-2.4,1.6h-5.3c-1,0-2-0.3-2.8-0.9c-0.5-0.3-1.2-0.2-1.6,0.2l-2.8,2.8c-0.5,0.5-0.5,1.4,0,1.9l0.1,0.1
	c2,1.6,4.5,2.4,7.1,2.5v3.9c0,0.7,0.6,1.3,1.3,1.3h2.6c0.7,0,1.3-0.6,1.3-1.3v-4c3.9,0,7.3-2.4,8.7-6c1.6-4.7-0.9-9.8-5.6-11.4l0,0
	H687.5z"/>
<circle class="st5" cx="988.5" cy="53.9" r="36.5"/>
<path class="st4" d="M988.5,30.6c-12.9,0-23.3,10.4-23.3,23.3s10.4,23.3,23.3,23.3s23.3-10.4,23.3-23.3S1001.4,30.6,988.5,30.6
	L988.5,30.6z M988.5,35.1c10.4,0,18.8,8.4,18.8,18.8s-8.4,18.8-18.8,18.8c-10.4,0-18.8-8.4-18.8-18.8S978.1,35.1,988.5,35.1
	L988.5,35.1L988.5,35.1 M1001.7,47.3l-2.1-2.1c-0.4-0.4-1.2-0.4-1.6,0l0,0l0,0l-13.3,13.2l-5.6-5.7c-0.4-0.4-1.1-0.4-1.6,0l0,0
	l-2.1,2.1c-0.4,0.4-0.4,1.1,0,1.6l0,0l8.5,8.6c0.4,0.4,1.1,0.4,1.6,0l0,0l16.2-16.1C1002.1,48.5,1002.1,47.8,1001.7,47.3
	L1001.7,47.3L1001.7,47.3z"/>
<ellipse class="st5" cx="375.8" cy="53.7" rx="36.5" ry="36.7"/>
<path class="st4" d="M392.8,35.2h-34.1c-2.2,0-4,1.8-4,4v29.1c0,2.2,1.8,4,4,4h34.1c2.2,0,4-1.8,4-4V39.2
	C396.7,37,395,35.2,392.8,35.2z M392.7,68.2h-33.4c-0.3,0-0.5-0.2-0.5-0.5l0,0v-28c0-0.3,0.2-0.5,0.5-0.5h33.4
	c0.3,0,0.5,0.2,0.5,0.5v28C393.2,68,392.9,68.2,392.7,68.2L392.7,68.2L392.7,68.2z M389.1,60.8v2c0,0.6-0.4,1-1,1h-16.4
	c-0.6,0-1-0.4-1-1v-2c0-0.6,0.4-1,1-1h16.4C388.7,59.8,389.2,60.2,389.1,60.8L389.1,60.8z M389.1,52.8v2c0,0.6-0.4,1-1,1h-16.4
	c-0.6,0-1-0.4-1-1v-2c0-0.6,0.4-1,1-1h16.4C388.7,51.8,389.2,52.2,389.1,52.8L389.1,52.8z M389.1,44.8v2c0,0.6-0.4,1-1,1h-16.4
	c-0.6,0-1-0.4-1-1v-2c0-0.6,0.4-1,1-1h16.4C388.7,43.7,389.1,44.2,389.1,44.8L389.1,44.8z M368.3,45.9c0,1.7-1.3,3-3,3s-3-1.3-3-3
	s1.3-3,3-3S368.3,44.2,368.3,45.9z M368.3,53.9c0,1.7-1.4,3-3,3c-1.7,0-3-1.4-3-3c0-1.7,1.4-3,3-3C367,50.9,368.3,52.2,368.3,53.9
	L368.3,53.9z M368.3,61.9c0,1.7-1.3,3-3,3s-3-1.3-3-3s1.3-3,3-3l0,0C366.9,58.9,368.3,60.2,368.3,61.9L368.3,61.9z"/>
<line class="st6" x1="374.9" y1="-139.3" x2="993.9" y2="-139.3"/>
<g class="st1">
	<path class="st2" d="M335-84.6v-2.2h3v2.2h7.9v2.7H338v1.6h6.2v15.1h2.9v2.8h-6.5c2.2,1.2,4.2,2.5,6.1,4.1l-1.9,2.2
		c-1.9-1.7-4.1-3.2-6.3-4.5l1.9-1.7h-7.7l2,1.7c-1.9,1.7-4.3,3.2-7.1,4.5l-1.8-2.3c2.7-1.1,4.9-2.4,6.7-3.9H326v-2.3
		c-2.8,1.1-5.7,2-8.8,2.8l-0.8-3c1.3-0.2,2.5-0.5,3.8-0.8V-76h-3.4v-3h3.4v-7.7h3v7.7h3.1v3h-3.1v9.3c1-0.4,2-0.8,3-1.2v2.7h2.7
		v-15.1h6.1v-1.6h-7.9v-2.7C327.1-84.6,335-84.6,335-84.6z M341.2-76.3v-1.5h-9.4v1.5H341.2z M341.2-72.6v-1.5h-9.4v1.5H341.2z
		 M341.2-68.9v-1.5h-9.4v1.5H341.2z M341.2-65.1v-1.6h-9.4v1.6H341.2z"/>
	<path class="st2" d="M368.1-59.1c1.2,0.1,2.2,0.1,3.3,0.1c1.3,0,2.1-0.4,2.5-1.2s0.7-2.5,0.8-5.1h-17.9c-0.6,0.5-1.2,0.9-1.7,1.3
		l2.4,0.6c-0.6,2.4-1.3,4.6-2.1,6.5l-2.8-1c0.9-1.6,1.6-3.6,2.2-5.9c-0.9,0.6-1.7,1.1-2.6,1.5l-1.9-2.3c2.7-1.3,5.1-2.9,7.2-4.8h-3
		v-10.3c3.1-0.1,5.8-0.6,8.1-1.3l1.4,2.3c-1.6,0.5-3.8,1-6.7,1.4v1.5h6v2.4h-6v1.5H372v-1.5h-5.6v-2.3h5.6v-1.6h-6.1v-2.4h8.9v10.5
		H361c-0.5,0.5-0.9,1.1-1.3,1.5h18.1c-0.1,2.8-0.3,5.1-0.5,6.8c-0.3,1.7-0.8,2.9-1.4,3.6c-0.7,0.7-1.7,1-3.1,1.1h-4L368.1-59.1z
		 M378.6-78.1h-2.9v-3.5h-22v3.6h-2.9v-6.3h12.1c-0.4-0.7-0.8-1.4-1.2-1.9l3.2-0.5c0.4,0.7,0.8,1.5,1.2,2.5h12.6v6.1H378.6z
		 M363-58.2l-2.8,0.6c-0.3-2.2-0.6-4.1-1-5.7l2.6-0.6C362.2-62.1,362.6-60.2,363-58.2z M368.2-59.5l-2.7,0.7
		c-0.4-1.8-0.8-3.3-1.4-4.7l2.5-0.5C367.2-62.7,367.7-61.2,368.2-59.5z M373.1-60.9l-2.4,1c-0.5-1.5-1.1-2.8-1.6-3.9l2.3-1
		C372-63.6,372.6-62.3,373.1-60.9z"/>
	<path class="st2" d="M403.9-81.7c-0.1,0.5-0.3,0.9-0.4,1.3c2.3,2.2,5.3,3.5,8.9,3.9l-1.3,2.6c-0.9-0.1-1.7-0.3-2.5-0.6V-61H402
		c3.5,0.6,6.9,1.4,10.2,2.4l-1,2.5c-3.5-1.3-7.2-2.2-11-2.9l1-2h-7.6l1.4,1.7c-2.4,1.3-5.9,2.3-10.5,3.1l-1.4-2.4
		c4.2-0.7,7.5-1.5,9.8-2.4h-6.1v-13.6h7.9l-1.3-1.9c4.4-0.8,7-2.7,7.8-5.7L403.9-81.7z M392.6-79.1v2.7H383v-2.7H392.6z M391.9-85
		v2.6h-8.2V-85H391.9z M405.4-70.6v-1.5h-15.7v1.5H405.4z M405.4-67.1v-1.5h-15.7v1.5H405.4z M405.4-65h-15.7v1.6h15.7V-65z
		 M394.1-78.9l-1.7-2.3c2.3-1.6,3.9-3.5,4.7-5.8l2.9,0.3c-0.2,0.5-0.4,1.1-0.6,1.5H411v2.2c-0.9,1.7-1.8,3.2-2.8,4.3l-2.1-1.7
		c0.6-0.7,1.2-1.4,1.7-2.2H398C396.8-81.1,395.6-79.9,394.1-78.9z M408.2-74.5c-2.3-0.8-4.3-2-6-3.7c-1.4,1.7-3.4,3-6,3.7H408.2z"/>
	<path class="st2" d="M420-70.3c-0.7,3.4-1.5,6.5-2.4,9.1l-2.3-0.8c1-2.3,1.8-5.3,2.5-8.8L420-70.3z M420.1-77.2l-2.4,0.7
		c-0.5-2.3-1.1-4.6-1.8-6.7l2.6-0.8C419-82,419.6-79.7,420.1-77.2z M421-75.4v-11.4h3v11.4h4.5v3H424v16h-3v-16h-4.8v-3H421z
		 M428.6-84c-0.2,2.7-0.6,5.2-1.4,7.3l-2.3-0.7c0.6-2,0.9-4.3,1.1-6.9L428.6-84z M429.1-63.3l-2.4,0.6c-0.4-2.7-1-5.2-1.5-7.7l2-0.7
		C427.9-68.8,428.5-66.2,429.1-63.3z M442.5-86.7v18.5l2.8-0.4l0.5,3l-3.3,0.5v8.7h-3v-8.3l-9.6,1.5l-0.5-3l10.1-1.5v-19H442.5z
		 M437.7-71.5l-2.1,2.1c-1.3-1.6-3.1-3.4-5.5-5.2l2-1.9C434.3-74.9,436.1-73.2,437.7-71.5z M438.6-79.6l-2,2
		c-1.4-1.5-3.2-3.1-5.7-4.9l2-2C435.2-82.7,437.1-81.1,438.6-79.6z"/>
</g>
<g>
	<g>
		<path class="st2" d="M634.6-85.2v3h-4.3c-0.4,2.4-1,4.6-1.7,6.7h5.6v6.9c3.1-3.3,5.4-7.4,7-12.3h-3v4.2h-2.9v-7h6.7
			c0.3-1.1,0.5-2.2,0.8-3.3l2.9,0.5c-0.2,1-0.4,1.9-0.6,2.8h8.2v6.3h-2.9V-81h-6.1c-0.6,1.8-1.2,3.5-1.9,5.1h3c-0.3-1.1-0.7-2-1.1-3
			l2.7-0.7c0.5,1.4,0.9,2.6,1.2,3.8h4.6v2.7H648v2.4h4.2v2.7H648v2.5h4.4v2.7H648v2.7h5.7v2.8h-13.1v1h-2.9V-68
			c-0.6,0.7-1.1,1.3-1.7,1.9l-1.6-2v10.4h-2.8v-1.6h-2.7v1.9h-2.7v-12.3c-0.5,0.8-0.9,1.5-1.4,2.2l-1.6-2.6
			c2.1-3.6,3.5-7.6,4.3-12.1h-3.1v-3H634.6z M631.4-62.1v-10.5h-2.7v10.5H631.4z M645-73.1h-4c-0.2,0.3-0.4,0.6-0.5,1v1.5h4.5V-73.1
			z M645-67.9h-4.5v2.5h4.5V-67.9z M645-60v-2.7h-4.5v2.7H645z"/>
		<path class="st2" d="M663.5-82.7h3.2v2.8h-10.1v-2.8h3.9c-0.4-1.2-0.9-2.3-1.5-3.3l3-0.9C662.6-85.4,663.1-84,663.5-82.7z
			 M666.1-58.3h-5.8v1.5h-2.8v-11.5h8.6V-58.3z M665.7-77.8v2.7h-7.9v-2.7H665.7z M665.7-73.2v2.7h-7.9v-2.7H665.7z M663.3-61v-4.8
			h-3v4.8C660.3-61,663.3-61,663.3-61z M671.2-66.9c-0.5,3.7-1.3,6.9-2.3,9.6l-2.5-1.6c1-2.6,1.7-5.5,2.2-8.6L671.2-66.9z
			 M669.1-82.8v-2.8H685c-0.1,7.2-0.5,11.5-1.3,13c-0.9,1.4-2.3,2.1-4.4,2.1c-0.6,0-1.3-0.1-2-0.1l-0.8-2.7c0.9,0.1,1.6,0.1,2.2,0.2
			c1.4,0,2.3-0.6,2.7-1.6c0.3-1,0.6-3.7,0.6-8h-3.2c-0.6,2.6-1.4,4.8-2.5,6.8c-1.5,2.3-3.7,4.3-6.5,6.1l-1.9-2.5
			c2-1.1,3.7-2.4,4.9-3.8c-1.3-1.1-2.9-2.1-4.6-3.1l1.7-2.1c1.6,0.9,3.1,1.9,4.4,3c0.7-1.3,1.2-2.8,1.5-4.4L669.1-82.8L669.1-82.8z
			 M674.9-56.8c-1.9,0-2.9-1.1-2.9-3.1v-8.3h2.9v7.7c0,0.6,0.3,0.9,0.9,0.9h3c0.4,0,0.7-0.2,0.9-0.5c0.2-0.4,0.4-1.5,0.5-3.3
			l2.7,0.9c-0.2,2.7-0.6,4.4-1.1,4.9c-0.6,0.5-1.4,0.8-2.4,0.8C679.4-56.8,674.9-56.8,674.9-56.8z M680.6-64.6l-2.4,1.1
			c-0.8-2-1.7-3.9-2.6-5.4l2.5-0.8C679-68.2,679.9-66.5,680.6-64.6z M687.1-60.2l-2.5,1.1c-0.9-3.2-1.8-6-2.9-8.4l2.6-0.9
			C685.3-65.8,686.3-63.1,687.1-60.2z"/>
		<path class="st2" d="M699.4-85.7c-0.7,2.2-1.7,4.4-2.8,6.5v22.9h-3.1v-18.1c-1.1,1.4-2.2,2.7-3.5,4.1l-1-3.3
			c3.4-3.9,5.9-8.4,7.5-13.5L699.4-85.7z M711.9-79.8v-6.8h3.1v6.8h4.6v3H715V-60c0,2.4-1.2,3.6-3.5,3.6h-4.9l-0.7-3.1
			c1.5,0.1,3.1,0.2,4.5,0.2c0.9,0,1.4-0.5,1.4-1.5v-16h-12.1v-3H711.9z M708.8-66.2l-2.7,1.8c-1.4-2.3-3.2-4.9-5.5-7.8l2.6-1.6
			C705.6-70.8,707.5-68.3,708.8-66.2z"/>
		<path class="st2" d="M727.5-65c-0.7,2.6-1.6,4.8-2.8,6.8l-2.3-1.5c1.3-1.8,2.1-3.7,2.6-5.8L727.5-65z M729.3-83.9v-2.8h3v2.8h5.8
			v2.7h-5.8v2.2h5v2.6h-13.6V-79h5.6v-2.2h-6.7v-2.7C722.6-83.9,729.3-83.9,729.3-83.9z M738.4-69.6v2.7H732v10.5h-3v-10.5h-6.3
			v-2.7H738.4z M736.2-74.3v2.7h-11.5v-2.7H736.2z M737.8-61l-2.4,1.1c-0.6-1.9-1.3-3.6-2.1-5.1l2.5-0.8
			C736.5-64.3,737.2-62.7,737.8-61z M746-76.7c0,2.2-0.1,4.2-0.3,6c1.4,5,3.8,9,7.2,12l-2.1,2.4c-2.6-2.6-4.6-5.7-6-9.3
			c-1,3.8-3.3,6.9-6.9,9.4l-1.9-2.3c3.1-2.2,5.1-4.8,6-8c0.7-2.6,1.1-6.1,1.1-10.3h2.9V-76.7z M743.7-86.1c-0.2,1.6-0.4,3-0.7,4.4
			h8.5v1.9c-0.4,2.8-1,5.5-1.6,8.3l-2.9-0.8c0.6-1.9,1.1-4.1,1.5-6.6h-6.2c-0.8,2.7-1.7,4.9-2.9,6.5l-2.4-1.7
			c1.9-3,3.2-7.1,3.7-12.4L743.7-86.1z"/>
	</g>
</g>
<g>
	<g>
		<path class="st2" d="M960.4-71.1v3h-9v6.9c0,1,0.4,1.5,1.3,1.5h4.2c0.4,0,0.7-0.2,0.9-0.7s0.3-1.8,0.4-4.2l3,0.9
			c-0.3,3.3-0.7,5.3-1.2,5.9c-0.5,0.6-1.4,0.9-2.5,0.9h-5.7c-2.3,0-3.4-1.3-3.4-3.8v-7.6h-4.9v0.1c-0.1,3.2-1.1,5.8-2.7,7.8
			c-1.6,1.8-4.3,3.2-7.9,4.2l-1.8-2.8c3.5-0.9,5.9-2,7.3-3.4c1.2-1.5,1.9-3.4,2-5.7v-0.1h-8.7v-3L960.4-71.1L960.4-71.1z
			 M960.1-75.7h-3.2v-4.7h-22v4.7h-3.2v-7.8H944c-0.3-1-0.7-1.9-1.1-2.7l3.5-0.6c0.4,1,0.8,2,1.1,3.3h12.6V-75.7z M955.1-77.3v3
			h-18.7v-3H955.1z"/>
		<path class="st2" d="M991.1-83.5l-1.5,1.5h4v3h-9.8c0.2,3.9,0.6,6.9,1.2,9.1c0.1,0.6,0.3,1.1,0.5,1.6c1.4-2.4,2.5-5.2,3.5-8.3
			l2.9,1.2c-1.3,4.2-3,7.8-5,10.8c0.4,0.8,0.7,1.5,1.1,2c1,1.5,1.8,2.2,2.3,2.2c0.4,0,0.9-1.6,1.3-4.8l2.8,1.5
			c-0.8,4.6-2,6.9-3.6,6.9c-1.5,0-3-1-4.6-2.9c-0.5-0.7-1-1.4-1.4-2.2c-2.2,2.5-4.8,4.4-7.7,5.6l-1.8-2.6c3.2-1.4,5.8-3.5,8-6.2
			c-0.5-1.2-0.9-2.5-1.2-3.9c-0.7-2.7-1.2-6-1.4-10h-10.6v4.8h8.1c-0.1,6-0.4,9.7-0.9,11.3c-0.5,1.4-1.6,2.1-3.4,2.1
			c-0.8,0-1.7-0.1-2.7-0.2l-1-2.8c1.3,0.1,2.4,0.1,3.3,0.1c0.6,0,1-0.4,1.2-1.1c0.2-0.9,0.3-3,0.4-6.5h-5v0.2
			c-0.1,6.1-1.5,11-4,14.7l-2.4-2.1c2-3,3.1-7.2,3.2-12.6v-11h13.6c-0.1-1.5-0.1-3.2-0.1-4.8h3.2c0,1.7,0.1,3.3,0.1,4.8h5.1
			c-0.9-1-2-2-3.4-3.1l2-1.9C988.8-85.8,990.1-84.7,991.1-83.5z"/>
		<path class="st2" d="M1002.5-78.9c1.1-1.2,2-2.5,2.9-3.9h-7.8v-2.8h11v2.4c-1.4,2.4-2.8,4.5-4.4,6.2c0.5,0.6,0.9,1.1,1.3,1.6h4.4
			v1.9c-0.5,2.6-1.1,4.6-1.7,6l-2.5-1c0.5-1.2,1-2.5,1.4-4.1h-2.9v13.1c0,2-1,3-2.8,3h-3.2l-0.6-2.8c1,0.1,1.9,0.2,2.8,0.2
			c0.5,0,0.8-0.4,0.8-1.1v-12.3h-4.6v-2.9h5.6c-1.2-1.4-2.6-2.9-4.3-4.5l2.3-1.5C1001-80.5,1001.8-79.7,1002.5-78.9z M1016.1-80.6
			c0.3-0.7,0.5-1.5,0.7-2.2h-6.6v-2.8h16.5v2.8h-6.8c-0.2,0.8-0.4,1.5-0.7,2.2h6.3v18h-3.8c2.2,1.4,4.1,2.7,5.6,4.1l-2,2
			c-1.3-1.4-3.1-2.8-5.5-4.4l1.8-1.7h-6.2l2,1.7c-1.7,1.7-3.9,3.3-6.4,4.6l-1.7-2.2c2.4-1.2,4.5-2.5,6.1-4.1h-3.9v-18
			C1011.5-80.6,1016.1-80.6,1016.1-80.6z M1022.5-75.5v-2.6h-8.2v2.6H1022.5z M1022.5-70.4v-2.7h-8.2v2.7H1022.5z M1022.5-68h-8.2
			v2.8h8.2V-68z"/>
		<path class="st2" d="M1054.6-77.2v3h-8.1v4.9h9.5v3h-9.5v6.1c2.2,0.3,5,0.5,8.3,0.5c1.6,0,3.4-0.1,5.1-0.2l-0.6,3.1h-3.1
			c-6.9,0-11.9-0.6-14.9-1.9c-2.1-1-3.8-2.4-5.1-4.4c-1.3,2.6-2.8,4.9-4.6,6.7l-2-2.5c3.1-3.2,5.2-7.6,6.3-13l3,0.5
			c-0.4,1.9-0.9,3.7-1.5,5.4c1.5,2.6,3.5,4.3,5.8,5l0.3,0.1v-13.3h-8.4v-3C1035.1-77.2,1054.6-77.2,1054.6-77.2z M1058.6-76.2h-3.1
			v-4.6H1034v4.7h-3.1v-7.7h12.4c-0.5-1.1-1-2-1.5-2.9l3.4-0.5c0.5,1,0.9,2.1,1.4,3.4h12L1058.6-76.2L1058.6-76.2z"/>
	</g>
</g>
<circle class="st5" cx="687.5" cy="-139.3" r="36.5"/>
<path class="st4" d="M692.9-141.2l-8.9-2.6c-1.3-0.4-2-1.7-1.6-3c0-0.1,0.1-0.3,0.2-0.4c0.4-0.8,1.3-1.3,2.2-1.3h5.4
	c1,0,2,0.3,2.8,0.9c0.5,0.3,1.2,0.3,1.6-0.2l2.9-2.8c0.5-0.5,0.5-1.4,0-1.9l-0.1-0.1c-2-1.6-4.5-2.5-7.1-2.5v-4
	c0-0.7-0.6-1.3-1.3-1.3h-2.6c-0.7,0-1.3,0.6-1.3,1.3v3.9h-0.2c-5,0-9,4.1-9,9c0,0.3,0,0.5,0,0.8c0.5,3.8,3.2,6.9,6.9,7.9l8.4,2.5
	c1.3,0.4,2,1.8,1.6,3v0.1c-0.4,1-1.3,1.6-2.4,1.6h-5.3c-1,0-2-0.3-2.8-0.9c-0.5-0.3-1.2-0.3-1.6,0.2l-2.8,2.8
	c-0.5,0.5-0.5,1.4,0,1.9l0.1,0.1c2,1.6,4.5,2.4,7.1,2.5v3.9c0,0.7,0.6,1.3,1.3,1.3h2.6c0.7,0,1.3-0.6,1.3-1.3v-4
	c3.9,0,7.3-2.4,8.7-6c1.6-4.7-0.9-9.8-5.6-11.4C693.1-141.1,693-141.1,692.9-141.2z"/>
<circle class="st5" cx="993.9" cy="-139.3" r="36.5"/>
<path class="st4" d="M993.9-162.6c-12.9,0-23.3,10.4-23.3,23.3S981-116,993.9-116s23.3-10.4,23.3-23.3S1006.7-162.6,993.9-162.6
	L993.9-162.6z M993.9-158.1c10.4,0,18.8,8.4,18.8,18.8c0,10.4-8.4,18.8-18.8,18.8c-10.4,0-18.8-8.4-18.8-18.8
	C975.1-149.7,983.5-158.1,993.9-158.1L993.9-158.1 M1007-145.9l-2.1-2.1c-0.4-0.4-1.2-0.4-1.6,0l0,0L990-134.8l-5.6-5.7
	c-0.4-0.4-1.1-0.4-1.6,0l0,0l-2.1,2.1c-0.4,0.4-0.4,1.1,0,1.6l0,0l8.5,8.6c0.4,0.4,1.1,0.4,1.6,0l16.2-16.1
	C1007.5-144.7,1007.5-145.4,1007-145.9C1007-145.8,1007-145.8,1007-145.9L1007-145.9z"/>
<ellipse class="st3" cx="381.1" cy="-139.4" rx="36.5" ry="36.7"/>
<path class="st4" d="M398.2-158h-34.1c-2.2,0-4,1.8-4,4v29c0,2.2,1.8,4,4,4h34.1c2.2,0,4-1.8,4-4v-29
	C402.1-156.2,400.4-157.9,398.2-158z M398-125h-33.4c-0.3,0-0.5-0.2-0.5-0.5l0,0v-28c0-0.3,0.2-0.5,0.5-0.5H398
	c0.3,0,0.5,0.2,0.5,0.5v28C398.5-125.2,398.3-125,398-125C398.1-125,398-125,398-125L398-125z M394.5-132.4v2c0,0.6-0.4,1-1,1h-16.4
	c-0.6,0-1-0.4-1-1v-2c0-0.6,0.4-1,1-1h16.4C394.1-133.4,394.5-133,394.5-132.4L394.5-132.4z M394.5-140.4v2c0,0.6-0.4,1-1,1h-16.4
	c-0.6,0-1-0.4-1-1v-2c0-0.6,0.4-1,1-1h16.4C394.1-141.4,394.5-141,394.5-140.4L394.5-140.4z M394.5-148.5v2c0,0.6-0.4,1-1,1h-16.4
	c-0.6,0-1-0.4-1-1v-2c0-0.6,0.4-1,1-1h16.4C394.1-149.5,394.5-149,394.5-148.5L394.5-148.5z M373.7-147.3c0,1.7-1.3,3-3,3
	s-3-1.3-3-3s1.3-3,3-3C372.3-150.3,373.7-149,373.7-147.3L373.7-147.3z M373.7-139.4c0,1.7-1.3,3-3,3s-3-1.3-3-3s1.3-3,3-3
	C372.3-142.4,373.7-141.1,373.7-139.4L373.7-139.4z M373.7-131.4c0,1.7-1.3,3-3,3s-3-1.3-3-3s1.3-3,3-3l0,0
	C372.3-134.4,373.7-133.1,373.7-131.4L373.7-131.4z"/>
<g class="st1">
	<path class="st2" d="M658.6,274.7v-2.2h3v2.2h7.9v2.7h-7.9v1.6h6.2v15.1h2.9v2.8h-6.5c2.2,1.2,4.2,2.5,6.1,4.1l-1.9,2.2
		c-1.9-1.7-4.1-3.2-6.3-4.5l1.9-1.7h-7.7l2,1.7c-1.9,1.7-4.3,3.2-7.1,4.5l-1.8-2.3c2.7-1.1,4.9-2.4,6.7-3.9h-6.5v-2.3
		c-2.8,1.1-5.7,2-8.8,2.8l-0.8-3c1.3-0.2,2.5-0.5,3.8-0.8v-10.2h-3.4v-3h3.4v-7.7h3v7.7h3.1v3h-3.1v9.3c1-0.4,2-0.8,3-1.2v2.7h2.7
		V279h6.1v-1.6h-7.9v-2.7L658.6,274.7L658.6,274.7z M664.8,283v-1.5h-9.4v1.5H664.8z M664.8,286.7v-1.5h-9.4v1.5H664.8z
		 M664.8,290.4v-1.5h-9.4v1.5H664.8z M664.8,294.1v-1.6h-9.4v1.6H664.8z"/>
	<path class="st2" d="M691.7,300.1c1.2,0.1,2.2,0.1,3.3,0.1c1.3,0,2.1-0.4,2.5-1.2c0.4-0.8,0.7-2.5,0.8-5.1h-17.9
		c-0.6,0.5-1.2,0.9-1.7,1.3l2.4,0.6c-0.6,2.4-1.3,4.6-2.1,6.5l-2.8-1c0.9-1.6,1.6-3.6,2.2-5.9c-0.9,0.6-1.7,1.1-2.6,1.5l-1.9-2.3
		c2.7-1.3,5.1-2.9,7.2-4.8h-3v-10.3c3.1-0.1,5.8-0.6,8.1-1.3l1.4,2.3c-1.6,0.5-3.8,1-6.7,1.4v1.5h6v2.4h-6v1.5h14.8v-1.5h-5.6v-2.3
		h5.6v-1.6h-6.1v-2.4h8.9V290h-13.8c-0.5,0.5-0.9,1.1-1.3,1.5h18.1c-0.1,2.8-0.3,5.1-0.5,6.8c-0.3,1.7-0.8,2.9-1.4,3.6
		c-0.7,0.7-1.7,1-3.1,1.1h-4L691.7,300.1z M702.1,281.2h-2.9v-3.5h-22v3.6h-2.9V275h12.1c-0.4-0.7-0.8-1.4-1.2-1.9l3.2-0.5
		c0.4,0.7,0.8,1.5,1.2,2.5h12.6L702.1,281.2L702.1,281.2z M686.6,301.1l-2.8,0.6c-0.3-2.2-0.6-4.1-1-5.7l2.6-0.6
		C685.8,297.2,686.2,299,686.6,301.1z M691.8,299.7l-2.7,0.7c-0.4-1.8-0.8-3.3-1.4-4.7l2.5-0.5C690.8,296.6,691.3,298.1,691.8,299.7
		z M696.7,298.3l-2.4,1c-0.5-1.5-1.1-2.8-1.6-3.9l2.3-1C695.6,295.7,696.2,297,696.7,298.3z"/>
	<path class="st2" d="M727.5,277.6c-0.1,0.5-0.3,0.9-0.4,1.3c2.3,2.2,5.3,3.5,8.9,3.9l-1.3,2.6c-0.9-0.1-1.7-0.3-2.5-0.6v13.5h-6.5
		c3.5,0.6,6.9,1.4,10.2,2.4l-1,2.5c-3.5-1.3-7.2-2.2-11-2.9l1-2h-7.6l1.4,1.7c-2.4,1.3-5.9,2.3-10.5,3.1l-1.4-2.4
		c4.2-0.7,7.5-1.5,9.8-2.4h-6.1v-13.6h7.9l-1.3-1.9c4.4-0.8,7-2.7,7.8-5.7L727.5,277.6z M716.2,280.2v2.7h-9.5v-2.7H716.2z
		 M715.5,274.2v2.6h-8.2v-2.6H715.5z M729,288.6v-1.5h-15.7v1.5H729z M729,292.2v-1.5h-15.7v1.5H729z M729,294.2h-15.7v1.6H729
		V294.2z M717.7,280.4l-1.7-2.3c2.3-1.6,3.9-3.5,4.7-5.8l2.9,0.3c-0.2,0.5-0.4,1.1-0.6,1.5h11.6v2.2c-0.9,1.7-1.8,3.2-2.8,4.3
		l-2.1-1.7c0.6-0.7,1.2-1.4,1.7-2.2h-9.8C720.4,278.1,719.2,279.3,717.7,280.4z M731.8,284.7c-2.3-0.8-4.3-2-6-3.7
		c-1.4,1.7-3.4,3-6,3.7H731.8z"/>
	<path class="st2" d="M743.6,289c-0.7,3.4-1.5,6.5-2.4,9.1l-2.3-0.8c1-2.3,1.8-5.3,2.5-8.8L743.6,289z M743.7,282.1l-2.4,0.7
		c-0.5-2.3-1.1-4.6-1.8-6.7l2.6-0.8C742.6,277.2,743.2,279.5,743.7,282.1z M744.6,283.9v-11.4h3v11.4h4.5v3h-4.5v16h-3v-16h-4.8v-3
		H744.6z M752.2,275.2c-0.2,2.7-0.6,5.2-1.4,7.3l-2.3-0.7c0.6-2,0.9-4.3,1.1-6.9L752.2,275.2z M752.7,296l-2.4,0.6
		c-0.4-2.7-1-5.2-1.5-7.7l2-0.7C751.5,290.5,752.1,293.1,752.7,296z M766.1,272.6v18.5l2.8-0.4l0.5,3l-3.3,0.5v8.7h-3v-8.3l-9.6,1.5
		l-0.5-3l10.1-1.5v-19L766.1,272.6L766.1,272.6z M761.3,287.7l-2.1,2.1c-1.3-1.6-3.1-3.4-5.5-5.2l2-1.9
		C757.9,284.4,759.7,286,761.3,287.7z M762.2,279.7l-2,2c-1.4-1.5-3.2-3.1-5.7-4.9l2-2C758.8,276.5,760.7,278.1,762.2,279.7z"/>
</g>
<g>
	<path class="st2" d="M956.4,121.8v3h-9v6.9c0,1,0.4,1.5,1.3,1.5h4.2c0.4,0,0.7-0.2,0.9-0.7c0.2-0.5,0.3-1.8,0.4-4.2l3,0.9
		c-0.3,3.3-0.7,5.3-1.2,5.9c-0.5,0.6-1.4,0.9-2.5,0.9h-5.7c-2.3,0-3.4-1.3-3.4-3.8v-7.6h-4.9v0.1c-0.1,3.2-1.1,5.8-2.7,7.8
		c-1.6,1.8-4.3,3.2-7.9,4.2l-1.8-2.8c3.5-0.9,5.9-2,7.3-3.4c1.2-1.5,1.9-3.4,2-5.7v-0.1h-8.7v-3H956.4z M956.1,117.3h-3.2v-4.7h-22
		v4.7h-3.2v-7.8H940c-0.3-1-0.7-1.9-1.1-2.7l3.5-0.6c0.4,1,0.8,2,1.1,3.3h12.6V117.3z M951.2,115.7v3h-18.7v-3H951.2z"/>
	<path class="st2" d="M987.2,109.5l-1.5,1.5h4v3h-9.8c0.2,3.9,0.6,6.9,1.2,9.1c0.1,0.6,0.3,1.1,0.5,1.6c1.4-2.4,2.5-5.2,3.5-8.3
		l2.9,1.2c-1.3,4.2-3,7.8-5,10.8c0.4,0.8,0.7,1.5,1.1,2c1,1.5,1.8,2.2,2.3,2.2c0.4,0,0.9-1.6,1.3-4.8l2.8,1.5
		c-0.8,4.6-2,6.9-3.6,6.9c-1.5,0-3-1-4.6-2.9c-0.5-0.7-1-1.4-1.4-2.2c-2.2,2.5-4.8,4.4-7.7,5.6l-1.8-2.6c3.2-1.4,5.8-3.5,8-6.2
		c-0.5-1.2-0.9-2.5-1.2-3.9c-0.7-2.7-1.2-6-1.4-10H966v4.8h8.1c-0.1,6-0.4,9.7-0.9,11.3c-0.5,1.4-1.6,2.1-3.4,2.1
		c-0.8,0-1.7-0.1-2.7-0.2l-1-2.8c1.3,0.1,2.4,0.1,3.3,0.1c0.6,0,1-0.4,1.2-1.1c0.2-0.9,0.3-3,0.4-6.5h-5v0.2c-0.1,6.1-1.5,11-4,14.7
		l-2.4-2.1c2-3,3.1-7.2,3.2-12.6v-11h13.6c-0.1-1.5-0.1-3.2-0.1-4.8h3.2c0,1.7,0.1,3.3,0.1,4.8h5.1c-0.9-1-2-2-3.4-3.1l2-1.9
		C984.8,107.2,986.1,108.3,987.2,109.5z"/>
	<path class="st2" d="M998.5,114c1.1-1.2,2-2.5,2.9-3.9h-7.8v-2.8h11v2.4c-1.4,2.4-2.8,4.5-4.4,6.2c0.5,0.6,0.9,1.1,1.3,1.6h4.4v1.9
		c-0.5,2.6-1.1,4.6-1.7,6l-2.5-1c0.5-1.2,1-2.5,1.4-4.1h-2.9v13.1c0,2-1,3-2.8,3h-3.2l-0.6-2.8c1,0.1,1.9,0.2,2.8,0.2
		c0.5,0,0.8-0.4,0.8-1.1v-12.3h-4.6v-2.9h5.6c-1.2-1.4-2.6-2.9-4.3-4.5l2.3-1.5C997,112.5,997.8,113.3,998.5,114z M1012.1,112.3
		c0.3-0.7,0.5-1.5,0.7-2.2h-6.6v-2.8h16.5v2.8h-6.8c-0.2,0.8-0.4,1.5-0.7,2.2h6.3v18h-3.8c2.2,1.4,4.1,2.7,5.6,4.1l-2,2
		c-1.3-1.4-3.1-2.8-5.5-4.4l1.8-1.7h-6.2l2,1.7c-1.7,1.7-3.9,3.3-6.4,4.6l-1.7-2.2c2.4-1.2,4.5-2.5,6.1-4.1h-3.9v-18H1012.1z
		 M1018.5,117.4v-2.6h-8.2v2.6H1018.5z M1018.5,122.6v-2.7h-8.2v2.7H1018.5z M1018.5,125h-8.2v2.8h8.2V125z"/>
	<path class="st2" d="M1030.9,110.2c-0.5-1.1-1-2.2-1.5-3.2l3-0.8c0.7,1.5,1.2,2.8,1.5,4.1h4.3v2.9H1026v-2.9H1030.9z M1029.8,136.8
		h-3v-12.2h10.4v11.6h-3v-1.4h-4.4V136.8z M1036.8,115.1v2.7h-9.8v-2.7H1036.8z M1036.8,119.7v2.8h-9.8v-2.8H1036.8z M1034.2,127.4
		h-4.4v4.5h4.4V127.4z M1055.8,108.1v2.9h-5.9v21.4c0,2.5-1.1,3.8-3.3,3.8h-4.8l-0.7-3c1.5,0.1,3,0.2,4.4,0.2c0.9,0,1.3-0.6,1.3-1.7
		V111h-8v-2.9H1055.8z"/>
</g>
</svg>
